{
.appVersion = "3151";
.formatVersion = 3;
customParameters = (
{
name = vendorID;
value = "1BOU";
},
{
name = panose;
value = (
0,
0,
9,
0,
0,
0,
0,
0,
0,
0
);
},
{
name = unicodeRanges;
value = (
0,
1,
2,
3,
5,
13,
31,
33,
35,
38,
45,
60,
63,
67
);
},
{
name = codePageRanges;
value = (
"1252",
"1256"
);
},
{
name = fsType;
value = (
);
},
{
name = glyphOrder;
value = (
.notdef,
uni000D,
space,
exclam,
quotedbl,
numbersign,
dollar,
percent,
ampersand,
quotesingle,
parenleft,
parenright,
asterisk,
plus,
comma,
hyphen,
period,
slash,
zero,
one,
two,
three,
four,
five,
six,
seven,
eight,
nine,
colon,
semicolon,
less,
equal,
greater,
question,
at,
A,
B,
C,
D,
E,
F,
G,
H,
I,
J,
K,
L,
M,
N,
O,
P,
Q,
R,
S,
T,
U,
V,
W,
X,
Y,
Z,
bracketleft,
backslash,
bracketright,
asciicircum,
underscore,
grave,
a,
b,
c,
d,
e,
f,
g,
h,
i,
j,
k,
l,
m,
n,
o,
p,
q,
r,
s,
t,
u,
v,
w,
x,
y,
z,
braceleft,
bar,
braceright,
asciitilde,
exclamdown,
cent,
sterling,
yen,
brokenbar,
section,
dieresis,
copyright,
ordfeminine,
guillemotleft,
uni00AD,
registered,
macron,
degree,
plusminus,
twosuperior,
threesuperior,
acute,
paragraph,
periodcentered,
cedilla,
onesuperior,
ordmasculine,
guillemotright,
onequarter,
onehalf,
threequarters,
questiondown,
Agrave,
Aacute,
Acircumflex,
Atilde,
Adieresis,
Aring,
AE,
Ccedilla,
Egrave,
Eacute,
Ecircumflex,
Edieresis,
Igrave,
Iacute,
Icircumflex,
Idieresis,
Eth,
Ntilde,
Ograve,
Oacute,
Ocircumflex,
Otilde,
Odieresis,
multiply,
Oslash,
Ugrave,
Uacute,
Ucircumflex,
Udieresis,
Yacute,
Thorn,
germandbls,
agrave,
aacute,
acircumflex,
atilde,
adieresis,
aring,
ae,
ccedilla,
egrave,
eacute,
ecircumflex,
edieresis,
igrave,
iacute,
icircumflex,
idieresis,
eth,
ntilde,
ograve,
oacute,
ocircumflex,
otilde,
odieresis,
divide,
oslash,
ugrave,
uacute,
ucircumflex,
udieresis,
yacute,
thorn,
ydieresis,
dotlessi,
Lslash,
lslash,
OE,
oe,
Scaron,
scaron,
Ydieresis,
Zcaron,
zcaron,
florin,
circumflex,
caron,
breve,
dotaccent,
ring,
ogonek,
tilde,
hungarumlaut,
uni03BC,
uni060C,

glyphs = (
{
glyphname = .notdef;
layers = (
{
layerId = m01;
shapes = (
{
closed = 1;
nodes = (
(502,-220,l),
(110,-220,l),
(-19,511,l),
(373,511,l)
);
},
{
closed = 1;
nodes = (
(-60,545,l),
(81,-254,l),
(542,-254,l),
(401,545,l)
);
},
{
closed = 1;
nodes = (
(231,41,o),
(230,42,o),
(229,46,cs),
(223,80,ls),
(222,84,o),
(222,88,o),
(222,92,cs),
(222,115,o),
(233,132,o),
(266,161,cs),
(301,191,o),
(312,211,o),
(312,242,cs),
(312,304,o),
(265,348,o),
(198,348,cs),
(161,348,o),
(130,337,o),
(99,312,cs),
(95,309,o),
(93,308,o),
(90,308,cs),
(87,308,o),
(86,309,o),
(83,315,cs),
(77,328,ls),
(75,331,o),
(74,335,o),
(74,338,cs),
(74,361,o),
(137,387,o),
(191,387,cs),
(250,387,o),
(295,367,o),
(323,330,cs),
(341,306,o),
(353,271,o),
(353,243,cs),
(353,207,o),
(338,185,o),
(269,116,cs),
(262,109,o),
(259,102,o),
(259,93,cs),
(259,89,o),
(259,83,o),
(261,76,cs),
(266,46,l),
(266,46,o),
(266,45,o),
(266,44,cs),
(266,42,o),
(265,41,o),
(263,41,cs),
(234,41,ls)
);
},
{
closed = 1;
nodes = (
(278,-12,o),
(296,-30,o),
(296,-51,cs),
(296,-67,o),
(284,-79,o),
(269,-79,cs),
(248,-79,o),
(230,-60,o),
(230,-40,cs),
(230,-24,o),
(242,-12,o),
(257,-12,cs)
);
}
);
width = 524;
}
);
note = ".notdef";
},
{
glyphname = exclam;
layers = (
{
layerId = m01;
shapes = (
{
closed = 1;
nodes = (
(27,135,o),
(26,136,o),
(26,138,cs),
(26,139,o),
(26,140,o),
(26,141,cs),
(95,549,ls),
(96,554,o),
(98,556,o),
(101,556,cs),
(106,556,ls),
(126,556,o),
(139,541,o),
(139,519,cs),
(139,514,o),
(138,509,o),
(137,503,cs),
(70,141,ls),
(69,136,o),
(68,135,o),
(65,135,cs),
(30,135,ls)
);
},
{
closed = 1;
nodes = (
(53,69,o),
(71,54,o),
(71,34,cs),
(71,8,o),
(49,-16,o),
(24,-16,cs),
(4,-16,o),
(-13,0,o),
(-13,19,cs),
(-13,45,o),
(9,69,o),
(34,69,cs)
);
}
);
width = 141;
}
);
note = exclam;
unicode = 33;
},
{
glyphname = quotedbl;
layers = (
{
layerId = m01;
shapes = (
{
closed = 1;
nodes = (
(45,382,o),
(44,383,o),
(43,388,cs),
(1,549,l),
(1,550,o),
(1,551,o),
(1,551,c),
(1,554,o),
(2,556,o),
(5,556,cs),
(12,556,ls),
(43,556,o),
(58,539,o),
(62,503,cs),
(75,388,ls),
(75,387,o),
(75,386,o),
(75,385,cs),
(75,383,o),
(74,382,o),
(71,382,cs),
(49,382,ls)
);
},
{
closed = 1;
nodes = (
(144,382,o),
(143,383,o),
(141,388,c),
(100,549,ls),
(100,550,o),
(100,551,o),
(100,551,c),
(100,554,o),
(101,556,o),
(104,556,cs),
(111,556,ls),
(142,556,o),
(157,540,o),
(161,503,cs),
(174,388,ls),
(174,387,o),
(174,386,o),
(174,385,cs),
(174,383,o),
(172,382,o),
(170,382,cs),
(148,382,ls)
);
}
);
width = 218;
}
);
note = quotedbl;
unicode = 34;
},
{
glyphname = numbersign;
layers = (
{
layerId = m01;
shapes = (
{
closed = 1;
nodes = (
(82,159,ls),
(78,159,o),
(75,161,o),
(74,164,c),
(74,164,o),
(74,165,o),
(74,165,c),
(64,198,ls),
(63,202,o),
(64,204,o),
(68,204,cs),
(142,204,l),
(101,352,l),
(29,352,ls),
(25,352,o),
(22,353,o),
(21,357,c),
(21,357,o),
(21,357,o),
(21,358,c),
(11,391,ls),
(10,395,o),
(11,397,o),
(15,397,cs),
(89,397,l),
(47,549,l),
(47,550,l),
(47,551,ls),
(46,554,o),
(46,556,o),
(49,556,cs),
(58,556,ls),
(81,556,o),
(99,542,o),
(108,517,cs),
(109,514,o),
(109,512,o),
(110,509,cs),
(141,397,l),
(298,397,l),
(256,549,l),
(256,549,o),
(256,550,o),
(256,550,c),
(256,550,o),
(256,550,o),
(256,551,cs),
(255,554,o),
(255,556,o),
(258,556,cs),
(267,556,ls),
(290,556,o),
(308,542,o),
(317,515,cs),
(318,513,o),
(318,511,o),
(319,509,c),
(350,397,l),
(422,397,ls),
(426,397,o),
(429,394,o),
(430,391,c),
(430,391,l),
(439,358,ls),
(440,354,o),
(439,352,o),
(436,352,cs),
(362,352,l),
(403,204,l),
(476,204,ls),
(480,204,o),
(483,202,o),
(484,198,cs),
(493,165,ls),
(494,161,o),
(493,159,o),
(489,159,cs),
(414,159,l),
(456,6,ls),
(458,0,o),
(458,0,o),
(455,0,cs),
(413,0,ls),
(410,0,o),
(407,2,o),
(406,5,c),
(406,5,o),
(406,6,o),
(406,6,c),
(363,159,l),
(206,159,l),
(247,6,l),
(248,3,ls),
(249,0,o),
(249,0,o),
(246,0,cs),
(205,0,ls),
(201,0,o),
(198,2,o),
(197,5,c),
(197,5,o),
(197,6,o),
(197,6,c),
(154,159,l)
);
},
{
closed = 1;
nodes = (
(351,204,l),
(310,352,l),
(154,352,l),
(194,204,l)
);
}
);
width = 529;
}
);
note = numbersign;
unicode = 35;
},
{
glyphname = dollar;
layers = (
{
layerId = m01;
shapes = (
{
closed = 1;
nodes = (
(201,268,l),
(138,288,o),
(107,301,o),
(79,319,cs),
(36,348,o),
(10,394,o),
(10,444,cs),
(10,477,o),
(22,503,o),
(46,526,cs),
(72,550,o),
(98,560,o),
(148,566,c),
(139,616,l),
(139,616,o),
(139,617,o),
(139,618,cs),
(139,620,o),
(140,622,o),
(143,622,cs),
(174,622,ls),
(178,622,o),
(180,620,o),
(180,616,c),
(189,566,l),
(278,559,o),
(352,525,o),
(352,492,cs),
(352,491,o),
(351,490,o),
(351,489,cs),
(350,474,ls),
(350,468,o),
(348,466,o),
(344,466,cs),
(341,466,o),
(339,467,o),
(331,472,cs),
(289,497,o),
(243,514,o),
(197,518,c),
(236,300,l),
(300,280,o),
(328,268,o),
(355,251,cs),
(401,222,o),
(425,179,o),
(425,125,cs),
(425,95,o),
(417,70,o),
(401,48,cs),
(377,16,o),
(346,0,o),
(290,-9,c),
(299,-59,ls),
(299,-60,o),
(299,-61,o),
(299,-61,c),
(299,-64,o),
(298,-65,o),
(295,-65,cs),
(264,-65,ls),
(261,-65,o),
(259,-63,o),
(258,-59,cs),
(250,-11,l),
(176,-6,o),
(132,9,o),
(93,44,cs),
(68,66,o),
(50,95,o),
(50,113,cs),
(50,121,o),
(54,127,o),
(60,127,cs),
(66,127,o),
(69,125,o),
(77,117,cs),
(134,60,o),
(179,38,o),
(241,36,c)
);
},
{
closed = 1;
nodes = (
(282,39,l),
(346,50,o),
(377,78,o),
(377,127,cs),
(377,184,o),
(343,216,o),
(244,253,c)
);
},
{
closed = 1;
nodes = (
(156,519,l),
(90,513,o),
(58,487,o),
(58,439,cs),
(58,384,o),
(95,350,o),
(192,315,c)
);
}
);
width = 446;
}
);
note = dollar;
unicode = 36;
},
{
glyphname = percent;
layers = (
{
layerId = m01;
shapes = (
{
closed = 1;
nodes = (
(648,29,o),
(674,45,o),
(674,101,cs),
(674,163,o),
(657,229,o),
(632,262,cs),
(614,286,o),
(592,297,o),
(562,297,cs),
(517,297,o),
(497,260,o),
(497,221,cs),
(497,161,o),
(514,97,o),
(539,63,cs),
(556,40,o),
(579,29,o),
(610,29,cs)
);
},
{
closed = 1;
nodes = (
(218,261,o),
(245,290,o),
(245,333,cs),
(245,395,o),
(227,462,o),
(202,494,cs),
(185,517,o),
(163,528,o),
(133,528,cs),
(88,528,o),
(68,492,o),
(68,454,cs),
(68,394,o),
(85,329,o),
(110,295,cs),
(127,272,o),
(150,261,o),
(180,261,cs)
);
},
{
closed = 1;
nodes = (
(244,0,o),
(243,1,o),
(243,3,cs),
(243,4,o),
(244,5,o),
(244,6,c),
(447,549,ls),
(449,555,o),
(449,556,o),
(453,556,cs),
(459,556,ls),
(475,556,o),
(485,546,o),
(485,529,cs),
(485,522,o),
(483,513,o),
(480,503,cs),
(296,6,ls),
(294,1,o),
(293,0,o),
(289,0,cs),
(247,0,ls)
);
},
{
closed = 1;
nodes = (
(560,-9,o),
(517,19,o),
(488,73,cs),
(467,112,o),
(454,165,o),
(454,213,cs),
(454,277,o),
(491,335,o),
(558,335,cs),
(610,335,o),
(654,306,o),
(683,252,cs),
(704,213,o),
(718,159,o),
(718,111,cs),
(718,29,o),
(674,-9,o),
(616,-9,cs)
);
},
{
closed = 1;
nodes = (
(131,223,o),
(87,251,o),
(58,305,cs),
(37,344,o),
(24,397,o),
(24,444,cs),
(24,508,o),
(63,567,o),
(128,567,cs),
(218,567,o),
(288,468,o),
(288,343,cs),
(288,273,o),
(245,223,o),
(187,223,cs)
);
}
);
width = 719;
}
);
note = percent;
unicode = 37;
},
{
glyphname = ampersand;
layers = (
{
layerId = m01;
shapes = (
{
closed = 1;
nodes = (
(421,280,ls),
(424,287,o),
(428,290,o),
(435,290,cs),
(466,290,ls),
(470,290,o),
(472,288,o),
(472,285,cs),
(472,284,o),
(472,283,o),
(471,283,c),
(406,127,l),
(529,8,l),
(530,6,o),
(531,4,o),
(531,3,cs),
(531,1,o),
(530,0,o),
(527,0,cs),
(488,0,ls),
(477,0,o),
(475,1,o),
(467,9,cs),
(388,86,l),
(342,19,o),
(302,-6,o),
(241,-6,cs),
(139,-6,o),
(55,60,o),
(55,172,cs),
(55,222,o),
(84,262,o),
(154,309,c),
(78,379,o),
(54,417,o),
(54,468,cs),
(54,514,o),
(101,567,o),
(173,567,cs),
(273,567,o),
(326,516,o),
(326,434,cs),
(326,386,o),
(294,343,o),
(225,298,c),
(371,159,l)
);
},
{
closed = 1;
nodes = (
(255,367,o),
(277,393,o),
(277,434,cs),
(277,490,o),
(248,522,o),
(180,522,cs),
(133,522,o),
(104,486,o),
(104,462,cs),
(104,426,o),
(130,387,o),
(193,331,c)
);
},
{
closed = 1;
nodes = (
(188,276,l),
(124,238,o),
(104,213,o),
(104,171,cs),
(104,83,o),
(161,40,o),
(238,40,cs),
(293,40,o),
(324,60,o),
(354,117,c)
);
}
);
width = 518;
}
);
note = ampersand;
unicode = 38;
},
{
glyphname = quotesingle;
layers = (
{
layerId = m01;
shapes = (
{
closed = 1;
nodes = (
(31,382,o),
(30,383,o),
(29,388,cs),
(-13,549,l),
(-13,550,o),
(-13,551,o),
(-13,551,c),
(-13,554,o),
(-12,556,o),
(-9,556,cs),
(-2,556,ls),
(29,556,o),
(44,539,o),
(48,503,cs),
(61,388,ls),
(61,387,o),
(61,386,o),
(61,385,cs),
(61,383,o),
(60,382,o),
(57,382,cs),
(35,382,ls)
);
}
);
width = 118;
}
);
note = quotesingle;
unicode = 39;
},
{
glyphname = parenleft;
layers = (
{
layerId = m01;
shapes = (
{
closed = 1;
nodes = (
(122,60,o),
(212,-79,o),
(350,-144,cs),
(356,-147,o),
(360,-145,o),
(358,-138,c),
(353,-105,o),
(348,-96,o),
(324,-78,cs),
(218,3,o),
(156,119,o),
(130,277,cs),
(101,434,o),
(127,552,o),
(198,634,cs),
(213,653,o),
(217,660,o),
(212,691,cs),
(211,698,o),
(207,700,o),
(202,697,cs),
(115,641,o),
(44,486,o),
(82,277,cs)
);
}
);
width = 319;
}
);
note = parenleft;
unicode = 40;
},
{
glyphname = parenright;
layers = (
{
layerId = m01;
shapes = (
{
closed = 1;
nodes = (
(217,494,o),
(111,636,o),
(-12,697,cs),
(-19,700,o),
(-22,698,o),
(-21,691,cs),
(-15,657,o),
(-8,649,o),
(13,631,cs),
(114,548,o),
(179,449,o),
(207,277,cs),
(236,119,o),
(219,4,o),
(139,-81,cs),
(122,-99,o),
(120,-107,o),
(126,-138,cs),
(127,-145,o),
(130,-147,o),
(136,-144,cs),
(226,-88,o),
(295,49,o),
(255,277,cs)
);
}
);
width = 324;
}
);
note = parenright;
unicode = 41;
},
{
glyphname = asterisk;
layers = (
{
layerId = m01;
shapes = (
{
closed = 1;
nodes = (
(13,414,ls),
(10,415,o),
(8,418,o),
(8,422,c),
(8,422,o),
(8,422,o),
(8,423,cs),
(16,466,ls),
(16,468,o),
(17,469,o),
(19,469,cs),
(20,469,o),
(20,469,o),
(21,469,c),
(118,432,l),
(92,533,ls),
(92,534,o),
(92,534,o),
(92,534,c),
(92,537,o),
(93,538,o),
(97,538,cs),
(149,538,ls),
(154,538,o),
(156,537,o),
(156,533,cs),
(168,432,l),
(250,469,l),
(251,469,o),
(251,469,o),
(252,469,cs),
(254,469,o),
(256,468,o),
(257,466,cs),
(279,423,l),
(279,421,o),
(280,420,o),
(280,418,cs),
(280,416,o),
(279,415,o),
(277,414,c),
(188,388,l),
(263,310,ls),
(265,308,o),
(265,308,o),
(265,307,cs),
(265,306,o),
(264,304,o),
(262,303,cs),
(228,280,ls),
(225,278,o),
(225,278,o),
(224,278,cs),
(223,278,o),
(222,279,o),
(221,281,c),
(152,368,l),
(117,281,ls),
(116,279,o),
(116,278,o),
(114,278,c),
(114,278,o),
(112,279,o),
(111,280,c),
(110,280,o),
(110,280,o),
(110,280,c),
(68,303,l),
(65,304,o),
(64,306,o),
(64,307,cs),
(64,308,o),
(64,309,o),
(65,310,c),
(112,388,l)
);
}
);
width = 341;
}
);
note = asterisk;
unicode = 42;
},
{
glyphname = plus;
layers = (
{
layerId = m01;
shapes = (
{
closed = 1;
nodes = (
(47,249,ls),
(43,249,o),
(42,251,o),
(42,255,cs),
(42,289,ls),
(42,293,o),
(43,295,o),
(47,295,cs),
(170,295,l),
(170,437,ls),
(170,441,o),
(171,443,o),
(175,443,cs),
(204,443,o),
(216,429,o),
(216,397,cs),
(216,295,l),
(340,295,ls),
(344,295,o),
(345,293,o),
(345,289,cs),
(345,255,ls),
(345,251,o),
(344,249,o),
(340,249,cs),
(216,249,l),
(216,107,l),
(217,103,o),
(216,101,o),
(211,101,cs),
(175,101,ls),
(171,101,o),
(170,103,o),
(170,107,cs),
(170,249,l)
);
}
);
width = 384;
}
);
note = plus;
unicode = 43;
},
{
glyphname = comma;
layers = (
{
layerId = m01;
shapes = (
{
closed = 1;
nodes = (
(46,-11,o),
(28,10,o),
(28,33,cs),
(28,53,o),
(43,68,o),
(62,68,cs),
(92,68,o),
(113,43,o),
(113,6,cs),
(113,-30,o),
(105,-49,o),
(65,-101,cs),
(64,-102,o),
(64,-102,o),
(63,-102,cs),
(58,-102,o),
(49,-89,o),
(49,-81,cs),
(49,-74,o),
(51,-70,o),
(56,-61,cs),
(67,-39,o),
(69,-32,o),
(71,-16,c)
);
}
);
width = 137;
}
);
note = comma;
unicode = 44;
},
{
glyphname = hyphen;
layers = (
{
layerId = m01;
shapes = (
{
closed = 1;
nodes = (
(45,180,o),
(43,181,o),
(42,184,c),
(42,184,o),
(42,185,o),
(42,186,cs),
(36,221,ls),
(35,225,o),
(36,227,o),
(40,227,cs),
(254,227,ls),
(256,227,o),
(258,226,o),
(259,223,c),
(259,223,o),
(259,222,o),
(260,221,c),
(266,186,ls),
(267,181,o),
(266,180,o),
(262,180,cs),
(48,180,ls)
);
}
);
width = 305;
}
);
note = hyphen;
unicode = 45;
},
{
glyphname = period;
layers = (
{
layerId = m01;
shapes = (
{
closed = 1;
nodes = (
(135,69,o),
(158,45,o),
(158,19,cs),
(158,-1,o),
(144,-16,o),
(124,-16,cs),
(98,-16,o),
(75,8,o),
(75,34,cs),
(75,53,o),
(90,69,o),
(109,69,cs)
);
}
);
width = 183;
}
);
note = period;
unicode = 46;
},
{
glyphname = slash;
layers = (
{
layerId = m01;
shapes = (
{
closed = 1;
nodes = (
(2,0,o),
(1,1,o),
(1,3,c),
(2,6,l),
(136,549,ls),
(137,553,o),
(139,556,o),
(142,556,cs),
(148,556,ls),
(167,556,o),
(178,543,o),
(178,521,cs),
(178,515,o),
(178,509,o),
(176,503,cs),
(54,6,ls),
(53,2,o),
(51,0,o),
(47,0,cs),
(5,0,ls)
);
}
);
width = 271;
}
);
note = slash;
unicode = 47;
},
{
glyphname = zero;
layers = (
{
layerId = m01;
shapes = (
{
closed = 1;
nodes = (
(352,37,o),
(401,93,o),
(401,196,cs),
(401,291,o),
(391,371,o),
(356,430,cs),
(322,485,o),
(275,519,o),
(191,519,cs),
(115,519,o),
(79,443,o),
(79,354,cs),
(79,244,o),
(110,159,o),
(155,99,cs),
(185,58,o),
(226,37,o),
(277,37,cs)
);
},
{
closed = 1;
nodes = (
(199,-10,o),
(136,30,o),
(92,112,cs),
(55,180,o),
(30,256,o),
(30,346,cs),
(30,470,o),
(84,567,o),
(188,567,cs),
(293,567,o),
(362,515,o),
(407,432,cs),
(444,364,o),
(451,290,o),
(451,200,cs),
(451,67,o),
(385,-10,o),
(284,-10,cs)
);
}
);
width = 498;
}
);
note = zero;
unicode = 48;
},
{
glyphname = one;
layers = (
{
layerId = m01;
shapes = (
{
closed = 1;
nodes = (
(122,509,l),
(25,471,l),
(24,470,o),
(24,470,o),
(23,470,cs),
(21,470,o),
(20,472,o),
(19,474,c),
(12,513,ls),
(12,514,o),
(12,515,o),
(12,516,cs),
(12,521,o),
(14,523,o),
(18,524,c),
(76,547,ls),
(93,553,o),
(106,556,o),
(121,556,cs),
(129,556,ls),
(153,556,o),
(168,540,o),
(173,508,cs),
(254,47,l),
(336,47,ls),
(356,47,o),
(367,38,o),
(371,18,cs),
(373,7,l),
(373,7,o),
(373,6,o),
(373,5,cs),
(373,2,o),
(371,0,o),
(366,0,cs),
(106,0,ls),
(103,0,o),
(101,2,o),
(100,6,cs),
(94,41,ls),
(94,42,o),
(94,43,o),
(94,44,cs),
(94,46,o),
(95,47,o),
(98,47,cs),
(203,47,l)
);
}
);
width = 340;
}
);
note = one;
unicode = 49;
},
{
glyphname = two;
layers = (
{
layerId = m01;
shapes = (
{
closed = 1;
nodes = (
(390,47,ls),
(410,47,o),
(422,38,o),
(425,18,cs),
(427,7,l),
(427,7,o),
(427,6,o),
(427,5,cs),
(427,2,o),
(425,0,o),
(421,0,cs),
(94,0,ls),
(87,0,o),
(83,14,o),
(83,46,cs),
(83,115,o),
(119,169,o),
(210,238,cs),
(284,294,o),
(306,327,o),
(306,380,cs),
(306,464,o),
(249,519,o),
(164,519,cs),
(120,519,o),
(71,501,o),
(38,470,cs),
(35,467,o),
(31,466,o),
(28,466,cs),
(24,466,o),
(23,467,o),
(19,474,cs),
(11,489,ls),
(9,494,o),
(8,499,o),
(8,503,cs),
(8,515,o),
(20,526,o),
(52,542,cs),
(84,558,o),
(120,567,o),
(159,567,cs),
(229,567,o),
(284,543,o),
(318,497,cs),
(341,466,o),
(356,421,o),
(356,383,cs),
(356,326,o),
(326,282,o),
(235,207,cs),
(144,130,o),
(134,113,o),
(133,47,c)
);
}
);
width = 436;
}
);
note = two;
unicode = 50;
},
{
glyphname = three;
layers = (
{
layerId = m01;
shapes = (
{
closed = 1;
nodes = (
(375,275,o),
(424,214,o),
(424,129,cs),
(424,43,o),
(348,-10,o),
(266,-10,cs),
(207,-10,o),
(151,9,o),
(113,42,cs),
(89,63,o),
(70,93,o),
(70,111,cs),
(70,120,o),
(74,125,o),
(80,125,cs),
(86,125,o),
(86,125,o),
(112,98,cs),
(152,58,o),
(202,37,o),
(255,37,cs),
(315,37,o),
(372,72,o),
(372,136,cs),
(372,218,o),
(310,270,o),
(205,270,cs),
(153,270,ls),
(132,270,o),
(121,279,o),
(118,298,cs),
(116,308,l),
(116,308,o),
(116,309,o),
(116,310,cs),
(116,313,o),
(118,316,o),
(123,316,cs),
(211,316,ls),
(277,316,o),
(311,342,o),
(311,394,cs),
(311,471,o),
(270,519,o),
(169,519,cs),
(120,519,o),
(91,508,o),
(44,472,cs),
(39,468,o),
(35,466,o),
(32,466,cs),
(29,466,o),
(28,467,o),
(24,474,cs),
(16,489,ls),
(14,494,o),
(13,498,o),
(13,502,cs),
(13,531,o),
(95,567,o),
(161,567,cs),
(292,567,o),
(360,496,o),
(360,395,cs),
(360,346,o),
(337,314,o),
(285,291,c)
);
}
);
width = 434;
}
);
note = three;
unicode = 51;
},
{
glyphname = four;
layers = (
{
layerId = m01;
shapes = (
{
closed = 1;
nodes = (
(53,139,ls),
(49,139,o),
(48,141,o),
(47,145,cs),
(42,171,ls),
(41,176,o),
(41,180,o),
(41,182,cs),
(41,188,o),
(42,193,o),
(47,202,cs),
(217,539,ls),
(223,550,o),
(231,556,o),
(241,556,cs),
(256,556,ls),
(277,556,o),
(289,544,o),
(294,518,cs),
(352,186,l),
(396,186,ls),
(416,186,o),
(428,176,o),
(432,157,cs),
(433,146,l),
(434,145,o),
(434,144,o),
(434,143,cs),
(434,140,o),
(432,139,o),
(427,139,cs),
(361,139,l),
(384,6,ls),
(384,5,o),
(384,5,o),
(384,4,cs),
(384,1,o),
(383,0,o),
(380,0,cs),
(339,0,ls),
(336,0,o),
(334,2,o),
(333,6,cs),
(310,139,l)
);
},
{
closed = 1;
nodes = (
(301,186,l),
(246,498,l),
(91,186,l)
);
}
);
width = 433;
}
);
note = four;
unicode = 52;
},
{
glyphname = five;
layers = (
{
layerId = m01;
shapes = (
{
closed = 1;
nodes = (
(101,329,l),
(144,340,o),
(167,344,o),
(200,344,cs),
(338,344,o),
(411,262,o),
(411,136,cs),
(411,49,o),
(341,-10,o),
(252,-10,cs),
(197,-10,o),
(142,9,o),
(105,40,cs),
(81,61,o),
(62,92,o),
(62,111,cs),
(62,119,o),
(66,125,o),
(72,125,cs),
(77,125,o),
(77,125,o),
(104,98,cs),
(143,58,o),
(192,37,o),
(243,37,cs),
(309,37,o),
(360,76,o),
(360,139,cs),
(360,235,o),
(313,298,o),
(208,298,cs),
(165,298,o),
(108,286,o),
(71,270,cs),
(69,269,o),
(68,269,o),
(67,269,cs),
(64,269,o),
(61,271,o),
(61,276,c),
(12,549,ls),
(12,551,o),
(12,552,o),
(12,552,c),
(12,554,o),
(13,556,o),
(16,556,cs),
(278,556,ls),
(298,556,o),
(310,546,o),
(313,527,cs),
(315,516,ls),
(315,515,o),
(315,514,o),
(315,513,cs),
(315,510,o),
(313,508,o),
(308,508,cs),
(69,508,l)
);
}
);
width = 439;
}
);
note = five;
unicode = 53;
},
{
glyphname = six;
layers = (
{
layerId = m01;
shapes = (
{
closed = 1;
nodes = (
(167,342,o),
(197,348,o),
(228,348,cs),
(373,348,o),
(422,259,o),
(422,147,cs),
(422,72,o),
(350,-10,o),
(256,-10,cs),
(134,-10,o),
(55,83,o),
(55,206,cs),
(55,245,o),
(65,284,o),
(89,340,cs),
(182,558,l),
(185,563,o),
(189,567,o),
(193,567,cs),
(211,567,o),
(223,550,o),
(223,528,cs),
(223,517,o),
(221,507,o),
(216,497,cs),
(144,328,l)
);
},
{
closed = 1;
nodes = (
(318,37,o),
(371,101,o),
(371,152,cs),
(371,237,o),
(344,301,o),
(223,301,cs),
(154,301,o),
(106,262,o),
(106,198,cs),
(106,106,o),
(160,37,o),
(249,37,cs)
);
}
);
width = 449;
}
);
note = six;
unicode = 54;
},
{
glyphname = seven;
layers = (
{
layerId = m01;
shapes = (
{
closed = 1;
nodes = (
(13,508,ls),
(10,508,o),
(8,510,o),
(7,514,cs),
(1,549,ls),
(1,550,o),
(1,551,o),
(1,552,cs),
(1,554,o),
(2,556,o),
(5,556,cs),
(321,556,ls),
(341,556,o),
(352,546,o),
(356,527,cs),
(357,518,ls),
(358,511,o),
(359,507,o),
(359,503,cs),
(359,496,o),
(358,489,o),
(354,478,cs),
(220,11,ls),
(217,2,o),
(215,0,o),
(206,0,cs),
(167,0,ls),
(164,0,o),
(162,2,o),
(162,5,cs),
(162,6,o),
(162,6,o),
(162,6,c),
(308,508,l)
);
}
);
width = 427;
}
);
note = seven;
unicode = 55;
},
{
glyphname = eight;
layers = (
{
layerId = m01;
shapes = (
{
closed = 1;
nodes = (
(116,95,o),
(175,36,o),
(264,36,cs),
(335,36,o),
(383,70,o),
(383,129,cs),
(383,214,o),
(312,274,o),
(228,274,cs),
(160,274,o),
(116,235,o),
(116,176,cs)
);
},
{
closed = 1;
nodes = (
(86,372,o),
(146,319,o),
(221,319,cs),
(273,319,o),
(318,351,o),
(318,400,cs),
(318,467,o),
(273,519,o),
(184,519,cs),
(130,519,o),
(86,489,o),
(86,438,cs)
);
},
{
closed = 1;
nodes = (
(85,323,o),
(37,371,o),
(37,448,cs),
(37,518,o),
(101,567,o),
(177,567,cs),
(297,567,o),
(367,493,o),
(367,399,cs),
(367,354,o),
(344,321,o),
(295,297,c),
(382,269,o),
(434,232,o),
(434,122,cs),
(434,42,o),
(365,-11,o),
(271,-11,cs),
(148,-11,o),
(66,62,o),
(66,179,cs),
(66,241,o),
(101,273,o),
(152,297,c)
);
}
);
width = 446;
}
);
note = eight;
unicode = 56;
},
{
glyphname = nine;
layers = (
{
layerId = m01;
shapes = (
{
closed = 1;
nodes = (
(281,216,o),
(259,209,o),
(228,209,cs),
(100,209,o),
(23,276,o),
(23,415,cs),
(23,503,o),
(84,567,o),
(178,567,cs),
(312,567,o),
(389,480,o),
(389,350,cs),
(389,312,o),
(380,277,o),
(355,217,cs),
(262,-1,ls),
(259,-8,o),
(257,-10,o),
(250,-10,cs),
(233,-10,o),
(222,5,o),
(222,28,cs),
(222,38,o),
(224,48,o),
(228,58,cs),
(301,232,l)
);
},
{
closed = 1;
nodes = (
(296,256,o),
(338,294,o),
(338,358,cs),
(338,457,o),
(286,519,o),
(185,519,cs),
(115,519,o),
(74,475,o),
(74,411,cs),
(74,298,o),
(127,256,o),
(228,256,cs)
);
}
);
width = 449;
}
);
note = nine;
unicode = 57;
},
{
glyphname = colon;
layers = (
{
layerId = m01;
shapes = (
{
closed = 1;
nodes = (
(120,289,o),
(143,265,o),
(143,240,cs),
(143,219,o),
(129,204,o),
(109,204,cs),
(83,204,o),
(60,228,o),
(60,254,cs),
(60,273,o),
(76,289,o),
(94,289,cs)
);
},
{
closed = 1;
nodes = (
(159,69,o),
(182,45,o),
(182,19,cs),
(182,-1,o),
(167,-16,o),
(148,-16,cs),
(122,-16,o),
(99,8,o),
(99,34,cs),
(99,53,o),
(114,69,o),
(133,69,cs)
);
}
);
width = 157;
}
);
note = colon;
unicode = 58;
},
{
glyphname = semicolon;
layers = (
{
layerId = m01;
shapes = (
{
closed = 1;
nodes = (
(9,-12,o),
(-1,5,o),
(-1,23,cs),
(-1,49,o),
(18,68,o),
(46,68,cs),
(65,68,o),
(82,50,o),
(82,27,cs),
(82,-14,o),
(39,-71,o),
(-9,-101,c),
(-10,-102,o),
(-11,-102,o),
(-11,-102,c),
(-14,-102,o),
(-19,-93,o),
(-19,-88,cs),
(-19,-80,o),
(-15,-72,o),
(-4,-61,cs),
(13,-41,o),
(20,-32,o),
(27,-16,c)
);
},
{
closed = 1;
nodes = (
(108,289,o),
(125,274,o),
(125,254,cs),
(125,228,o),
(104,204,o),
(78,204,cs),
(59,204,o),
(42,220,o),
(42,240,cs),
(42,265,o),
(64,289,o),
(89,289,cs)
);
}
);
width = 157;
}
);
note = semicolon;
unicode = 59;
},
{
glyphname = less;
layers = (
{
layerId = m01;
shapes = (
{
closed = 1;
nodes = (
(378,169,ls),
(403,159,o),
(414,139,o),
(414,115,cs),
(414,108,ls),
(415,102,o),
(412,100,o),
(408,102,cs),
(60,246,ls),
(56,248,o),
(55,249,o),
(55,254,cs),
(55,287,ls),
(55,292,o),
(56,293,o),
(60,295,cs),
(408,438,l),
(412,439,o),
(415,439,o),
(415,433,cs),
(414,398,ls),
(414,388,o),
(410,384,o),
(401,381,cs),
(124,272,l)
);
}
);
width = 449;
}
);
note = less;
unicode = 60;
},
{
glyphname = equal;
layers = (
{
layerId = m01;
shapes = (
{
closed = 1;
nodes = (
(41,333,o),
(40,335,o),
(40,339,cs),
(40,374,ls),
(40,378,o),
(41,379,o),
(45,379,cs),
(304,379,ls),
(329,379,o),
(343,364,o),
(343,344,cs),
(343,339,ls),
(343,335,o),
(342,333,o),
(338,333,cs),
(45,333,ls)
);
},
{
closed = 1;
nodes = (
(41,159,o),
(40,161,o),
(40,165,cs),
(40,200,ls),
(40,204,o),
(41,206,o),
(45,206,cs),
(304,206,ls),
(329,206,o),
(343,190,o),
(343,170,cs),
(343,165,ls),
(343,161,o),
(342,159,o),
(338,159,cs),
(45,159,ls)
);
}
);
width = 384;
}
);
note = equal;
unicode = 61;
},
{
glyphname = greater;
layers = (
{
layerId = m01;
shapes = (
{
closed = 1;
nodes = (
(50,381,ls),
(41,384,o),
(36,388,o),
(36,398,cs),
(36,433,ls),
(36,439,o),
(39,439,o),
(43,438,c),
(391,295,ls),
(395,293,o),
(396,292,o),
(396,287,cs),
(396,254,ls),
(396,249,o),
(395,248,o),
(391,246,cs),
(43,102,ls),
(39,100,o),
(36,102,o),
(36,108,cs),
(36,115,ls),
(36,139,o),
(47,159,o),
(72,169,cs),
(326,272,l)
);
}
);
width = 449;
}
);
note = greater;
unicode = 62;
},
{
glyphname = question;
layers = (
{
layerId = m01;
shapes = (
{
closed = 1;
nodes = (
(131,135,o),
(130,136,o),
(130,139,c),
(130,139,o),
(130,139,o),
(130,141,cs),
(137,183,ls),
(144,220,o),
(166,247,o),
(224,287,cs),
(302,342,o),
(328,378,o),
(328,433,cs),
(328,488,o),
(292,518,o),
(225,518,cs),
(178,518,o),
(132,503,o),
(84,473,cs),
(80,470,o),
(76,469,o),
(72,469,cs),
(68,469,o),
(67,470,o),
(66,477,cs),
(64,493,ls),
(64,494,o),
(64,496,o),
(64,497,cs),
(64,530,o),
(149,567,o),
(229,567,cs),
(323,567,o),
(381,516,o),
(381,437,cs),
(381,361,o),
(344,316,o),
(239,246,cs),
(190,213,o),
(189,212,o),
(183,179,cs),
(176,141,ls),
(175,136,o),
(174,135,o),
(170,135,cs),
(134,135,ls)
);
},
{
closed = 1;
nodes = (
(157,69,o),
(174,54,o),
(174,33,cs),
(174,8,o),
(152,-16,o),
(127,-16,cs),
(107,-16,o),
(90,0,o),
(90,19,cs),
(90,45,o),
(112,69,o),
(138,69,cs)
);
}
);
width = 388;
}
);
note = question;
unicode = 63;
},
{
glyphname = at;
layers = (
{
layerId = m01;
shapes = (
{
closed = 1;
nodes = (
(454,85,o),
(502,128,o),
(502,204,cs),
(502,300,o),
(447,366,o),
(364,366,cs),
(293,366,o),
(251,320,o),
(251,244,cs),
(251,151,o),
(300,85,o),
(379,85,cs)
);
},
{
closed = 1;
nodes = (
(484,62,o),
(429,37,o),
(375,37,cs),
(272,37,o),
(199,135,o),
(199,251,cs),
(199,345,o),
(266,413,o),
(358,413,cs),
(411,413,o),
(452,394,o),
(486,354,c),
(486,358,o),
(486,361,o),
(486,363,cs),
(486,388,o),
(499,404,o),
(519,404,cs),
(528,404,ls),
(531,404,o),
(534,402,o),
(534,399,cs),
(554,162,ls),
(556,130,o),
(558,120,o),
(560,112,cs),
(566,94,o),
(581,83,o),
(600,83,cs),
(647,83,o),
(672,135,o),
(672,207,cs),
(672,389,o),
(551,523,o),
(361,523,cs),
(205,523,o),
(95,417,o),
(95,269,cs),
(95,66,o),
(220,-78,o),
(421,-78,cs),
(499,-78,o),
(612,-52,o),
(652,-15,cs),
(657,-11,o),
(660,-9,o),
(664,-9,cs),
(670,-9,o),
(674,-16,o),
(674,-24,cs),
(674,-35,o),
(663,-51,o),
(642,-68,cs),
(597,-104,o),
(496,-124,o),
(421,-124,cs),
(195,-124,o),
(43,41,o),
(43,271,cs),
(43,434,o),
(169,568,o),
(353,568,cs),
(576,568,o),
(722,423,o),
(722,210,cs),
(722,107,o),
(675,38,o),
(599,38,cs),
(555,38,o),
(521,64,o),
(508,108,c)
);
}
);
width = 771;
}
);
note = at;
unicode = 64;
},
{
glyphname = A;
kernLeft = A;
kernRight = A;
layers = (
{
layerId = m01;
shapes = (
{
closed = 1;
nodes = (
(27,12,ls),
(22,2,o),
(20,0,o),
(10,0,cs),
(-30,0,ls),
(-33,0,o),
(-35,1,o),
(-35,3,cs),
(-35,4,o),
(-34,6,o),
(-34,7,c),
(274,549,l),
(276,554,o),
(279,556,o),
(283,556,cs),
(288,556,ls),
(315,556,o),
(327,546,o),
(332,521,cs),
(441,7,l),
(441,7,o),
(441,6,o),
(441,5,cs),
(441,2,o),
(439,0,o),
(436,0,cs),
(401,0,ls),
(391,0,o),
(390,1,o),
(388,12,cs),
(356,169,l),
(112,169,l)
);
},
{
closed = 1;
nodes = (
(346,216,l),
(291,493,l),
(139,216,l)
);
}
);
width = 498;
}
);
note = A;
unicode = 65;
},
{
glyphname = B;
layers = (
{
layerId = m01;
shapes = (
{
closed = 1;
nodes = (
(412,277,o),
(434,226,o),
(434,169,cs),
(434,64,o),
(360,0,o),
(235,0,cs),
(31,0,ls),
(28,0,o),
(27,1,o),
(27,4,cs),
(27,5,o),
(27,5,o),
(27,6,cs),
(123,549,ls),
(124,554,o),
(126,556,o),
(129,556,cs),
(310,554,ls),
(398,553,o),
(454,507,o),
(454,435,cs),
(454,360,o),
(428,317,o),
(355,293,c)
);
},
{
closed = 1;
nodes = (
(233,47,ls),
(335,47,o),
(383,91,o),
(383,179,cs),
(383,234,o),
(351,271,o),
(281,271,cs),
(124,271,l),
(84,47,l)
);
},
{
closed = 1;
nodes = (
(291,317,ls),
(361,317,o),
(404,361,o),
(404,432,cs),
(404,477,o),
(372,508,o),
(310,508,cs),
(166,508,l),
(132,317,l)
);
}
);
width = 486;
}
);
note = B;
unicode = 66;
},
{
glyphname = C;
kernLeft = C;
kernRight = C;
layers = (
{
layerId = m01;
shapes = (
{
closed = 1;
nodes = (
(508,467,o),
(506,464,o),
(502,464,cs),
(499,464,o),
(499,464,o),
(477,481,cs),
(447,504,o),
(398,519,o),
(354,519,cs),
(205,519,o),
(103,393,o),
(103,206,cs),
(103,97,o),
(160,36,o),
(266,36,cs),
(333,36,o),
(391,63,o),
(440,118,cs),
(444,123,o),
(448,125,o),
(452,125,cs),
(458,125,o),
(463,120,o),
(462,113,c),
(462,96,o),
(445,66,o),
(419,44,cs),
(379,9,o),
(320,-11,o),
(258,-11,cs),
(123,-11,o),
(53,61,o),
(53,208,cs),
(53,418,o),
(175,567,o),
(357,567,cs),
(430,567,o),
(520,532,o),
(520,502,cs),
(520,498,o),
(519,494,o),
(517,489,cs),
(511,473,ls)
);
}
);
width = 513;
}
);
note = C;
unicode = 67;
},
{
glyphname = D;
layers = (
{
layerId = m01;
shapes = (
{
closed = 1;
nodes = (
(28,0,o),
(27,1,o),
(27,4,cs),
(27,5,o),
(27,5,o),
(27,6,cs),
(123,549,ls),
(124,554,o),
(126,556,o),
(129,556,cs),
(274,556,ls),
(433,556,o),
(505,485,o),
(505,336,cs),
(505,254,o),
(484,176,o),
(448,119,cs),
(396,39,o),
(303,0,o),
(186,0,cs),
(31,0,ls)
);
},
{
closed = 1;
nodes = (
(194,47,ls),
(287,47,o),
(358,76,o),
(404,142,cs),
(437,189,o),
(455,266,o),
(455,343,cs),
(455,453,o),
(397,508,o),
(264,508,cs),
(166,508,l),
(84,47,l)
);
}
);
width = 553;
}
);
note = D;
unicode = 68;
},
{
glyphname = E;
kernRight = E;
layers = (
{
layerId = m01;
shapes = (
{
closed = 1;
nodes = (
(303,47,ls),
(320,47,o),
(329,39,o),
(329,26,cs),
(329,23,o),
(329,20,o),
(328,18,c),
(326,7,l),
(326,2,o),
(323,0,o),
(317,0,cs),
(31,0,ls),
(28,0,o),
(27,1,o),
(27,3,cs),
(27,4,o),
(27,5,o),
(27,6,cs),
(123,549,ls),
(124,554,o),
(125,556,o),
(129,556,cs),
(383,556,ls),
(400,556,o),
(409,548,o),
(409,535,cs),
(409,532,o),
(408,529,o),
(408,527,cs),
(406,516,ls),
(405,510,o),
(403,509,o),
(397,509,cs),
(166,509,l),
(129,298,l),
(320,298,ls),
(337,298,o),
(346,291,o),
(346,277,cs),
(346,275,o),
(345,272,o),
(345,269,cs),
(343,257,ls),
(342,252,o),
(340,251,o),
(334,251,cs),
(121,251,l),
(85,47,l)
);
}
);
width = 404;
}
);
note = E;
unicode = 69;
},
{
glyphname = F;
layers = (
{
layerId = m01;
shapes = (
{
closed = 1;
nodes = (
(77,6,ls),
(76,2,o),
(75,0,o),
(71,0,cs),
(31,0,ls),
(28,0,o),
(27,1,o),
(27,4,cs),
(27,5,o),
(27,5,o),
(27,6,cs),
(123,549,ls),
(124,554,o),
(126,556,o),
(129,556,cs),
(383,556,ls),
(399,556,o),
(409,548,o),
(409,535,cs),
(409,532,o),
(408,529,o),
(408,527,cs),
(406,516,ls),
(405,510,o),
(402,508,o),
(397,508,cs),
(166,508,l),
(129,298,l),
(320,298,ls),
(337,298,o),
(345,290,o),
(345,277,cs),
(345,274,o),
(345,272,o),
(345,270,cs),
(343,258,ls),
(342,253,o),
(339,251,o),
(333,251,cs),
(120,251,l)
);
}
);
width = 389;
}
);
note = F;
unicode = 70;
},
{
glyphname = G;
layers = (
{
layerId = m01;
shapes = (
{
closed = 1;
nodes = (
(454,238,l),
(323,238,ls),
(306,238,o),
(297,245,o),
(297,259,cs),
(297,262,o),
(297,264,o),
(298,267,c),
(299,277,ls),
(300,282,o),
(303,284,o),
(309,284,cs),
(507,284,ls),
(510,284,o),
(512,283,o),
(512,280,cs),
(512,279,o),
(511,278,o),
(511,278,c),
(479,97,ls),
(476,78,o),
(474,74,o),
(463,63,cs),
(408,13,o),
(327,-11,o),
(256,-11,cs),
(116,-11,o),
(53,72,o),
(53,213,cs),
(53,421,o),
(177,567,o),
(357,567,cs),
(437,567,o),
(530,529,o),
(530,502,cs),
(530,498,o),
(529,494,o),
(527,489,cs),
(520,473,ls),
(518,467,o),
(515,464,o),
(511,464,cs),
(508,464,o),
(506,466,o),
(500,471,cs),
(460,503,o),
(411,519,o),
(355,519,cs),
(205,519,o),
(102,405,o),
(102,206,cs),
(102,96,o),
(160,36,o),
(266,36,cs),
(327,36,o),
(375,54,o),
(429,96,c)
);
}
);
width = 564;
}
);
note = G;
unicode = 71;
},
{
glyphname = H;
layers = (
{
layerId = m01;
shapes = (
{
closed = 1;
nodes = (
(77,6,ls),
(76,2,o),
(75,0,o),
(71,0,cs),
(31,0,ls),
(28,0,o),
(27,1,o),
(27,4,cs),
(27,5,o),
(27,5,o),
(27,6,cs),
(123,549,ls),
(124,554,o),
(126,556,o),
(129,556,cs),
(134,556,ls),
(154,556,o),
(166,541,o),
(166,517,cs),
(166,513,o),
(166,508,o),
(165,503,cs),
(129,298,l),
(405,298,l),
(450,549,l),
(450,554,o),
(452,556,o),
(456,556,cs),
(460,556,ls),
(480,556,o),
(493,541,o),
(493,517,cs),
(493,513,o),
(492,508,o),
(491,503,cs),
(404,6,ls),
(403,1,o),
(402,0,o),
(398,0,cs),
(358,0,ls),
(355,0,o),
(354,1,o),
(354,4,cs),
(354,5,o),
(354,5,o),
(354,6,cs),
(397,252,l),
(121,252,l)
);
}
);
width = 522;
}
);
note = H;
unicode = 72;
},
{
glyphname = I;
kernRight = I;
layers = (
{
layerId = m01;
shapes = (
{
closed = 1;
nodes = (
(28,0,o),
(27,1,o),
(27,3,cs),
(27,4,o),
(27,5,o),
(27,6,cs),
(123,549,ls),
(124,554,o),
(125,556,o),
(129,556,cs),
(134,556,ls),
(154,556,o),
(167,540,o),
(167,517,cs),
(167,512,o),
(166,508,o),
(166,504,c),
(78,6,ls),
(77,2,o),
(75,0,o),
(72,0,cs),
(31,0,ls)
);
}
);
width = 196;
}
);
note = I;
unicode = 73;
},
{
glyphname = J;
layers = (
{
layerId = m01;
shapes = (
{
closed = 1;
nodes = (
(170,38,o),
(137,-10,o),
(57,-10,cs),
(9,-10,o),
(-27,21,o),
(-27,64,cs),
(-27,78,o),
(-23,87,o),
(-15,87,cs),
(-12,87,o),
(-10,85,o),
(-9,81,cs),
(1,54,o),
(28,35,o),
(57,35,cs),
(94,35,o),
(124,60,o),
(130,96,cs),
(210,549,ls),
(211,554,o),
(213,556,o),
(216,556,cs),
(220,556,ls),
(240,556,o),
(253,540,o),
(253,517,cs),
(253,513,o),
(253,508,o),
(252,503,cs),
(182,108,ls)
);
}
);
width = 280;
}
);
note = J;
unicode = 74;
},
{
glyphname = K;
layers = (
{
layerId = m01;
shapes = (
{
closed = 1;
nodes = (
(413,8,l),
(413,7,o),
(413,6,o),
(413,6,c),
(413,2,o),
(411,0,o),
(406,0,cs),
(370,0,ls),
(361,0,o),
(358,2,o),
(355,10,cs),
(228,295,l),
(107,178,l),
(77,6,ls),
(76,2,o),
(75,0,o),
(71,0,cs),
(31,0,ls),
(28,0,o),
(27,1,o),
(27,4,cs),
(27,5,o),
(27,5,o),
(27,6,cs),
(123,549,ls),
(124,554,o),
(126,556,o),
(129,556,cs),
(134,556,ls),
(154,556,o),
(166,541,o),
(166,517,cs),
(166,513,o),
(166,508,o),
(165,503,cs),
(120,248,l),
(423,547,ls),
(431,555,o),
(432,556,o),
(442,556,cs),
(486,556,ls),
(488,556,o),
(489,554,o),
(489,552,cs),
(489,551,o),
(489,549,o),
(488,548,cs),
(265,331,l)
);
}
);
width = 473;
}
);
note = K;
unicode = 75;
},
{
glyphname = L;
layers = (
{
layerId = m01;
shapes = (
{
closed = 1;
nodes = (
(272,47,ls),
(289,47,o),
(298,40,o),
(298,26,cs),
(298,23,o),
(297,21,o),
(297,18,cs),
(295,7,ls),
(294,2,o),
(292,0,o),
(286,0,cs),
(31,0,ls),
(28,0,o),
(27,1,o),
(27,4,cs),
(27,5,o),
(27,5,o),
(27,6,cs),
(123,549,ls),
(124,554,o),
(126,556,o),
(129,556,cs),
(134,556,ls),
(154,556,o),
(166,541,o),
(166,517,cs),
(166,513,o),
(166,508,o),
(165,503,cs),
(84,47,l)
);
}
);
width = 362;
}
);
note = L;
unicode = 76;
},
{
glyphname = M;
layers = (
{
layerId = m01;
shapes = (
{
closed = 1;
nodes = (
(516,549,ls),
(519,554,o),
(521,556,o),
(524,556,cs),
(527,556,ls),
(549,556,o),
(566,541,o),
(566,517,cs),
(566,514,o),
(567,511,o),
(566,508,c),
(506,6,ls),
(506,2,o),
(504,0,o),
(500,0,cs),
(459,0,ls),
(456,0,o),
(455,1,o),
(455,3,cs),
(455,4,o),
(455,5,o),
(455,6,cs),
(508,434,l),
(280,7,ls),
(277,2,o),
(274,0,o),
(269,0,cs),
(234,0,ls),
(231,0,o),
(230,2,o),
(229,7,cs),
(155,427,l),
(57,6,ls),
(56,1,o),
(55,0,o),
(51,0,cs),
(11,0,ls),
(8,0,o),
(7,1,o),
(7,4,cs),
(7,5,o),
(7,5,o),
(7,6,cs),
(132,549,ls),
(133,554,o),
(135,556,o),
(139,556,cs),
(144,556,ls),
(174,556,o),
(183,546,o),
(188,516,cs),
(263,65,l)
);
}
);
width = 604;
}
);
note = M;
unicode = 77;
},
{
glyphname = N;
kernRight = N;
layers = (
{
layerId = m01;
shapes = (
{
closed = 1;
nodes = (
(450,549,ls),
(451,554,o),
(453,556,o),
(456,556,cs),
(461,556,ls),
(481,556,o),
(493,541,o),
(493,518,cs),
(493,513,o),
(493,508,o),
(492,504,cs),
(404,6,ls),
(403,2,o),
(402,0,o),
(398,0,cs),
(364,0,ls),
(354,0,o),
(348,4,o),
(344,13,cs),
(157,454,l),
(78,6,ls),
(77,2,o),
(75,0,o),
(72,0,cs),
(31,0,ls),
(28,0,o),
(27,1,o),
(27,3,cs),
(27,4,o),
(27,5,o),
(27,6,cs),
(123,549,ls),
(124,554,o),
(126,556,o),
(129,556,cs),
(134,556,ls),
(161,556,o),
(168,550,o),
(183,515,cs),
(367,80,l)
);
}
);
width = 522;
}
);
note = N;
unicode = 78;
},
{
glyphname = O;
kernLeft = O;
kernRight = O;
layers = (
{
layerId = m01;
shapes = (
{
closed = 1;
nodes = (
(134,-10,o),
(53,74,o),
(52,204,cs),
(52,380,o),
(146,567,o),
(342,567,cs),
(469,567,o),
(549,481,o),
(550,351,cs),
(550,173,o),
(462,-10,o),
(263,-10,cs)
);
},
{
closed = 1;
nodes = (
(437,39,o),
(500,205,o),
(499,354,cs),
(498,482,o),
(415,520,o),
(338,520,cs),
(167,520,o),
(97,338,o),
(103,190,cs),
(109,71,o),
(191,37,o),
(267,37,cs)
);
}
);
width = 597;
}
);
note = O;
unicode = 79;
},
{
glyphname = P;
layers = (
{
layerId = m01;
shapes = (
{
closed = 1;
nodes = (
(77,6,ls),
(76,2,o),
(75,0,o),
(71,0,cs),
(31,0,ls),
(28,0,o),
(27,1,o),
(27,4,cs),
(27,5,o),
(27,5,o),
(27,6,cs),
(123,549,ls),
(124,554,o),
(126,556,o),
(129,556,cs),
(314,556,ls),
(415,556,o),
(473,493,o),
(473,408,cs),
(473,287,o),
(379,215,o),
(260,215,cs),
(114,215,l)
);
},
{
closed = 1;
nodes = (
(266,262,ls),
(357,262,o),
(421,317,o),
(421,407,cs),
(421,468,o),
(380,508,o),
(314,508,cs),
(166,508,l),
(122,262,l)
);
}
);
width = 484;
}
);
note = P;
unicode = 80;
},
{
glyphname = Q;
layers = (
{
layerId = m01;
shapes = (
{
closed = 1;
nodes = (
(176,-2,o),
(127,23,o),
(96,64,cs),
(64,105,o),
(54,154,o),
(52,204,cs),
(52,380,o),
(146,567,o),
(342,567,cs),
(469,567,o),
(549,481,o),
(550,351,c),
(548,306,o),
(545,263,o),
(533,219,cs),
(500,97,o),
(416,-2,o),
(283,-9,c),
(294,-48,o),
(318,-60,o),
(357,-61,cs),
(392,-61,o),
(420,-49,o),
(453,-21,cs),
(471,-6,o),
(473,-5,o),
(478,-5,cs),
(483,-5,o),
(487,-8,o),
(487,-13,cs),
(487,-58,o),
(427,-106,o),
(341,-106,cs),
(274,-106,o),
(239,-75,o),
(227,-9,cs),
(227,-8,l)
);
},
{
closed = 1;
nodes = (
(437,39,o),
(500,205,o),
(499,354,cs),
(498,482,o),
(415,520,o),
(338,520,cs),
(167,520,o),
(97,338,o),
(103,190,cs),
(109,71,o),
(191,37,o),
(267,37,cs)
);
}
);
width = 597;
}
);
note = Q;
unicode = 81;
},
{
glyphname = R;
layers = (
{
layerId = m01;
shapes = (
{
closed = 1;
nodes = (
(77,6,ls),
(76,2,o),
(75,0,o),
(71,0,cs),
(31,0,ls),
(28,0,o),
(27,1,o),
(27,4,cs),
(27,5,o),
(27,5,o),
(27,6,cs),
(123,549,ls),
(124,554,o),
(126,556,o),
(129,556,cs),
(314,556,ls),
(422,556,o),
(474,493,o),
(474,410,cs),
(474,311,o),
(422,249,o),
(323,222,c),
(410,7,l),
(411,6,o),
(411,6,o),
(411,5,cs),
(411,2,o),
(409,0,o),
(405,0,cs),
(370,0,ls),
(361,0,o),
(357,3,o),
(354,10,cs),
(271,215,l),
(114,215,l)
);
},
{
closed = 1;
nodes = (
(266,262,ls),
(361,262,o),
(423,316,o),
(423,409,cs),
(423,468,o),
(384,508,o),
(316,508,cs),
(166,508,l),
(122,262,l)
);
}
);
width = 496;
}
);
note = R;
unicode = 82;
},
{
glyphname = S;
kernLeft = S;
kernRight = S;
layers = (
{
layerId = m01;
shapes = (
{
closed = 1;
nodes = (
(363,504,o),
(315,520,o),
(261,520,cs),
(180,520,o),
(118,472,o),
(118,409,cs),
(118,365,o),
(154,339,o),
(241,306,cs),
(344,266,o),
(386,225,o),
(386,165,cs),
(386,46,o),
(320,-4,o),
(174,-11,cs),
(92,-15,o),
(-4,38,o),
(-4,99,cs),
(-4,116,o),
(3,127,o),
(12,127,cs),
(18,127,o),
(20,125,o),
(24,117,cs),
(51,63,o),
(111,36,o),
(178,36,cs),
(274,36,o),
(333,83,o),
(333,153,cs),
(333,197,o),
(301,228,o),
(214,263,cs),
(111,303,o),
(67,337,o),
(66,402,cs),
(66,495,o),
(145,567,o),
(271,567,cs),
(348,567,o),
(434,527,o),
(434,502,cs),
(434,498,o),
(434,494,o),
(432,490,cs),
(425,473,ls),
(423,468,o),
(420,465,o),
(416,465,cs),
(414,465,o),
(411,466,o),
(407,470,c),
(406,470,o),
(406,470,o),
(405,471,cs)
);
}
);
width = 437;
}
);
note = S;
unicode = 83;
},
{
glyphname = T;
layers = (
{
layerId = m01;
shapes = (
{
closed = 1;
nodes = (
(65,508,ls),
(62,508,o),
(61,509,o),
(61,512,c),
(61,512,o),
(61,513,o),
(61,514,cs),
(67,549,ls),
(68,554,o),
(70,556,o),
(73,556,cs),
(405,556,ls),
(422,556,o),
(431,548,o),
(431,535,cs),
(431,532,o),
(431,529,o),
(430,527,c),
(428,516,ls),
(427,510,o),
(425,508,o),
(419,508,cs),
(268,508,l),
(179,6,l),
(179,2,o),
(177,0,o),
(173,0,cs),
(133,0,ls),
(130,0,o),
(129,1,o),
(129,4,c),
(129,4,o),
(129,5,o),
(129,6,cs),
(218,508,l)
);
}
);
width = 401;
}
);
note = T;
unicode = 84;
},
{
glyphname = U;
kernLeft = U;
kernRight = U;
layers = (
{
layerId = m01;
shapes = (
{
closed = 1;
nodes = (
(412,61,o),
(340,-10,o),
(214,-10,cs),
(113,-10,o),
(52,46,o),
(53,149,cs),
(53,168,o),
(55,188,o),
(59,208,cs),
(119,549,ls),
(120,554,o),
(122,556,o),
(125,556,cs),
(130,556,ls),
(150,556,o),
(163,540,o),
(163,517,cs),
(163,512,o),
(163,508,o),
(162,504,cs),
(109,201,ls),
(105,182,o),
(104,162,o),
(104,145,cs),
(104,72,o),
(147,37,o),
(222,37,cs),
(314,37,o),
(369,96,o),
(387,202,cs),
(448,549,ls),
(449,554,o),
(451,556,o),
(454,556,cs),
(458,556,ls),
(478,556,o),
(491,541,o),
(491,517,cs),
(491,513,o),
(491,508,o),
(490,504,cs),
(433,184,ls)
);
}
);
width = 516;
}
);
note = U;
unicode = 85;
},
{
glyphname = V;
layers = (
{
layerId = m01;
shapes = (
{
closed = 1;
nodes = (
(439,543,ls),
(444,554,o),
(447,556,o),
(456,556,cs),
(494,556,ls),
(497,556,o),
(498,554,o),
(498,552,cs),
(498,551,o),
(498,551,o),
(497,548,c),
(216,6,l),
(212,1,o),
(211,0,o),
(206,0,cs),
(166,0,ls),
(162,0,o),
(160,2,o),
(160,6,c),
(68,548,ls),
(68,549,o),
(68,550,o),
(68,550,c),
(68,554,o),
(71,556,o),
(75,556,cs),
(91,556,ls),
(112,556,o),
(121,546,o),
(124,524,cs),
(196,59,l)
);
}
);
width = 462;
}
);
note = V;
unicode = 86;
},
{
glyphname = W;
layers = (
{
layerId = m01;
shapes = (
{
closed = 1;
nodes = (
(390,543,ls),
(395,553,o),
(398,556,o),
(407,556,cs),
(416,556,ls),
(433,556,o),
(442,547,o),
(444,524,cs),
(502,70,l),
(709,543,ls),
(714,554,o),
(717,556,o),
(727,556,cs),
(762,556,ls),
(765,556,o),
(766,554,o),
(766,552,c),
(765,551,o),
(765,550,o),
(765,548,c),
(521,6,ls),
(519,1,o),
(517,0,o),
(512,0,cs),
(475,0,ls),
(471,0,o),
(469,2,o),
(469,6,c),
(408,478,l),
(189,6,l),
(186,1,o),
(185,0,o),
(180,0,cs),
(138,0,ls),
(134,0,o),
(132,2,o),
(131,6,c),
(80,548,l),
(80,548,o),
(80,549,o),
(80,549,c),
(80,553,o),
(82,556,o),
(86,556,cs),
(99,556,ls),
(121,556,o),
(130,546,o),
(132,524,cs),
(173,70,l)
);
}
);
width = 742;
}
);
note = W;
unicode = 87;
},
{
glyphname = X;
layers = (
{
layerId = m01;
shapes = (
{
closed = 1;
nodes = (
(420,543,ls),
(428,554,o),
(431,556,o),
(440,556,cs),
(479,556,ls),
(482,556,o),
(484,554,o),
(484,553,cs),
(484,551,o),
(483,550,o),
(482,548,c),
(269,285,l),
(405,7,l),
(405,7,o),
(405,5,o),
(405,4,cs),
(405,2,o),
(403,0,o),
(399,0,cs),
(364,0,ls),
(355,0,o),
(353,2,o),
(348,12,cs),
(231,253,l),
(33,12,ls),
(25,2,o),
(23,0,o),
(13,0,cs),
(-27,0,ls),
(-29,0,o),
(-31,1,o),
(-31,3,cs),
(-31,4,o),
(-30,6,o),
(-29,7,cs),
(211,295,l),
(89,548,l),
(88,549,o),
(88,550,o),
(88,551,cs),
(89,554,o),
(91,556,o),
(95,556,cs),
(111,556,ls),
(131,556,o),
(141,548,o),
(152,526,cs),
(248,328,l)
);
}
);
width = 459;
}
);
note = X;
unicode = 88;
},
{
glyphname = Y;
kernLeft = Y;
kernRight = Y;
layers = (
{
layerId = m01;
shapes = (
{
closed = 1;
nodes = (
(57,548,l),
(56,549,o),
(56,551,o),
(56,551,c),
(56,554,o),
(59,556,o),
(62,556,cs),
(74,556,ls),
(98,556,o),
(111,544,o),
(123,513,cs),
(212,274,l),
(407,543,ls),
(414,554,o),
(416,556,o),
(426,556,cs),
(462,556,ls),
(467,556,o),
(469,554,o),
(469,552,cs),
(469,551,o),
(468,548,o),
(467,547,cs),
(229,219,l),
(192,6,ls),
(191,2,o),
(189,0,o),
(186,0,cs),
(146,0,ls),
(143,0,o),
(142,1,o),
(142,3,cs),
(142,4,o),
(142,5,o),
(142,6,cs),
(180,219,l)
);
}
);
width = 422;
}
);
note = Y;
unicode = 89;
},
{
glyphname = Z;
kernLeft = Z;
kernRight = Z;
layers = (
{
layerId = m01;
shapes = (
{
closed = 1;
nodes = (
(339,47,ls),
(356,47,o),
(364,39,o),
(364,26,cs),
(364,23,o),
(364,20,o),
(364,18,cs),
(362,7,ls),
(361,2,o),
(359,0,o),
(353,0,cs),
(-3,0,ls),
(-6,0,o),
(-7,1,o),
(-7,4,cs),
(-7,5,o),
(-7,5,o),
(-7,6,cs),
(-3,30,ls),
(0,46,o),
(3,52,o),
(14,64,cs),
(399,509,l),
(95,509,ls),
(92,509,o),
(90,510,o),
(90,512,cs),
(90,513,o),
(91,514,o),
(91,515,cs),
(97,549,ls),
(98,554,o),
(99,556,o),
(103,556,cs),
(409,556,ls),
(438,556,o),
(451,545,o),
(451,523,cs),
(451,520,o),
(451,517,o),
(450,514,c),
(449,504,ls),
(446,491,o),
(443,485,o),
(429,468,cs),
(60,47,l)
);
}
);
width = 448;
}
);
note = Z;
unicode = 90;
},
{
glyphname = bracketleft;
layers = (
{
layerId = m01;
shapes = (
{
closed = 1;
nodes = (
(312,-144,o),
(315,-142,o),
(314,-137,cs),
(313,-134,l),
(310,-114,o),
(292,-101,o),
(268,-101,cs),
(212,-101,ls),
(196,-101,o),
(187,-90,o),
(185,-77,cs),
(61,628,ls),
(58,642,o),
(64,652,o),
(79,652,cs),
(136,652,ls),
(159,652,o),
(172,666,o),
(169,686,c),
(168,689,ls),
(167,693,o),
(164,696,o),
(159,696,cs),
(59,696,ls),
(24,696,o),
(5,673,o),
(11,639,cs),
(139,-88,ls),
(145,-121,o),
(172,-144,o),
(207,-144,cs),
(307,-144,ls)
);
}
);
width = 298;
}
);
note = bracketleft;
unicode = 91;
},
{
glyphname = backslash;
layers = (
{
layerId = m01;
shapes = (
{
closed = 1;
nodes = (
(233,0,o),
(232,1,o),
(229,6,cs),
(-96,548,l),
(-96,549,o),
(-97,552,o),
(-97,552,c),
(-97,554,o),
(-96,556,o),
(-93,556,cs),
(-88,556,ls),
(-59,556,o),
(-42,544,o),
(-23,513,cs),
(279,6,l),
(281,4,o),
(281,3,o),
(282,2,c),
(282,1,o),
(281,0,o),
(279,0,cs),
(238,0,ls)
);
}
);
width = 283;
}
);
note = backslash;
unicode = 92;
},
{
glyphname = bracketright;
layers = (
{
layerId = m01;
shapes = (
{
closed = 1;
nodes = (
(273,-144,o),
(292,-121,o),
(286,-88,cs),
(158,639,ls),
(152,673,o),
(125,696,o),
(90,696,cs),
(-10,696,ls),
(-15,696,o),
(-18,693,o),
(-17,689,cs),
(-16,686,l),
(-13,666,o),
(5,652,o),
(29,652,cs),
(85,652,ls),
(101,652,o),
(110,642,o),
(112,628,cs),
(236,-77,ls),
(239,-90,o),
(233,-101,o),
(218,-101,cs),
(161,-101,ls),
(138,-101,o),
(125,-114,o),
(128,-134,c),
(129,-137,ls),
(130,-142,o),
(133,-144,o),
(138,-144,cs),
(238,-144,ls)
);
}
);
width = 291;
}
);
note = bracketright;
unicode = 93;
},
{
glyphname = asciicircum;
layers = (
{
layerId = m01;
shapes = (
{
closed = 1;
nodes = (
(88,283,ls),
(84,276,o),
(82,274,o),
(72,274,cs),
(38,274,ls),
(34,274,o),
(32,276,o),
(34,279,cs),
(176,546,ls),
(180,553,o),
(182,556,o),
(192,556,cs),
(214,556,o),
(235,544,o),
(250,517,cs),
(377,279,l),
(378,276,o),
(377,274,o),
(373,274,cs),
(339,274,ls),
(329,274,o),
(327,276,o),
(323,283,cs),
(206,503,l)
);
}
);
width = 403;
}
);
note = asciicircum;
unicode = 94;
},
{
glyphname = underscore;
layers = (
{
layerId = m01;
shapes = (
{
closed = 1;
nodes = (
(-85,-178,o),
(-86,-177,o),
(-86,-174,c),
(-86,-174,o),
(-86,-173,o),
(-86,-172,cs),
(-80,-139,ls),
(-79,-134,o),
(-77,-133,o),
(-74,-133,cs),
(342,-133,ls),
(345,-133,o),
(346,-134,o),
(346,-137,cs),
(346,-138,o),
(346,-138,o),
(346,-139,cs),
(340,-172,ls),
(339,-176,o),
(338,-178,o),
(334,-178,cs),
(-82,-178,ls)
);
}
);
width = 409;
}
);
note = underscore;
unicode = 95;
},
{
glyphname = grave;
layers = (
{
layerId = m01;
shapes = (
{
closed = 1;
nodes = (
(163,435,o),
(163,435,o),
(163,435,c),
(163,432,o),
(161,431,o),
(159,431,cs),
(126,431,ls),
(118,431,o),
(111,433,o),
(104,440,cs),
(42,496,ls),
(41,497,o),
(41,497,o),
(41,498,cs),
(41,500,o),
(43,502,o),
(46,502,cs),
(91,502,ls),
(100,502,o),
(102,500,o),
(109,493,cs),
(162,436,ls)
);
}
);
width = 139;
}
);
note = grave;
unicode = 96;
},
{
glyphname = a;
kernLeft = a;
kernRight = a;
layers = (
{
layerId = m01;
shapes = (
{
closed = 1;
nodes = (
(271,12,o),
(226,-9,o),
(168,-9,cs),
(72,-9,o),
(25,56,o),
(25,154,cs),
(25,279,o),
(101,367,o),
(221,367,cs),
(275,367,o),
(319,349,o),
(351,304,c),
(358,341,o),
(375,360,o),
(401,360,cs),
(406,360,ls),
(409,360,o),
(410,359,o),
(410,357,cs),
(410,356,o),
(410,355,o),
(410,354,cs),
(349,6,ls),
(348,1,o),
(347,0,o),
(343,0,cs),
(302,0,ls),
(299,0,o),
(298,1,o),
(298,4,cs),
(298,5,o),
(298,5,o),
(298,6,cs),
(307,57,l)
);
},
{
closed = 1;
nodes = (
(268,38,o),
(332,112,o),
(332,217,cs),
(332,283,o),
(288,320,o),
(222,320,cs),
(131,320,o),
(76,248,o),
(76,150,cs),
(76,84,o),
(113,38,o),
(175,38,cs)
);
}
);
width = 454;
}
);
note = a;
unicode = 97;
},
{
glyphname = b;
layers = (
{
layerId = m01;
shapes = (
{
closed = 1;
nodes = (
(64,6,l),
(64,2,o),
(62,0,o),
(58,0,cs),
(18,0,ls),
(15,0,o),
(14,1,o),
(14,4,cs),
(14,5,o),
(14,5,o),
(14,6,cs),
(110,549,ls),
(111,554,o),
(113,556,o),
(116,556,cs),
(121,556,ls),
(140,556,o),
(153,540,o),
(153,517,cs),
(153,513,o),
(153,508,o),
(152,503,cs),
(116,302,l),
(152,345,o),
(199,367,o),
(258,367,cs),
(344,367,o),
(399,306,o),
(399,217,cs),
(399,88,o),
(309,-9,o),
(192,-9,cs),
(134,-9,o),
(98,12,o),
(73,56,c)
);
},
{
closed = 1;
nodes = (
(280,38,o),
(347,116,o),
(347,213,cs),
(347,281,o),
(310,320,o),
(246,320,cs),
(157,320,o),
(91,244,o),
(91,141,cs),
(91,76,o),
(130,38,o),
(196,38,cs)
);
}
);
width = 454;
}
);
note = b;
unicode = 98;
},
{
glyphname = c;
kernLeft = c;
kernRight = c;
layers = (
{
layerId = m01;
shapes = (
{
closed = 1;
nodes = (
(317,294,l),
(286,313,o),
(264,320,o),
(230,320,cs),
(122,320,o),
(76,236,o),
(76,141,cs),
(76,80,o),
(113,37,o),
(182,37,cs),
(221,37,o),
(258,53,o),
(287,82,cs),
(292,87,o),
(295,89,o),
(299,89,cs),
(303,89,o),
(306,85,o),
(306,79,cs),
(306,34,o),
(243,-10,o),
(174,-10,cs),
(77,-10,o),
(24,56,o),
(24,137,cs),
(24,263,o),
(84,367,o),
(232,367,cs),
(289,367,o),
(339,349,o),
(339,326,cs),
(339,322,o),
(338,318,o),
(336,313,cs),
(329,298,ls),
(327,293,o),
(326,292,o),
(323,292,cs),
(322,292,o),
(320,292,o),
(318,294,c)
);
}
);
width = 362;
}
);
note = c;
unicode = 99;
},
{
glyphname = d;
layers = (
{
layerId = m01;
shapes = (
{
closed = 1;
nodes = (
(395,549,ls),
(396,554,o),
(397,556,o),
(401,556,cs),
(405,556,ls),
(425,556,o),
(438,541,o),
(438,517,cs),
(438,513,o),
(437,508,o),
(437,503,c),
(349,6,ls),
(348,1,o),
(347,0,o),
(343,0,cs),
(303,0,ls),
(300,0,o),
(299,1,o),
(299,3,cs),
(299,4,o),
(299,5,o),
(300,6,c),
(307,51,l),
(271,6,o),
(234,-9,o),
(175,-9,cs),
(89,-9,o),
(25,63,o),
(25,151,cs),
(25,277,o),
(107,367,o),
(224,367,cs),
(277,367,o),
(324,342,o),
(351,299,c)
);
},
{
closed = 1;
nodes = (
(274,38,o),
(332,112,o),
(332,217,cs),
(332,282,o),
(288,320,o),
(222,320,cs),
(137,320,o),
(76,248,o),
(75,150,cs),
(75,85,o),
(120,38,o),
(182,38,cs)
);
}
);
width = 454;
}
);
note = d;
unicode = 100;
},
{
glyphname = e;
kernLeft = e;
kernRight = e;
layers = (
{
layerId = m01;
shapes = (
{
closed = 1;
nodes = (
(75,150,o),
(75,141,o),
(75,134,cs),
(80,73,o),
(122,37,o),
(186,37,cs),
(234,37,o),
(280,55,o),
(310,85,cs),
(314,90,o),
(319,92,o),
(322,92,cs),
(325,92,o),
(328,89,o),
(328,83,cs),
(328,36,o),
(277,-9,o),
(174,-9,cs),
(86,-9,o),
(25,54,o),
(25,134,cs),
(25,270,o),
(96,367,o),
(222,367,cs),
(303,367,o),
(357,313,o),
(357,241,cs),
(357,222,o),
(354,192,o),
(349,176,cs),
(346,163,o),
(343,160,o),
(332,160,cs),
(76,160,l)
);
},
{
closed = 1;
nodes = (
(303,203,l),
(306,220,o),
(307,229,o),
(307,238,cs),
(307,287,o),
(277,321,o),
(217,321,cs),
(155,321,o),
(106,281,o),
(84,203,c)
);
}
);
width = 406;
}
);
note = e;
unicode = 101;
},
{
glyphname = f;
kernLeft = f;
layers = (
{
layerId = m01;
shapes = (
{
closed = 1;
nodes = (
(30,315,ls),
(27,315,o),
(26,316,o),
(26,319,c),
(26,319,o),
(26,320,o),
(26,321,cs),
(32,354,ls),
(33,359,o),
(34,360,o),
(38,360,cs),
(101,360,l),
(120,464,ls),
(131,525,o),
(167,564,o),
(220,562,cs),
(256,560,o),
(287,541,o),
(287,501,cs),
(287,491,o),
(283,485,o),
(277,485,cs),
(275,485,o),
(273,486,o),
(271,489,cs),
(262,503,o),
(237,516,o),
(220,516,cs),
(192,516,o),
(175,496,o),
(169,461,cs),
(151,360,l),
(240,360,ls),
(243,360,o),
(244,359,o),
(244,356,cs),
(244,355,o),
(244,355,o),
(244,354,cs),
(238,321,ls),
(237,317,o),
(236,315,o),
(232,315,cs),
(143,315,l),
(88,6,l),
(88,1,o),
(86,0,o),
(83,0,cs),
(43,0,ls),
(40,0,o),
(39,1,o),
(39,4,cs),
(39,5,o),
(39,5,o),
(39,6,cs),
(93,315,l)
);
}
);
width = 268;
}
);
note = f;
unicode = 102;
},
{
glyphname = g;
layers = (
{
layerId = m01;
shapes = (
{
closed = 1;
nodes = (
(272,12,o),
(227,-9,o),
(168,-9,cs),
(75,-9,o),
(25,57,o),
(25,145,cs),
(25,271,o),
(111,367,o),
(230,367,cs),
(284,367,o),
(321,350,o),
(352,305,c),
(360,342,o),
(375,359,o),
(401,359,cs),
(406,359,ls),
(409,359,o),
(411,359,o),
(411,357,cs),
(411,356,o),
(410,355,o),
(410,354,cs),
(349,7,ls),
(330,-100,o),
(268,-171,o),
(140,-171,cs),
(67,-171,o),
(5,-146,o),
(3,-87,cs),
(2,-76,o),
(8,-67,o),
(14,-67,cs),
(17,-67,o),
(19,-69,o),
(21,-73,cs),
(38,-101,o),
(89,-121,o),
(143,-121,cs),
(239,-121,o),
(286,-72,o),
(300,7,cs),
(309,57,l)
);
},
{
closed = 1;
nodes = (
(261,38,o),
(332,112,o),
(332,217,cs),
(332,282,o),
(294,320,o),
(229,320,cs),
(144,320,o),
(76,248,o),
(76,150,cs),
(75,82,o),
(111,38,o),
(176,38,cs)
);
}
);
width = 454;
}
);
note = g;
unicode = 103;
},
{
glyphname = h;
layers = (
{
layerId = m01;
shapes = (
{
closed = 1;
nodes = (
(148,345,o),
(194,367,o),
(250,367,cs),
(325,367,o),
(375,319,o),
(374,247,c),
(375,236,o),
(374,226,o),
(372,215,cs),
(335,6,ls),
(334,2,o),
(332,0,o),
(329,0,cs),
(289,0,ls),
(286,0,o),
(285,1,o),
(285,4,cs),
(285,5,o),
(285,5,o),
(285,6,cs),
(319,200,ls),
(321,211,o),
(322,223,o),
(322,234,cs),
(322,290,o),
(297,320,o),
(233,320,cs),
(161,320,o),
(111,274,o),
(97,193,cs),
(64,6,ls),
(63,2,o),
(62,0,o),
(58,0,cs),
(18,0,ls),
(15,0,o),
(14,1,o),
(14,4,cs),
(14,5,o),
(14,5,o),
(14,6,cs),
(110,549,ls),
(111,554,o),
(113,556,o),
(116,556,cs),
(121,556,ls),
(140,556,o),
(153,540,o),
(153,517,cs),
(153,513,o),
(153,508,o),
(152,503,cs),
(117,307,l)
);
}
);
width = 439;
}
);
note = h;
unicode = 104;
},
{
glyphname = i;
kernLeft = i;
kernRight = i;
layers = (
{
layerId = m01;
shapes = (
{
closed = 1;
nodes = (
(15,0,o),
(14,1,o),
(14,4,cs),
(14,5,o),
(14,5,o),
(14,6,cs),
(76,354,l),
(76,358,o),
(78,360,o),
(82,360,cs),
(85,360,ls),
(106,360,o),
(119,345,o),
(119,321,cs),
(119,317,o),
(118,313,o),
(118,308,c),
(64,6,ls),
(63,2,o),
(62,0,o),
(58,0,cs),
(18,0,ls)
);
},
{
closed = 1;
nodes = (
(87,473,o),
(103,492,o),
(124,492,cs),
(140,492,o),
(154,480,o),
(154,464,cs),
(154,443,o),
(138,426,o),
(116,426,cs),
(101,426,o),
(87,437,o),
(87,453,cs)
);
}
);
width = 170;
}
);
note = i;
unicode = 105;
},
{
glyphname = j;
layers = (
{
layerId = m01;
shapes = (
{
closed = 1;
nodes = (
(-85,-114,o),
(-70,-124,o),
(-50,-124,cs),
(-21,-124,o),
(-6,-106,o),
(2,-61,cs),
(75,354,ls),
(76,358,o),
(78,359,o),
(81,359,cs),
(86,359,ls),
(106,359,o),
(118,344,o),
(118,321,cs),
(118,317,o),
(118,312,o),
(117,308,cs),
(51,-67,ls),
(39,-134,o),
(20,-171,o),
(-44,-171,cs),
(-83,-171,o),
(-113,-147,o),
(-113,-106,cs),
(-113,-96,o),
(-110,-90,o),
(-104,-90,cs),
(-102,-90,o),
(-100,-90,o),
(-98,-92,c),
(-97,-92,o),
(-97,-92,o),
(-96,-93,c)
);
},
{
closed = 1;
nodes = (
(86,473,o),
(103,492,o),
(123,492,cs),
(139,492,o),
(153,480,o),
(153,464,cs),
(153,444,o),
(136,426,o),
(116,426,cs),
(100,426,o),
(86,438,o),
(86,453,cs)
);
}
);
width = 170;
}
);
note = j;
unicode = 106;
},
{
glyphname = k;
layers = (
{
layerId = m01;
shapes = (
{
closed = 1;
nodes = (
(293,6,l),
(293,6,o),
(293,5,o),
(293,4,cs),
(294,1,o),
(292,0,o),
(289,0,cs),
(251,0,ls),
(241,0,o),
(238,2,o),
(235,10,cs),
(150,198,l),
(89,148,l),
(64,6,ls),
(63,2,o),
(62,0,o),
(58,0,cs),
(18,0,ls),
(15,0,o),
(14,1,o),
(14,4,cs),
(14,5,o),
(14,5,o),
(14,6,cs),
(110,549,ls),
(111,554,o),
(113,556,o),
(116,556,cs),
(121,556,ls),
(140,556,o),
(153,540,o),
(153,517,cs),
(153,513,o),
(153,508,o),
(152,503,cs),
(100,207,l),
(264,351,ls),
(273,359,o),
(275,359,o),
(285,359,cs),
(334,359,ls),
(337,359,o),
(338,358,o),
(338,356,c),
(337,355,o),
(337,355,o),
(336,354,cs),
(188,230,l)
);
}
);
width = 354;
}
);
note = k;
unicode = 107;
},
{
glyphname = l;
kernRight = l;
layers = (
{
layerId = m01;
shapes = (
{
closed = 1;
nodes = (
(78,86,o),
(78,78,o),
(78,75,cs),
(78,52,o),
(89,41,o),
(111,41,cs),
(134,41,o),
(134,41,o),
(169,72,cs),
(173,76,o),
(174,77,o),
(176,77,cs),
(180,77,o),
(183,73,o),
(183,67,cs),
(183,24,o),
(141,-9,o),
(93,-9,cs),
(50,-9,o),
(26,15,o),
(26,59,cs),
(26,69,o),
(27,79,o),
(29,89,cs),
(110,549,ls),
(111,554,o),
(112,556,o),
(116,556,cs),
(121,556,ls),
(141,556,o),
(153,541,o),
(153,518,cs),
(153,513,o),
(153,509,o),
(152,504,cs),
(79,92,ls)
);
}
);
width = 220;
}
);
note = l;
unicode = 108;
},
{
glyphname = m;
layers = (
{
layerId = m01;
shapes = (
{
closed = 1;
nodes = (
(148,346,o),
(192,367,o),
(247,367,cs),
(304,367,o),
(334,345,o),
(356,297,c),
(396,344,o),
(447,367,o),
(507,367,cs),
(585,367,o),
(633,321,o),
(633,248,cs),
(633,237,o),
(632,226,o),
(631,215,c),
(594,6,ls),
(593,2,o),
(591,0,o),
(588,0,cs),
(548,0,ls),
(545,0,o),
(543,1,o),
(543,4,c),
(543,4,o),
(544,5,o),
(544,6,cs),
(578,200,ls),
(580,212,o),
(581,224,o),
(581,235,cs),
(581,291,o),
(557,320,o),
(494,320,cs),
(423,320,o),
(376,275,o),
(362,193,cs),
(329,6,ls),
(328,1,o),
(326,0,o),
(323,0,cs),
(283,0,ls),
(280,0,o),
(279,1,o),
(279,3,cs),
(279,4,o),
(279,5,o),
(279,6,cs),
(313,200,ls),
(316,212,o),
(317,224,o),
(317,235,cs),
(317,291,o),
(293,320,o),
(230,320,cs),
(158,320,o),
(112,276,o),
(97,193,cs),
(64,6,ls),
(63,2,o),
(62,0,o),
(58,0,cs),
(18,0,ls),
(15,0,o),
(14,1,o),
(14,4,cs),
(14,5,o),
(14,5,o),
(14,6,cs),
(76,354,l),
(76,359,o),
(78,360,o),
(82,360,cs),
(87,360,ls),
(105,360,o),
(119,344,o),
(119,321,cs),
(119,318,o),
(118,312,o),
(117,307,c)
);
}
);
width = 697;
}
);
note = m;
unicode = 109;
},
{
glyphname = n;
kernLeft = n;
kernRight = n;
layers = (
{
layerId = m01;
shapes = (
{
closed = 1;
nodes = (
(149,346,o),
(195,367,o),
(250,367,cs),
(326,367,o),
(375,320,o),
(375,247,cs),
(375,236,o),
(374,225,o),
(372,214,cs),
(335,6,l),
(335,2,o),
(333,0,o),
(329,0,cs),
(289,0,ls),
(286,0,o),
(285,1,o),
(285,4,cs),
(285,5,o),
(285,5,o),
(285,6,cs),
(319,200,ls),
(321,211,o),
(322,223,o),
(322,234,cs),
(322,290,o),
(297,320,o),
(232,320,cs),
(160,320,o),
(111,274,o),
(97,193,cs),
(64,6,ls),
(63,2,o),
(62,0,o),
(58,0,cs),
(18,0,ls),
(15,0,o),
(14,1,o),
(14,4,cs),
(14,5,o),
(14,5,o),
(14,6,cs),
(76,354,l),
(76,358,o),
(78,360,o),
(82,360,cs),
(87,360,ls),
(106,360,o),
(120,344,o),
(120,321,cs),
(120,318,o),
(119,313,o),
(119,307,c)
);
}
);
width = 439;
}
);
note = n;
unicode = 110;
},
{
glyphname = o;
kernLeft = o;
kernRight = o;
layers = (
{
layerId = m01;
shapes = (
{
closed = 1;
nodes = (
(99,-9,o),
(31,52,o),
(30,140,cs),
(28,261,o),
(103,367,o),
(230,367,cs),
(327,367,o),
(395,298,o),
(392,205,cs),
(388,86,o),
(314,-9,o),
(189,-9,cs)
);
},
{
closed = 1;
nodes = (
(286,38,o),
(342,122,o),
(340,212,cs),
(340,278,o),
(292,320,o),
(228,320,cs),
(132,320,o),
(78,227,o),
(81,138,cs),
(84,76,o),
(128,38,o),
(190,38,cs)
);
}
);
width = 443;
}
);
note = o;
unicode = 111;
},
{
glyphname = p;
layers = (
{
layerId = m01;
shapes = (
{
closed = 1;
nodes = (
(36,-154,l),
(36,-158,o),
(34,-160,o),
(30,-160,cs),
(-10,-160,ls),
(-13,-160,o),
(-14,-159,o),
(-14,-156,cs),
(-14,-155,o),
(-14,-155,o),
(-14,-154,cs),
(76,354,ls),
(77,359,o),
(78,360,o),
(82,360,cs),
(87,360,ls),
(106,360,o),
(119,345,o),
(119,322,cs),
(119,317,o),
(119,313,o),
(118,308,cs),
(117,304,l),
(153,347,o),
(199,367,o),
(258,367,cs),
(344,367,o),
(399,306,o),
(399,217,cs),
(399,88,o),
(315,-9,o),
(198,-9,cs),
(141,-9,o),
(99,14,o),
(74,58,c)
);
},
{
closed = 1;
nodes = (
(280,38,o),
(347,117,o),
(348,213,cs),
(347,281,o),
(310,320,o),
(246,320,cs),
(158,320,o),
(92,244,o),
(92,142,cs),
(92,78,o),
(133,38,o),
(198,38,cs)
);
}
);
width = 454;
}
);
note = p;
unicode = 112;
},
{
glyphname = q;
layers = (
{
layerId = m01;
shapes = (
{
closed = 1;
nodes = (
(272,8,o),
(231,-9,o),
(172,-9,cs),
(86,-9,o),
(25,50,o),
(25,139,cs),
(25,264,o),
(108,367,o),
(230,367,cs),
(284,367,o),
(320,346,o),
(351,301,c),
(359,339,o),
(375,360,o),
(401,360,cs),
(406,360,ls),
(409,360,o),
(410,359,o),
(410,357,c),
(411,356,o),
(411,355,o),
(410,354,c),
(321,-154,ls),
(320,-159,o),
(319,-160,o),
(315,-160,cs),
(275,-160,ls),
(272,-160,o),
(271,-159,o),
(271,-157,cs),
(271,-156,o),
(271,-155,o),
(271,-154,cs),
(308,53,l)
);
},
{
closed = 1;
nodes = (
(268,38,o),
(332,112,o),
(332,217,cs),
(332,282,o),
(294,320,o),
(229,320,cs),
(144,320,o),
(76,241,o),
(75,144,cs),
(75,78,o),
(114,38,o),
(176,38,cs)
);
}
);
width = 454;
}
);
note = q;
unicode = 113;
},
{
glyphname = r;
kernLeft = r;
layers = (
{
layerId = m01;
shapes = (
{
closed = 1;
nodes = (
(146,347,o),
(178,360,o),
(237,360,cs),
(247,360,ls),
(250,360,o),
(251,359,o),
(251,357,cs),
(251,356,o),
(251,355,o),
(251,354,cs),
(244,316,l),
(244,311,o),
(242,309,o),
(238,309,cs),
(218,309,ls),
(149,309,o),
(111,273,o),
(97,192,cs),
(64,6,ls),
(63,2,o),
(62,0,o),
(58,0,cs),
(18,0,ls),
(15,0,o),
(14,1,o),
(14,4,cs),
(14,5,o),
(14,5,o),
(14,6,cs),
(76,354,l),
(76,359,o),
(78,360,o),
(82,360,cs),
(87,360,ls),
(106,360,o),
(119,345,o),
(119,323,cs),
(119,321,o),
(118,315,o),
(118,309,c)
);
}
);
width = 267;
}
);
note = r;
unicode = 114;
},
{
glyphname = s;
kernLeft = s;
layers = (
{
layerId = m01;
shapes = (
{
closed = 1;
nodes = (
(266,292,o),
(265,291,o),
(262,291,cs),
(261,291,o),
(259,292,o),
(257,293,cs),
(237,308,o),
(198,320,o),
(167,320,cs),
(117,320,o),
(83,297,o),
(83,265,cs),
(83,242,o),
(104,225,o),
(155,207,cs),
(226,181,o),
(255,153,o),
(255,110,cs),
(255,34,o),
(198,-11,o),
(112,-11,cs),
(29,-11,o),
(-9,23,o),
(-9,66,cs),
(-9,80,o),
(-4,88,o),
(4,88,cs),
(7,88,o),
(10,86,o),
(12,82,cs),
(27,53,o),
(62,36,o),
(107,36,cs),
(164,36,o),
(204,62,o),
(204,101,cs),
(204,125,o),
(183,142,o),
(130,162,cs),
(61,187,o),
(32,215,o),
(32,256,cs),
(32,326,o),
(86,367,o),
(167,367,cs),
(222,367,o),
(279,348,o),
(279,326,cs),
(279,322,o),
(277,318,o),
(275,312,cs),
(268,297,ls)
);
}
);
width = 309;
}
);
note = s;
unicode = 115;
},
{
glyphname = t;
layers = (
{
layerId = m01;
shapes = (
{
closed = 1;
nodes = (
(33,315,ls),
(30,315,o),
(29,316,o),
(29,318,cs),
(29,319,o),
(29,320,o),
(29,321,cs),
(35,354,ls),
(36,359,o),
(38,360,o),
(41,360,cs),
(109,360,l),
(131,484,ls),
(132,489,o),
(133,491,o),
(136,491,cs),
(141,491,ls),
(161,491,o),
(174,476,o),
(174,453,cs),
(174,448,o),
(174,444,o),
(173,439,cs),
(159,360,l),
(233,360,ls),
(236,360,o),
(237,359,o),
(237,357,cs),
(237,356,o),
(237,355,o),
(237,354,cs),
(231,321,ls),
(230,316,o),
(229,315,o),
(225,315,cs),
(151,315,l),
(97,6,ls),
(96,1,o),
(94,0,o),
(90,0,cs),
(50,0,ls),
(47,0,o),
(46,1,o),
(46,2,cs),
(46,3,o),
(46,5,o),
(47,6,c),
(101,315,l)
);
}
);
width = 249;
}
);
note = t;
unicode = 116;
},
{
glyphname = u;
kernLeft = u;
kernRight = u;
layers = (
{
layerId = m01;
shapes = (
{
closed = 1;
nodes = (
(324,37,o),
(268,-10,o),
(163,-10,cs),
(82,-10,o),
(37,37,o),
(38,121,cs),
(38,137,o),
(39,153,o),
(42,169,cs),
(75,354,ls),
(76,358,o),
(77,360,o),
(80,360,cs),
(85,360,ls),
(105,360,o),
(119,345,o),
(119,322,cs),
(119,317,o),
(118,313,o),
(117,308,cs),
(91,156,ls),
(88,144,o),
(87,131,o),
(87,120,cs),
(87,65,o),
(116,36,o),
(171,36,cs),
(241,36,o),
(281,77,o),
(294,153,cs),
(330,354,ls),
(331,358,o),
(332,360,o),
(336,360,cs),
(340,360,ls),
(360,360,o),
(373,345,o),
(373,322,cs),
(373,317,o),
(373,313,o),
(372,308,cs),
(343,146,ls)
);
}
);
width = 423;
}
);
note = u;
unicode = 117;
},
{
glyphname = v;
layers = (
{
layerId = m01;
shapes = (
{
closed = 1;
nodes = (
(270,350,ls),
(275,359,o),
(277,360,o),
(288,360,cs),
(324,360,ls),
(326,360,o),
(328,359,o),
(328,357,cs),
(328,356,o),
(327,355,o),
(327,354,c),
(144,5,ls),
(142,1,o),
(140,0,o),
(136,0,cs),
(101,0,ls),
(97,0,o),
(95,2,o),
(95,5,c),
(34,354,ls),
(34,355,o),
(34,356,o),
(34,356,c),
(34,358,o),
(36,360,o),
(40,360,cs),
(52,360,ls),
(76,360,o),
(86,347,o),
(90,321,cs),
(128,70,l)
);
}
);
width = 329;
}
);
note = v;
unicode = 118;
},
{
glyphname = w;
layers = (
{
layerId = m01;
shapes = (
{
closed = 1;
nodes = (
(263,353,ls),
(266,358,o),
(268,360,o),
(274,360,cs),
(283,360,ls),
(304,360,o),
(315,347,o),
(320,319,cs),
(358,72,l),
(487,350,ls),
(491,359,o),
(494,360,o),
(505,360,cs),
(540,360,ls),
(542,360,o),
(544,359,o),
(544,357,cs),
(544,356,o),
(543,356,o),
(543,354,c),
(371,5,ls),
(370,2,o),
(367,0,o),
(363,0,cs),
(329,0,ls),
(326,0,o),
(324,2,o),
(324,5,c),
(280,291,l),
(135,5,ls),
(133,1,o),
(130,0,o),
(127,0,cs),
(93,0,ls),
(89,0,o),
(87,2,o),
(86,5,c),
(40,354,l),
(40,356,ls),
(40,358,o),
(42,360,o),
(45,360,cs),
(56,360,ls),
(80,360,o),
(92,346,o),
(95,321,cs),
(122,72,l)
);
}
);
width = 551;
}
);
note = w;
unicode = 119;
},
{
glyphname = x;
layers = (
{
layerId = m01;
shapes = (
{
closed = 1;
nodes = (
(255,349,ls),
(262,358,o),
(266,360,o),
(276,360,cs),
(313,360,ls),
(315,360,o),
(316,359,o),
(316,358,cs),
(316,357,o),
(316,357,o),
(314,354,cs),
(181,190,l),
(275,6,l),
(275,6,o),
(275,5,o),
(275,4,cs),
(275,2,o),
(273,0,o),
(270,0,cs),
(235,0,ls),
(227,0,o),
(225,2,o),
(221,10,cs),
(147,156,l),
(29,10,ls),
(22,1,o),
(20,0,o),
(12,0,cs),
(-29,0,ls),
(-32,0,o),
(-33,1,o),
(-33,2,cs),
(-33,3,o),
(-32,5,o),
(-32,6,c),
(126,197,l),
(46,354,l),
(46,355,o),
(46,356,o),
(46,357,cs),
(46,359,o),
(48,360,o),
(51,360,cs),
(67,360,ls),
(90,360,o),
(102,349,o),
(117,316,cs),
(160,231,l)
);
}
);
width = 336;
}
);
note = x;
unicode = 120;
},
{
glyphname = y;
kernLeft = y;
kernRight = y;
layers = (
{
layerId = m01;
shapes = (
{
closed = 1;
nodes = (
(33,354,l),
(33,354,o),
(33,355,o),
(33,355,c),
(33,358,o),
(35,360,o),
(38,360,cs),
(51,360,ls),
(74,360,o),
(85,346,o),
(88,320,cs),
(124,63,l),
(269,350,ls),
(273,358,o),
(276,360,o),
(286,360,cs),
(323,360,ls),
(325,360,o),
(327,359,o),
(327,357,cs),
(327,356,o),
(326,355,o),
(326,354,c),
(129,-19,ls),
(64,-143,o),
(36,-171,o),
(-17,-171,cs),
(-52,-171,o),
(-80,-146,o),
(-80,-115,cs),
(-80,-102,o),
(-75,-93,o),
(-68,-93,cs),
(-64,-93,o),
(-62,-95,o),
(-55,-104,cs),
(-44,-119,o),
(-33,-125,o),
(-16,-125,cs),
(0,-124,o),
(12,-120,o),
(23,-108,cs),
(36,-95,o),
(46,-78,o),
(56,-62,cs),
(68,-42,o),
(80,-21,o),
(91,-1,c)
);
}
);
width = 329;
}
);
note = y;
unicode = 121;
},
{
glyphname = z;
kernLeft = z;
kernRight = z;
layers = (
{
layerId = m01;
shapes = (
{
closed = 1;
nodes = (
(241,45,ls),
(243,45,o),
(245,43,o),
(245,41,cs),
(245,40,o),
(245,40,o),
(245,39,cs),
(239,6,ls),
(238,2,o),
(236,0,o),
(233,0,cs),
(-7,0,ls),
(-10,0,o),
(-11,1,o),
(-11,3,cs),
(-11,4,o),
(-11,5,o),
(-11,6,cs),
(-6,36,ls),
(-4,45,o),
(-3,46,o),
(12,62,cs),
(250,315,l),
(53,315,ls),
(50,315,o),
(49,316,o),
(49,318,cs),
(49,319,o),
(49,320,o),
(49,321,cs),
(54,354,ls),
(55,358,o),
(57,360,o),
(61,360,cs),
(257,360,ls),
(286,360,o),
(297,351,o),
(297,331,cs),
(297,307,o),
(291,291,o),
(275,274,cs),
(56,45,l)
);
}
);
width = 323;
}
);
note = z;
unicode = 122;
},
{
glyphname = braceleft;
layers = (
{
layerId = m01;
shapes = (
{
closed = 1;
nodes = (
(345,-144,o),
(347,-142,o),
(346,-137,cs),
(346,-134,l),
(342,-114,o),
(324,-101,o),
(301,-101,cs),
(244,-101,ls),
(229,-101,o),
(220,-90,o),
(217,-77,cs),
(165,218,ls),
(159,256,o),
(140,270,o),
(131,276,c),
(137,283,o),
(152,296,o),
(145,334,cs),
(93,628,ls),
(91,642,o),
(97,652,o),
(112,652,cs),
(169,652,ls),
(192,652,o),
(205,666,o),
(201,686,c),
(201,689,ls),
(200,693,o),
(197,696,o),
(192,696,cs),
(91,696,ls),
(57,696,o),
(38,673,o),
(44,639,cs),
(97,337,ls),
(103,303,o),
(79,298,o),
(65,297,cs),
(60,297,o),
(57,294,o),
(58,288,cs),
(62,264,l),
(64,258,o),
(67,256,o),
(73,255,cs),
(87,253,o),
(113,249,o),
(119,216,cs),
(172,-88,ls),
(178,-121,o),
(205,-144,o),
(239,-144,cs),
(340,-144,ls)
);
}
);
width = 330;
}
);
note = braceleft;
unicode = 123;
},
{
glyphname = bar;
layers = (
{
layerId = m01;
shapes = (
{
closed = 1;
nodes = (
(56,-149,o),
(55,-147,o),
(55,-143,cs),
(55,561,ls),
(55,564,o),
(56,567,o),
(60,567,cs),
(83,567,o),
(101,547,o),
(101,514,cs),
(101,-143,ls),
(101,-147,o),
(100,-149,o),
(96,-149,cs),
(60,-149,ls)
);
}
);
width = 184;
}
);
note = bar;
unicode = 124;
},
{
glyphname = braceright;
layers = (
{
layerId = m01;
shapes = (
{
closed = 1;
nodes = (
(272,-144,o),
(291,-121,o),
(285,-88,cs),
(232,216,ls),
(226,249,o),
(250,253,o),
(264,255,cs),
(269,256,o),
(273,258,o),
(271,264,c),
(267,288,ls),
(266,294,o),
(261,297,o),
(256,297,cs),
(243,298,o),
(216,303,o),
(211,337,cs),
(158,639,ls),
(151,673,o),
(124,696,o),
(90,696,cs),
(-11,696,ls),
(-15,696,o),
(-18,693,o),
(-17,689,cs),
(-16,686,l),
(-13,666,o),
(5,652,o),
(29,652,cs),
(85,652,ls),
(100,652,o),
(110,642,o),
(112,628,cs),
(164,334,ls),
(171,296,o),
(190,283,o),
(199,276,c),
(192,270,o),
(178,256,o),
(184,218,cs),
(236,-77,ls),
(239,-90,o),
(233,-101,o),
(218,-101,cs),
(161,-101,ls),
(138,-101,o),
(125,-114,o),
(128,-134,c),
(129,-137,ls),
(130,-142,o),
(133,-144,o),
(137,-144,cs),
(238,-144,ls)
);
}
);
width = 330;
}
);
note = braceright;
unicode = 125;
},
{
glyphname = asciitilde;
layers = (
{
layerId = m01;
shapes = (
{
closed = 1;
nodes = (
(46,240,ls),
(46,253,o),
(46,259,o),
(55,265,cs),
(77,280,o),
(96,288,o),
(124,288,cs),
(168,288,o),
(199,265,o),
(240,265,cs),
(272,265,o),
(284,271,o),
(311,293,cs),
(315,296,o),
(318,293,o),
(318,291,cs),
(318,267,ls),
(318,254,o),
(317,249,o),
(309,242,cs),
(288,225,o),
(273,218,o),
(240,218,cs),
(196,218,o),
(165,242,o),
(124,242,cs),
(93,242,o),
(79,235,o),
(53,213,cs),
(50,210,o),
(46,211,o),
(46,215,cs)
);
}
);
width = 368;
}
);
note = asciitilde;
unicode = 126;
},
{
glyphname = exclamdown;
layers = (
{
layerId = m01;
shapes = (
{
closed = 1;
nodes = (
(58,287,o),
(41,303,o),
(41,322,cs),
(41,348,o),
(62,372,o),
(88,372,cs),
(108,372,o),
(125,356,o),
(125,337,cs),
(125,311,o),
(103,287,o),
(77,287,cs)
);
},
{
closed = 1;
nodes = (
(14,-197,o),
(13,-199,o),
(10,-199,cs),
(-31,-199,ls),
(-34,-199,o),
(-35,-198,o),
(-35,-195,cs),
(-35,-194,o),
(-35,-194,o),
(-35,-193,cs),
(40,216,ls),
(41,220,o),
(42,222,o),
(46,222,cs),
(65,222,o),
(77,207,o),
(77,183,cs),
(77,179,o),
(77,175,o),
(76,170,cs),
(15,-193,ls)
);
}
);
width = 143;
}
);
note = exclamdown;
unicode = 161;
},
{
glyphname = cent;
layers = (
{
layerId = m01;
shapes = (
{
closed = 1;
nodes = (
(243,-65,ls),
(243,-66,o),
(243,-67,o),
(243,-67,c),
(243,-70,o),
(242,-71,o),
(239,-71,cs),
(202,-71,ls),
(199,-71,o),
(197,-70,o),
(196,-65,cs),
(186,-8,l),
(126,2,o),
(91,21,o),
(58,62,cs),
(25,103,o),
(5,163,o),
(5,219,cs),
(5,254,o),
(14,285,o),
(31,310,cs),
(53,340,o),
(77,355,o),
(121,364,c),
(111,421,l),
(111,421,o),
(110,422,o),
(110,423,cs),
(110,425,o),
(112,427,o),
(115,427,cs),
(151,427,ls),
(155,427,o),
(157,425,o),
(157,421,c),
(167,367,l),
(227,364,o),
(269,343,o),
(269,316,cs),
(269,315,o),
(269,314,o),
(269,313,cs),
(267,298,ls),
(266,292,o),
(266,292,o),
(263,292,cs),
(262,292,o),
(259,292,o),
(257,294,c),
(224,310,o),
(203,317,o),
(175,319,c),
(225,38,l),
(263,42,o),
(281,52,o),
(303,83,c),
(305,87,o),
(307,89,o),
(310,89,cs),
(318,89,o),
(323,80,o),
(323,66,cs),
(323,29,o),
(287,-1,o),
(233,-9,c)
);
},
{
closed = 1;
nodes = (
(129,317,l),
(78,303,o),
(56,273,o),
(56,216,cs),
(56,126,o),
(101,61,o),
(178,41,c)
);
}
);
width = 359;
}
);
note = cent;
unicode = 162;
},
{
glyphname = sterling;
layers = (
{
layerId = m01;
shapes = (
{
closed = 1;
nodes = (
(391,47,ls),
(411,47,o),
(423,38,o),
(426,18,cs),
(428,7,ls),
(428,6,o),
(428,6,o),
(428,5,cs),
(428,2,o),
(426,0,o),
(422,0,cs),
(56,0,ls),
(53,0,o),
(51,2,o),
(50,6,cs),
(44,41,ls),
(44,42,o),
(44,43,o),
(44,44,cs),
(44,46,o),
(45,47,o),
(48,47,cs),
(131,47,l),
(141,81,o),
(146,112,o),
(146,146,cs),
(146,199,o),
(139,222,o),
(108,262,c),
(10,262,ls),
(7,262,o),
(5,263,o),
(4,268,cs),
(-2,302,l),
(-2,302,o),
(-2,303,o),
(-2,304,cs),
(-2,307,o),
(-1,308,o),
(2,308,cs),
(75,308,l),
(36,361,o),
(21,399,o),
(21,446,cs),
(21,519,o),
(78,567,o),
(167,567,cs),
(215,567,o),
(262,555,o),
(307,531,cs),
(328,520,o),
(338,509,o),
(338,495,cs),
(338,494,o),
(338,493,o),
(338,492,cs),
(335,476,l),
(335,470,o),
(333,468,o),
(330,468,cs),
(325,468,o),
(322,469,o),
(316,474,cs),
(282,499,o),
(219,519,o),
(178,519,cs),
(111,519,o),
(72,489,o),
(72,436,cs),
(72,397,o),
(85,367,o),
(129,308,c),
(294,308,ls),
(314,308,o),
(325,298,o),
(329,279,cs),
(331,269,ls),
(331,268,o),
(331,268,o),
(331,267,cs),
(331,263,o),
(329,262,o),
(324,262,cs),
(161,262,l),
(188,216,o),
(194,195,o),
(194,149,cs),
(194,119,o),
(191,104,o),
(177,47,c)
);
}
);
width = 473;
}
);
note = sterling;
unicode = 163;
},
{
glyphname = yen;
layers = (
{
layerId = m01;
shapes = (
{
closed = 1;
nodes = (
(77,133,ls),
(73,133,o),
(72,134,o),
(71,139,cs),
(65,172,ls),
(65,173,o),
(65,174,o),
(65,174,c),
(65,177,o),
(66,178,o),
(69,178,cs),
(222,178,l),
(215,219,l),
(192,251,l),
(56,251,ls),
(53,251,o),
(51,252,o),
(50,257,cs),
(45,289,l),
(44,290,o),
(44,291,o),
(44,291,c),
(44,294,o),
(46,295,o),
(49,295,cs),
(159,295,l),
(-23,548,ls),
(-24,550,o),
(-25,551,o),
(-25,552,cs),
(-25,554,o),
(-24,556,o),
(-21,556,cs),
(-5,556,ls),
(22,556,o),
(34,548,o),
(59,513,cs),
(233,275,l),
(333,543,l),
(336,554,o),
(338,556,o),
(347,556,cs),
(380,556,ls),
(386,556,o),
(388,554,o),
(388,550,cs),
(388,549,o),
(388,548,o),
(387,547,c),
(293,295,l),
(400,295,ls),
(404,295,o),
(406,293,o),
(406,289,c),
(412,257,ls),
(412,256,o),
(412,255,o),
(412,254,cs),
(412,252,o),
(411,251,o),
(408,251,cs),
(278,251,l),
(266,219,l),
(273,178,l),
(421,178,ls),
(425,178,o),
(426,176,o),
(427,172,cs),
(433,139,ls),
(433,138,o),
(433,137,o),
(433,136,cs),
(433,134,o),
(432,133,o),
(429,133,cs),
(281,133,l),
(303,6,l),
(304,5,o),
(304,4,o),
(304,4,c),
(304,1,o),
(302,0,o),
(299,0,cs),
(258,0,ls),
(255,0,o),
(253,2,o),
(252,6,cs),
(230,133,l)
);
}
);
width = 449;
}
);
note = yen;
unicode = 165;
},
{
glyphname = brokenbar;
layers = (
{
layerId = m01;
shapes = (
{
closed = 1;
nodes = (
(56,272,o),
(55,274,o),
(55,277,cs),
(55,561,ls),
(55,564,o),
(56,567,o),
(60,567,cs),
(83,567,o),
(101,547,o),
(101,514,cs),
(101,277,ls),
(101,274,o),
(100,272,o),
(96,272,cs),
(60,272,ls)
);
},
{
closed = 1;
nodes = (
(56,-149,o),
(55,-147,o),
(55,-143,cs),
(55,140,ls),
(55,144,o),
(56,146,o),
(60,146,cs),
(96,146,ls),
(100,146,o),
(101,144,o),
(101,140,cs),
(101,-143,ls),
(101,-147,o),
(100,-149,o),
(96,-149,cs),
(60,-149,ls)
);
}
);
width = 184;
}
);
note = brokenbar;
unicode = 166;
},
{
glyphname = section;
layers = (
{
layerId = m01;
shapes = (
{
closed = 1;
nodes = (
(227,167,o),
(230,170,o),
(237,182,cs),
(248,200,o),
(255,221,o),
(255,238,cs),
(255,282,o),
(234,301,o),
(125,357,c),
(78,329,o),
(60,304,o),
(60,269,cs),
(60,240,o),
(75,216,o),
(109,193,cs),
(129,179,o),
(139,173,o),
(198,144,c)
);
},
{
closed = 1;
nodes = (
(304,84,o),
(328,53,o),
(328,4,cs),
(328,-55,o),
(278,-97,o),
(209,-97,cs),
(142,-97,o),
(68,-59,o),
(68,-25,cs),
(68,-23,o),
(68,-21,o),
(68,-19,cs),
(70,-8,ls),
(71,-4,o),
(73,-2,o),
(75,-2,cs),
(78,-2,o),
(78,-2,o),
(94,-14,cs),
(125,-38,o),
(163,-51,o),
(200,-51,cs),
(248,-51,o),
(277,-30,o),
(277,6,cs),
(277,43,o),
(245,73,o),
(159,117,cs),
(54,170,o),
(13,212,o),
(13,268,cs),
(13,308,o),
(37,343,o),
(89,377,c),
(25,413,o),
(5,439,o),
(5,484,cs),
(5,535,o),
(47,568,o),
(113,568,cs),
(148,568,o),
(186,559,o),
(210,546,cs),
(224,538,o),
(230,529,o),
(230,516,cs),
(230,515,o),
(230,514,o),
(230,513,cs),
(228,498,l),
(228,495,ls),
(228,493,o),
(226,492,o),
(224,492,cs),
(223,492,o),
(222,492,o),
(220,493,c),
(219,493,o),
(219,493,o),
(218,493,c),
(180,513,o),
(153,521,o),
(122,521,cs),
(78,521,o),
(55,506,o),
(55,479,cs),
(55,448,o),
(81,425,o),
(158,388,cs),
(263,339,o),
(302,299,o),
(302,239,cs),
(302,201,o),
(280,163,o),
(236,124,c)
);
}
);
width = 404;
}
);
note = section;
unicode = 167;
},
{
glyphname = dieresis;
layers = (
{
layerId = m01;
shapes = (
{
closed = 1;
nodes = (
(11,440,o),
(23,426,o),
(41,426,cs),
(60,426,o),
(78,440,o),
(81,458,cs),
(84,477,o),
(72,492,o),
(53,492,cs),
(35,492,o),
(18,477,o),
(14,458,cs)
);
},
{
closed = 1;
nodes = (
(123,440,o),
(136,426,o),
(153,426,cs),
(172,426,o),
(190,440,o),
(193,458,cs),
(196,477,o),
(184,492,o),
(165,492,cs),
(147,492,o),
(130,477,o),
(126,458,cs)
);
}
);
width = 179;
}
);
note = dieresis;
unicode = 168;
},
{
glyphname = copyright;
layers = (
{
layerId = m01;
shapes = (
{
closed = 1;
nodes = (
(333,411,o),
(332,409,o),
(330,409,cs),
(329,409,o),
(328,409,o),
(325,412,c),
(308,424,o),
(286,433,o),
(264,433,cs),
(218,433,o),
(187,398,o),
(187,339,cs),
(187,279,o),
(216,248,o),
(263,248,cs),
(297,248,o),
(317,264,o),
(331,283,cs),
(334,287,o),
(335,288,o),
(337,288,cs),
(341,288,o),
(342,284,o),
(342,281,cs),
(342,249,o),
(304,217,o),
(260,217,cs),
(197,217,o),
(151,263,o),
(151,340,cs),
(151,417,o),
(200,463,o),
(264,463,cs),
(287,463,o),
(304,459,o),
(320,451,cs),
(331,446,o),
(336,439,o),
(335,431,cs),
(333,413,ls)
);
},
{
closed = 1;
nodes = (
(33,474,o),
(121,563,o),
(256,563,cs),
(390,563,o),
(479,474,o),
(479,340,cs),
(479,206,o),
(390,117,o),
(256,117,cs),
(121,117,o),
(33,206,o),
(33,340,cs)
);
},
{
closed = 1;
nodes = (
(369,153,o),
(442,227,o),
(442,340,cs),
(442,453,o),
(369,527,o),
(256,527,cs),
(143,527,o),
(71,453,o),
(71,340,cs),
(71,227,o),
(143,153,o),
(256,153,cs)
);
}
);
width = 512;
}
);
note = copyright;
unicode = 169;
},
{
glyphname = ordfeminine;
layers = (
{
layerId = m01;
shapes = (
{
closed = 1;
nodes = (
(239,269,o),
(203,257,o),
(157,257,cs),
(88,257,o),
(42,306,o),
(42,376,cs),
(42,474,o),
(113,553,o),
(204,553,cs),
(246,553,o),
(276,537,o),
(302,501,c),
(308,531,o),
(321,548,o),
(341,548,cs),
(347,548,ls),
(349,548,o),
(350,547,o),
(350,545,cs),
(350,544,o),
(350,544,o),
(350,543,cs),
(301,269,l),
(301,265,o),
(300,264,o),
(297,264,cs),
(263,264,ls),
(261,264,o),
(260,265,o),
(261,266,c),
(261,266,o),
(261,267,o),
(261,269,cs),
(267,304,l)
);
},
{
closed = 1;
nodes = (
(234,296,o),
(284,353,o),
(284,434,cs),
(284,484,o),
(255,513,o),
(204,513,cs),
(139,513,o),
(87,453,o),
(87,377,cs),
(87,326,o),
(116,296,o),
(163,296,cs)
);
}
);
width = 328;
}
);
note = ordfeminine;
unicode = 170;
},
{
glyphname = guillemotleft;
layers = (
{
layerId = m01;
shapes = (
{
closed = 1;
nodes = (
(322,321,ls),
(324,325,o),
(321,328,o),
(318,328,cs),
(274,328,ls),
(266,328,o),
(264,327,o),
(260,320,cs),
(185,198,ls),
(182,193,o),
(180,189,o),
(181,184,cs),
(182,179,o),
(186,175,o),
(190,170,cs),
(308,48,ls),
(314,41,o),
(317,40,o),
(324,40,cs),
(368,40,ls),
(372,40,o),
(374,43,o),
(370,47,cs),
(242,184,l)
);
},
{
closed = 1;
nodes = (
(184,321,ls),
(186,325,o),
(184,328,o),
(180,328,cs),
(135,328,ls),
(129,328,o),
(125,327,o),
(121,320,cs),
(48,198,ls),
(45,193,o),
(42,189,o),
(43,184,cs),
(44,179,o),
(48,175,o),
(53,170,cs),
(169,48,ls),
(175,41,o),
(179,40,o),
(186,40,cs),
(230,40,ls),
(234,40,o),
(236,43,o),
(232,47,cs),
(104,184,l)
);
}
);
width = 361;
}
);
note = guillemotleft;
unicode = 171;
},
{
glyphname = uni00AD;
layers = (
{
layerId = m01;
shapes = (
{
closed = 1;
nodes = (
(268,180,ls),
(272,180,o),
(273,182,o),
(272,186,cs),
(266,221,ls),
(265,225,o),
(264,227,o),
(260,227,cs),
(46,227,ls),
(42,227,o),
(41,225,o),
(42,221,cs),
(48,186,ls),
(49,182,o),
(50,180,o),
(54,180,cs)
);
}
);
width = 305;
}
);
note = uni00AD;
unicode = 173;
},
{
glyphname = registered;
layers = (
{
layerId = m01;
shapes = (
{
closed = 1;
nodes = (
(207,225,ls),
(207,223,o),
(206,222,o),
(205,222,cs),
(173,222,ls),
(171,222,o),
(171,223,o),
(171,225,cs),
(171,457,ls),
(171,459,o),
(171,459,o),
(173,459,cs),
(262,459,ls),
(316,459,o),
(348,433,o),
(348,386,cs),
(348,348,o),
(328,322,o),
(297,311,c),
(353,225,ls),
(354,224,o),
(353,222,o),
(351,222,cs),
(322,222,ls),
(316,222,o),
(315,223,o),
(313,226,cs),
(261,308,l),
(207,308,l)
);
},
{
closed = 1;
nodes = (
(250,340,ls),
(292,340,o),
(312,354,o),
(312,388,cs),
(312,421,o),
(289,428,o),
(254,428,cs),
(207,428,l),
(207,340,l)
);
},
{
closed = 1;
nodes = (
(33,474,o),
(121,563,o),
(256,563,cs),
(390,563,o),
(479,474,o),
(479,340,cs),
(479,206,o),
(390,117,o),
(256,117,cs),
(121,117,o),
(33,206,o),
(33,340,cs)
);
},
{
closed = 1;
nodes = (
(369,153,o),
(442,227,o),
(442,340,cs),
(442,453,o),
(369,527,o),
(256,527,cs),
(143,527,o),
(71,453,o),
(71,340,cs),
(71,227,o),
(143,153,o),
(256,153,cs)
);
}
);
width = 512;
}
);
note = registered;
unicode = 174;
},
{
glyphname = macron;
layers = (
{
layerId = m01;
shapes = (
{
closed = 1;
nodes = (
(206,431,ls),
(211,431,o),
(212,433,o),
(212,437,c),
(217,464,ls),
(218,468,o),
(218,469,o),
(213,469,cs),
(21,469,ls),
(18,469,o),
(16,468,o),
(15,464,cs),
(11,437,ls),
(10,433,o),
(11,431,o),
(15,431,cs)
);
}
);
width = 202;
}
);
note = macron;
unicode = 175;
},
{
glyphname = degree;
layers = (
{
layerId = m01;
shapes = (
{
closed = 1;
nodes = (
(193,369,o),
(235,416,o),
(235,474,cs),
(235,536,o),
(193,579,o),
(130,579,cs),
(68,579,o),
(26,536,o),
(26,474,cs),
(26,416,o),
(68,369,o),
(130,369,cs)
);
},
{
closed = 1;
nodes = (
(92,407,o),
(68,438,o),
(68,474,cs),
(68,512,o),
(92,543,o),
(130,543,cs),
(168,543,o),
(193,512,o),
(193,474,cs),
(193,438,o),
(168,407,o),
(130,407,cs)
);
}
);
width = 261;
}
);
note = degree;
unicode = 176;
},
{
glyphname = plusminus;
layers = (
{
layerId = m01;
shapes = (
{
closed = 1;
nodes = (
(169,107,ls),
(169,103,o),
(170,101,o),
(174,101,cs),
(210,101,ls),
(215,101,o),
(215,103,o),
(215,107,cs),
(215,249,l),
(339,249,ls),
(343,249,o),
(344,251,o),
(344,255,cs),
(344,289,ls),
(344,293,o),
(343,295,o),
(339,295,cs),
(215,295,l),
(215,397,ls),
(215,429,o),
(203,443,o),
(174,443,cs),
(170,443,o),
(169,441,o),
(169,437,cs),
(169,295,l),
(46,295,ls),
(42,295,o),
(41,293,o),
(41,289,cs),
(41,255,ls),
(41,251,o),
(42,249,o),
(46,249,cs),
(169,249,l)
);
},
{
closed = 1;
nodes = (
(339,0,ls),
(343,0,o),
(344,2,o),
(344,6,cs),
(344,11,ls),
(344,31,o),
(330,47,o),
(305,47,cs),
(46,47,ls),
(42,47,o),
(41,45,o),
(41,41,cs),
(41,6,ls),
(41,2,o),
(42,0,o),
(46,0,cs)
);
}
);
width = 384;
}
);
note = plusminus;
unicode = 177;
},
{
glyphname = twosuperior;
layers = (
{
layerId = m01;
shapes = (
{
closed = 1;
nodes = (
(82,354,o),
(226,369,o),
(208,471,cs),
(198,524,o),
(145,562,o),
(76,562,cs),
(44,562,o),
(20,553,o),
(2,543,cs),
(-12,536,o),
(-16,529,o),
(-12,518,cs),
(-5,496,l),
(-5,493,o),
(-2,491,o),
(0,491,cs),
(3,491,o),
(4,493,o),
(7,494,c),
(30,513,o),
(54,522,o),
(81,522,cs),
(134,522,o),
(158,503,o),
(164,469,cs),
(180,377,o),
(6,386,o),
(31,242,c),
(32,240,o),
(32,239,o),
(35,239,cs),
(243,239,ls),
(247,239,o),
(248,240,o),
(247,243,c),
(244,263,ls),
(242,274,o),
(235,279,o),
(223,279,cs),
(74,279,l)
);
}
);
width = 284;
}
);
note = twosuperior;
unicode = 178;
},
{
glyphname = threesuperior;
layers = (
{
layerId = m01;
shapes = (
{
closed = 1;
nodes = (
(222,419,o),
(230,448,o),
(224,479,cs),
(215,531,o),
(167,562,o),
(96,562,cs),
(65,562,o),
(36,552,o),
(20,543,c),
(8,534,o),
(2,529,o),
(6,518,cs),
(13,498,l),
(13,494,o),
(15,493,o),
(17,493,cs),
(20,493,o),
(22,494,o),
(24,497,c),
(45,513,o),
(69,523,o),
(99,523,cs),
(147,523,o),
(175,507,o),
(181,477,cs),
(188,438,o),
(164,424,o),
(120,424,cs),
(68,424,ls),
(65,424,o),
(64,424,o),
(65,421,cs),
(68,403,ls),
(70,392,o),
(77,386,o),
(88,386,cs),
(119,386,ls),
(174,386,o),
(210,364,o),
(216,325,cs),
(223,290,o),
(199,272,o),
(147,272,cs),
(108,272,o),
(75,287,o),
(50,316,cs),
(46,320,o),
(44,322,o),
(40,322,cs),
(35,322,o),
(34,316,o),
(34,311,c),
(39,286,o),
(77,233,o),
(161,233,cs),
(236,233,o),
(270,274,o),
(261,327,cs),
(253,373,o),
(224,394,o),
(183,404,c)
);
}
);
width = 301;
}
);
note = threesuperior;
unicode = 179;
},
{
glyphname = acute;
layers = (
{
layerId = m01;
shapes = (
{
closed = 1;
nodes = (
(0,434,o),
(2,431,o),
(6,431,cs),
(43,431,ls),
(53,431,o),
(59,433,o),
(68,440,cs),
(139,496,ls),
(141,498,o),
(141,502,o),
(136,502,cs),
(87,502,ls),
(76,502,o),
(73,499,o),
(66,493,cs),
(3,436,l)
);
}
);
width = 139;
}
);
note = acute;
unicode = 180;
},
{
glyphname = paragraph;
layers = (
{
layerId = m01;
shapes = (
{
closed = 1;
nodes = (
(209,6,ls),
(210,2,o),
(212,0,o),
(216,0,cs),
(246,0,ls),
(250,0,o),
(250,2,o),
(249,6,cs),
(160,514,l),
(232,514,l),
(322,6,l),
(322,2,o),
(324,0,o),
(328,0,cs),
(358,0,ls),
(362,0,o),
(362,2,o),
(362,6,c),
(276,491,ls),
(268,536,o),
(245,556,o),
(204,556,cs),
(133,556,ls),
(-3,556,o),
(-46,488,o),
(-29,391,cs),
(-10,285,o),
(70,221,o),
(168,221,cs),
(172,221,l)
);
}
);
width = 433;
}
);
note = paragraph;
unicode = 182;
},
{
glyphname = periodcentered;
layers = (
{
layerId = m01;
shapes = (
{
closed = 1;
nodes = (
(69,322,o),
(47,302,o),
(43,279,cs),
(39,256,o),
(55,237,o),
(77,237,cs),
(100,237,o),
(121,256,o),
(125,279,cs),
(129,302,o),
(114,322,o),
(92,322,cs)
);
}
);
width = 137;
}
);
note = periodcentered;
unicode = 183;
},
{
glyphname = cedilla;
layers = (
{
layerId = m01;
shapes = (
{
closed = 1;
nodes = (
(98,2,o),
(97,5,o),
(93,5,cs),
(71,5,ls),
(61,5,o),
(54,4,o),
(48,-5,cs),
(1,-80,ls),
(-1,-83,o),
(0,-86,o),
(4,-86,cs),
(37,-86,ls),
(48,-86,o),
(54,-85,o),
(58,-77,cs),
(97,-1,l)
);
}
);
width = 98;
}
);
note = cedilla;
unicode = 184;
},
{
glyphname = onesuperior;
layers = (
{
layerId = m01;
shapes = (
{
closed = 1;
nodes = (
(50,245,ls),
(51,241,o),
(52,239,o),
(56,239,cs),
(91,239,ls),
(95,239,o),
(96,241,o),
(95,245,cs),
(45,528,ls),
(42,547,o),
(34,556,o),
(19,556,cs),
(0,556,ls),
(-8,556,o),
(-16,554,o),
(-26,551,cs),
(-62,538,ls),
(-64,537,o),
(-66,534,o),
(-66,532,cs),
(-59,494,ls),
(-59,493,o),
(-57,492,o),
(-55,493,cs),
(3,514,l)
);
}
);
width = 194;
}
);
note = onesuperior;
unicode = 185;
},
{
glyphname = ordmasculine;
layers = (
{
layerId = m01;
shapes = (
{
closed = 1;
nodes = (
(257,257,o),
(322,316,o),
(338,404,cs),
(354,493,o),
(309,553,o),
(223,553,cs),
(141,553,o),
(74,493,o),
(58,404,cs),
(42,314,o),
(89,257,o),
(171,257,cs)
);
},
{
closed = 1;
nodes = (
(119,296,o),
(92,340,o),
(103,404,cs),
(114,469,o),
(157,513,o),
(216,513,cs),
(273,513,o),
(305,469,o),
(293,404,cs),
(282,338,o),
(237,296,o),
(178,296,cs)
);
}
);
width = 320;
}
);
note = ordmasculine;
unicode = 186;
},
{
glyphname = guillemotright;
layers = (
{
layerId = m01;
shapes = (
{
closed = 1;
nodes = (
(30,47,ls),
(27,43,o),
(29,40,o),
(33,40,cs),
(77,40,ls),
(84,40,o),
(88,41,o),
(93,48,cs),
(188,170,ls),
(192,175,o),
(195,179,o),
(195,184,cs),
(195,189,o),
(192,193,o),
(188,198,cs),
(93,320,ls),
(88,327,o),
(84,328,o),
(77,328,cs),
(33,328,ls),
(29,328,o),
(27,325,o),
(30,321,cs),
(134,184,l)
);
},
{
closed = 1;
nodes = (
(168,47,ls),
(165,43,o),
(167,40,o),
(171,40,cs),
(215,40,ls),
(221,40,o),
(226,41,o),
(231,48,cs),
(326,170,ls),
(330,175,o),
(333,179,o),
(333,184,cs),
(333,189,o),
(330,193,o),
(326,198,cs),
(231,320,ls),
(226,327,o),
(221,328,o),
(215,328,cs),
(171,328,ls),
(167,328,o),
(165,325,o),
(168,321,cs),
(273,184,l)
);
}
);
width = 361;
}
);
note = guillemotright;
unicode = 187;
},
{
glyphname = onequarter;
layers = (
{
layerId = m01;
shapes = (
{
closed = 1;
nodes = (
(479,3,ls),
(479,1,o),
(480,0,o),
(482,0,cs),
(519,0,ls),
(521,0,o),
(522,1,o),
(522,3,cs),
(508,79,l),
(547,79,ls),
(551,79,o),
(552,80,o),
(551,83,cs),
(548,100,ls),
(546,111,o),
(539,117,o),
(528,117,cs),
(502,117,l),
(470,296,ls),
(467,313,o),
(456,317,o),
(446,317,cs),
(421,317,ls),
(414,317,o),
(409,314,o),
(406,308,cs),
(303,115,ls),
(298,107,o),
(299,104,o),
(300,97,cs),
(303,82,ls),
(303,80,o),
(303,79,o),
(307,79,cs),
(465,79,l)
);
},
{
closed = 1;
nodes = (
(155,0,ls),
(159,0,o),
(161,2,o),
(162,6,cs),
(347,503,ls),
(360,536,o),
(350,556,o),
(326,556,cs),
(320,556,ls),
(316,556,o),
(316,553,o),
(314,549,cs),
(110,6,ls),
(109,2,o),
(109,0,o),
(113,0,cs)
);
},
{
closed = 1;
nodes = (
(50,245,ls),
(51,241,o),
(52,239,o),
(56,239,cs),
(91,239,ls),
(95,239,o),
(96,241,o),
(95,245,cs),
(45,528,ls),
(42,547,o),
(34,556,o),
(19,556,cs),
(0,556,ls),
(-8,556,o),
(-16,554,o),
(-25,551,cs),
(-62,538,ls),
(-64,537,o),
(-66,534,o),
(-66,532,cs),
(-59,494,ls),
(-59,493,o),
(-58,492,o),
(-55,493,cs),
(3,514,l)
);
},
{
closed = 1;
nodes = (
(431,275,l),
(459,117,l),
(347,117,l)
);
}
);
width = 601;
}
);
note = onequarter;
unicode = 188;
},
{
glyphname = onehalf;
layers = (
{
layerId = m01;
shapes = (
{
closed = 1;
nodes = (
(155,0,ls),
(159,0,o),
(161,2,o),
(162,6,cs),
(347,503,ls),
(360,536,o),
(350,556,o),
(326,556,cs),
(320,556,ls),
(316,556,o),
(316,553,o),
(314,549,cs),
(110,6,ls),
(109,2,o),
(109,0,o),
(113,0,cs)
);
},
{
closed = 1;
nodes = (
(445,115,o),
(589,131,o),
(571,233,cs),
(562,286,o),
(508,323,o),
(439,323,cs),
(407,323,o),
(384,314,o),
(366,304,cs),
(352,297,o),
(347,291,o),
(351,279,cs),
(358,258,l),
(358,255,o),
(360,253,o),
(363,253,cs),
(365,253,o),
(367,255,o),
(370,257,cs),
(393,275,o),
(417,283,o),
(444,283,cs),
(497,283,o),
(520,265,o),
(526,231,cs),
(543,138,o),
(369,147,o),
(394,3,c),
(395,1,o),
(395,0,o),
(398,0,cs),
(606,0,ls),
(610,0,o),
(611,1,o),
(610,4,c),
(607,24,ls),
(605,35,o),
(598,41,o),
(586,41,cs),
(437,41,l)
);
},
{
closed = 1;
nodes = (
(50,245,ls),
(51,241,o),
(52,239,o),
(56,239,cs),
(91,239,ls),
(95,239,o),
(96,241,o),
(95,245,cs),
(45,528,ls),
(42,547,o),
(34,556,o),
(19,556,cs),
(0,556,ls),
(-8,556,o),
(-16,554,o),
(-25,551,cs),
(-62,538,ls),
(-64,537,o),
(-66,534,o),
(-66,532,cs),
(-59,494,ls),
(-59,493,o),
(-58,492,o),
(-55,493,cs),
(3,514,l)
);
}
);
width = 672;
}
);
note = onehalf;
unicode = 189;
},
{
glyphname = threequarters;
layers = (
{
layerId = m01;
shapes = (
{
closed = 1;
nodes = (
(615,3,l),
(616,1,o),
(616,0,o),
(619,0,cs),
(656,0,ls),
(658,0,o),
(658,1,o),
(658,3,cs),
(645,79,l),
(684,79,ls),
(686,79,o),
(687,80,o),
(687,83,c),
(684,100,ls),
(682,111,o),
(676,117,o),
(664,117,cs),
(638,117,l),
(607,296,ls),
(604,313,o),
(593,317,o),
(583,317,cs),
(558,317,ls),
(550,317,o),
(546,314,o),
(542,308,c),
(439,115,ls),
(435,107,o),
(435,104,o),
(437,97,c),
(439,82,l),
(440,80,o),
(440,79,o),
(443,79,cs),
(602,79,l)
);
},
{
closed = 1;
nodes = (
(222,419,o),
(230,448,o),
(224,479,cs),
(215,531,o),
(167,562,o),
(96,562,cs),
(65,562,o),
(36,552,o),
(20,543,c),
(8,534,o),
(2,529,o),
(6,518,cs),
(13,498,l),
(13,494,o),
(15,493,o),
(17,493,cs),
(20,493,o),
(22,494,o),
(24,497,c),
(45,513,o),
(69,523,o),
(99,523,cs),
(147,523,o),
(175,507,o),
(181,477,cs),
(188,438,o),
(164,424,o),
(120,424,cs),
(68,424,ls),
(65,424,o),
(64,424,o),
(65,421,cs),
(68,403,ls),
(70,392,o),
(77,386,o),
(88,386,cs),
(119,386,ls),
(174,386,o),
(210,364,o),
(216,325,cs),
(223,290,o),
(199,272,o),
(147,272,cs),
(108,272,o),
(75,287,o),
(50,316,cs),
(46,320,o),
(44,322,o),
(40,322,cs),
(35,322,o),
(34,316,o),
(34,311,c),
(39,286,o),
(86,233,o),
(161,233,cs),
(236,233,o),
(270,274,o),
(261,327,cs),
(253,373,o),
(224,394,o),
(183,404,c)
);
},
{
closed = 1;
nodes = (
(292,0,ls),
(296,0,o),
(298,2,o),
(299,6,cs),
(483,503,ls),
(495,536,o),
(486,556,o),
(462,556,cs),
(456,556,ls),
(452,556,o),
(451,553,o),
(450,549,cs),
(247,6,ls),
(246,2,o),
(246,0,o),
(250,0,cs)
);
},
{
closed = 1;
nodes = (
(567,275,l),
(595,117,l),
(483,117,l)
);
}
);
width = 683;
}
);
note = threequarters;
unicode = 190;
},
{
glyphname = questiondown;
layers = (
{
layerId = m01;
shapes = (
{
closed = 1;
nodes = (
(176,287,o),
(159,302,o),
(159,322,cs),
(159,348,o),
(180,372,o),
(206,372,cs),
(225,372,o),
(243,356,o),
(243,337,cs),
(243,311,o),
(221,287,o),
(195,287,cs)
);
},
{
closed = 1;
nodes = (
(272,-152,o),
(272,-152,o),
(272,-153,cs),
(272,-155,o),
(270,-157,o),
(267,-159,cs),
(211,-194,o),
(162,-210,o),
(105,-210,cs),
(10,-210,o),
(-47,-159,o),
(-47,-80,cs),
(-47,-4,o),
(-10,41,o),
(94,110,cs),
(143,143,o),
(145,145,o),
(151,178,cs),
(157,216,ls),
(158,220,o),
(159,222,o),
(163,222,cs),
(169,222,ls),
(187,222,o),
(197,210,o),
(197,190,cs),
(197,147,o),
(172,113,o),
(110,70,cs),
(31,16,o),
(5,-21,o),
(5,-76,cs),
(5,-132,o),
(41,-162,o),
(110,-162,cs),
(158,-162,o),
(203,-148,o),
(248,-119,cs),
(253,-115,o),
(257,-114,o),
(261,-114,cs),
(264,-114,o),
(266,-116,o),
(267,-121,cs),
(272,-151,ls)
);
}
);
width = 325;
}
);
note = questiondown;
unicode = 191;
},
{
glyphname = Agrave;
kernLeft = A;
kernRight = A;
layers = (
{
layerId = m01;
shapes = (
{
closed = 1;
nodes = (
(27,12,ls),
(22,2,o),
(20,0,o),
(10,0,cs),
(-30,0,ls),
(-33,0,o),
(-35,1,o),
(-35,3,cs),
(-35,4,o),
(-34,6,o),
(-34,7,c),
(274,549,l),
(276,554,o),
(279,556,o),
(283,556,cs),
(288,556,ls),
(315,556,o),
(327,546,o),
(332,521,cs),
(441,7,l),
(441,7,o),
(441,6,o),
(441,5,cs),
(441,2,o),
(439,0,o),
(436,0,cs),
(401,0,ls),
(391,0,o),
(390,1,o),
(388,12,cs),
(356,169,l),
(112,169,l)
);
},
{
closed = 1;
nodes = (
(346,216,l),
(291,493,l),
(139,216,l)
);
},
{
closed = 1;
nodes = (
(369,624,o),
(369,624,o),
(369,623,cs),
(369,621,o),
(367,619,o),
(364,619,cs),
(332,619,ls),
(323,619,o),
(317,622,o),
(309,629,cs),
(247,685,l),
(247,685,o),
(246,686,o),
(246,687,cs),
(246,689,o),
(248,691,o),
(251,691,cs),
(296,691,ls),
(305,691,o),
(308,689,o),
(315,682,cs),
(368,625,ls)
);
}
);
width = 498;
}
);
note = Agrave;
unicode = 192;
},
{
glyphname = Aacute;
kernLeft = A;
kernRight = A;
layers = (
{
layerId = m01;
shapes = (
{
closed = 1;
nodes = (
(27,12,ls),
(22,2,o),
(20,0,o),
(10,0,cs),
(-30,0,ls),
(-33,0,o),
(-35,1,o),
(-35,3,cs),
(-35,4,o),
(-34,6,o),
(-34,7,c),
(274,549,l),
(276,554,o),
(279,556,o),
(283,556,cs),
(288,556,ls),
(315,556,o),
(327,546,o),
(332,521,cs),
(441,7,l),
(441,7,o),
(441,6,o),
(441,5,cs),
(441,2,o),
(439,0,o),
(436,0,cs),
(401,0,ls),
(391,0,o),
(390,1,o),
(388,12,cs),
(356,169,l),
(112,169,l)
);
},
{
closed = 1;
nodes = (
(346,216,l),
(291,493,l),
(139,216,l)
);
},
{
closed = 1;
nodes = (
(314,682,ls),
(323,689,o),
(328,691,o),
(337,691,cs),
(390,691,ls),
(392,691,o),
(394,689,o),
(394,688,cs),
(394,687,o),
(393,685,o),
(393,685,c),
(311,629,ls),
(301,622,o),
(294,619,o),
(284,619,cs),
(248,619,ls),
(246,619,o),
(244,621,o),
(244,622,cs),
(244,623,o),
(245,624,o),
(246,625,cs)
);
}
);
width = 498;
}
);
note = Aacute;
unicode = 193;
},
{
glyphname = Acircumflex;
kernLeft = A;
kernRight = A;
layers = (
{
layerId = m01;
shapes = (
{
closed = 1;
nodes = (
(27,12,ls),
(22,2,o),
(20,0,o),
(10,0,cs),
(-30,0,ls),
(-33,0,o),
(-35,1,o),
(-35,3,cs),
(-35,4,o),
(-34,6,o),
(-34,7,c),
(274,549,l),
(276,554,o),
(279,556,o),
(283,556,cs),
(288,556,ls),
(315,556,o),
(327,546,o),
(332,521,cs),
(441,7,l),
(441,7,o),
(441,6,o),
(441,5,cs),
(441,2,o),
(439,0,o),
(436,0,cs),
(401,0,ls),
(391,0,o),
(390,1,o),
(388,12,cs),
(356,169,l),
(112,169,l)
);
},
{
closed = 1;
nodes = (
(346,216,l),
(291,493,l),
(139,216,l)
);
},
{
closed = 1;
nodes = (
(275,629,ls),
(266,622,o),
(260,619,o),
(249,619,cs),
(213,619,ls),
(211,619,o),
(209,621,o),
(209,622,cs),
(209,623,o),
(210,624,o),
(211,625,cs),
(283,682,ls),
(292,689,o),
(297,691,o),
(306,691,cs),
(335,691,ls),
(345,691,o),
(346,690,o),
(354,682,cs),
(407,625,ls),
(408,624,o),
(408,624,o),
(408,623,cs),
(408,621,o),
(406,619,o),
(403,619,cs),
(373,619,ls),
(362,619,o),
(356,622,o),
(350,629,cs),
(319,664,l)
);
}
);
width = 498;
}
);
note = Acircumflex;
unicode = 194;
},
{
glyphname = Atilde;
kernLeft = A;
kernRight = A;
layers = (
{
layerId = m01;
shapes = (
{
closed = 1;
nodes = (
(27,12,ls),
(22,2,o),
(20,0,o),
(10,0,cs),
(-30,0,ls),
(-33,0,o),
(-35,1,o),
(-35,3,cs),
(-35,4,o),
(-34,6,o),
(-34,7,c),
(274,549,l),
(276,554,o),
(279,556,o),
(283,556,cs),
(288,556,ls),
(315,556,o),
(327,546,o),
(332,521,cs),
(441,7,l),
(441,7,o),
(441,6,o),
(441,5,cs),
(441,2,o),
(439,0,o),
(436,0,cs),
(401,0,ls),
(391,0,o),
(390,1,o),
(388,12,cs),
(356,169,l),
(112,169,l)
);
},
{
closed = 1;
nodes = (
(346,216,l),
(291,493,l),
(139,216,l)
);
},
{
closed = 1;
nodes = (
(215,620,o),
(213,621,o),
(213,623,cs),
(213,652,o),
(241,684,o),
(270,684,cs),
(283,684,o),
(299,680,o),
(323,668,cs),
(340,660,o),
(348,657,o),
(355,657,cs),
(366,657,o),
(372,662,o),
(378,674,cs),
(380,678,o),
(384,680,o),
(388,680,cs),
(414,680,ls),
(418,680,o),
(419,678,o),
(420,676,c),
(421,648,o),
(389,617,o),
(356,617,cs),
(343,617,o),
(328,621,o),
(305,632,cs),
(287,642,o),
(280,644,o),
(272,644,cs),
(263,644,o),
(258,639,o),
(253,627,cs),
(251,621,o),
(249,619,o),
(245,619,cs),
(218,619,l)
);
}
);
width = 498;
}
);
note = Atilde;
unicode = 195;
},
{
glyphname = Adieresis;
kernLeft = A;
kernRight = A;
layers = (
{
layerId = m01;
shapes = (
{
closed = 1;
nodes = (
(27,12,ls),
(22,2,o),
(20,0,o),
(10,0,cs),
(-30,0,ls),
(-33,0,o),
(-35,1,o),
(-35,3,cs),
(-35,4,o),
(-34,6,o),
(-34,7,c),
(274,549,l),
(276,554,o),
(279,556,o),
(283,556,cs),
(288,556,ls),
(315,556,o),
(327,546,o),
(332,521,cs),
(441,7,l),
(441,7,o),
(441,6,o),
(441,5,cs),
(441,2,o),
(439,0,o),
(436,0,cs),
(401,0,ls),
(391,0,o),
(390,1,o),
(388,12,cs),
(356,169,l),
(112,169,l)
);
},
{
closed = 1;
nodes = (
(346,216,l),
(291,493,l),
(139,216,l)
);
},
{
closed = 1;
nodes = (
(226,662,o),
(242,681,o),
(263,681,cs),
(279,681,o),
(294,669,o),
(294,653,cs),
(294,632,o),
(277,614,o),
(256,614,cs),
(240,614,o),
(226,626,o),
(226,642,cs)
);
},
{
closed = 1;
nodes = (
(338,662,o),
(355,681,o),
(375,681,cs),
(392,681,o),
(406,669,o),
(406,653,cs),
(406,632,o),
(389,614,o),
(368,614,cs),
(352,614,o),
(338,626,o),
(338,642,cs)
);
}
);
width = 498;
}
);
note = Adieresis;
unicode = 196;
},
{
glyphname = Aring;
kernLeft = A;
kernRight = A;
layers = (
{
layerId = m01;
shapes = (
{
closed = 1;
nodes = (
(27,12,ls),
(22,2,o),
(20,0,o),
(10,0,cs),
(-30,0,ls),
(-33,0,o),
(-35,1,o),
(-35,3,cs),
(-35,4,o),
(-34,6,o),
(-34,7,c),
(274,549,l),
(276,554,o),
(279,556,o),
(283,556,cs),
(288,556,ls),
(315,556,o),
(327,546,o),
(332,521,cs),
(441,7,l),
(441,7,o),
(441,6,o),
(441,5,cs),
(441,2,o),
(439,0,o),
(436,0,cs),
(401,0,ls),
(391,0,o),
(390,1,o),
(388,12,cs),
(356,169,l),
(112,169,l)
);
},
{
closed = 1;
nodes = (
(346,216,l),
(291,493,l),
(139,216,l)
);
},
{
closed = 1;
nodes = (
(254,706,o),
(289,737,o),
(329,737,cs),
(360,737,o),
(386,711,o),
(386,680,cs),
(386,641,o),
(351,609,o),
(311,609,cs),
(280,609,o),
(254,637,o),
(254,667,cs)
);
},
{
closed = 1;
nodes = (
(336,639,o),
(353,658,o),
(353,681,cs),
(353,697,o),
(343,708,o),
(326,708,cs),
(305,708,o),
(287,688,o),
(287,666,cs),
(287,649,o),
(298,639,o),
(314,639,cs)
);
}
);
width = 498;
}
);
note = Aring;
unicode = 197;
},
{
glyphname = AE;
kernRight = E;
layers = (
{
layerId = m01;
shapes = (
{
closed = 1;
nodes = (
(137,169,l),
(27,12,ls),
(20,1,o),
(17,0,o),
(8,0,cs),
(-39,0,ls),
(-41,0,o),
(-43,1,o),
(-43,2,cs),
(-43,4,o),
(-42,5,o),
(-41,7,cs),
(350,548,ls),
(353,553,o),
(357,556,o),
(363,556,cs),
(643,556,ls),
(659,556,o),
(668,548,o),
(668,534,cs),
(668,532,o),
(668,529,o),
(667,527,c),
(666,516,ls),
(665,511,o),
(662,508,o),
(656,508,cs),
(425,508,l),
(388,298,l),
(579,298,ls),
(596,298,o),
(605,290,o),
(605,277,cs),
(605,274,o),
(605,272,o),
(604,270,c),
(602,259,l),
(602,254,o),
(599,252,o),
(593,252,cs),
(380,252,l),
(344,47,l),
(563,47,ls),
(580,47,o),
(588,40,o),
(588,26,cs),
(588,23,o),
(588,21,o),
(588,18,cs),
(586,7,ls),
(585,2,o),
(582,0,o),
(577,0,cs),
(290,0,ls),
(287,0,o),
(285,1,o),
(285,4,c),
(285,4,o),
(285,5,o),
(286,6,c),
(314,169,l)
);
},
{
closed = 1;
nodes = (
(323,216,l),
(374,509,l),
(169,216,l)
);
}
);
width = 662;
}
);
note = AE;
unicode = 198;
},
{
glyphname = Ccedilla;
kernLeft = C;
kernRight = C;
layers = (
{
layerId = m01;
shapes = (
{
closed = 1;
nodes = (
(272,-11,l),
(221,-84,ls),
(216,-91,o),
(212,-93,o),
(199,-93,cs),
(166,-93,ls),
(164,-93,o),
(163,-92,o),
(163,-91,cs),
(163,-89,o),
(163,-88,o),
(164,-87,cs),
(226,-10,l),
(190,-7,o),
(152,4,o),
(123,27,cs),
(66,71,o),
(55,141,o),
(53,208,cs),
(53,418,o),
(175,567,o),
(357,567,cs),
(430,567,o),
(520,532,o),
(520,502,cs),
(520,498,o),
(519,494,o),
(517,489,cs),
(511,473,ls),
(508,467,o),
(506,464,o),
(502,464,cs),
(499,464,o),
(499,464,o),
(477,481,cs),
(447,504,o),
(398,519,o),
(354,519,cs),
(205,519,o),
(103,393,o),
(103,206,cs),
(103,97,o),
(160,36,o),
(266,36,cs),
(333,36,o),
(391,63,o),
(440,118,cs),
(444,123,o),
(448,125,o),
(452,125,cs),
(458,125,o),
(463,120,o),
(462,113,c),
(462,96,o),
(445,66,o),
(419,44,cs),
(378,9,o),
(325,-8,o),
(272,-11,c)
);
}
);
width = 513;
}
);
note = Ccedilla;
unicode = 199;
},
{
glyphname = Egrave;
kernRight = E;
layers = (
{
layerId = m01;
shapes = (
{
closed = 1;
nodes = (
(303,47,ls),
(320,47,o),
(329,39,o),
(329,26,cs),
(329,23,o),
(329,20,o),
(328,18,c),
(326,7,l),
(326,2,o),
(323,0,o),
(317,0,cs),
(31,0,ls),
(28,0,o),
(27,1,o),
(27,3,cs),
(27,4,o),
(27,5,o),
(27,6,cs),
(123,549,ls),
(124,554,o),
(125,556,o),
(129,556,cs),
(383,556,ls),
(400,556,o),
(409,548,o),
(409,535,cs),
(409,532,o),
(408,529,o),
(408,527,cs),
(406,516,ls),
(405,510,o),
(403,509,o),
(397,509,cs),
(166,509,l),
(129,298,l),
(320,298,ls),
(337,298,o),
(346,291,o),
(346,277,cs),
(346,275,o),
(345,272,o),
(345,269,cs),
(343,257,ls),
(342,252,o),
(340,251,o),
(334,251,cs),
(121,251,l),
(85,47,l)
);
},
{
closed = 1;
nodes = (
(332,624,o),
(332,624,o),
(332,623,cs),
(332,621,o),
(330,619,o),
(328,619,cs),
(295,619,ls),
(287,619,o),
(280,622,o),
(273,629,cs),
(211,685,l),
(210,685,o),
(210,686,o),
(210,687,cs),
(210,689,o),
(212,691,o),
(215,691,cs),
(260,691,ls),
(269,691,o),
(272,689,o),
(279,682,cs),
(331,625,ls)
);
}
);
width = 404;
}
);
note = Egrave;
unicode = 200;
},
{
glyphname = Eacute;
kernRight = E;
layers = (
{
layerId = m01;
shapes = (
{
closed = 1;
nodes = (
(303,47,ls),
(320,47,o),
(329,39,o),
(329,26,cs),
(329,23,o),
(329,20,o),
(328,18,c),
(326,7,l),
(326,2,o),
(323,0,o),
(317,0,cs),
(31,0,ls),
(28,0,o),
(27,1,o),
(27,3,cs),
(27,4,o),
(27,5,o),
(27,6,cs),
(123,549,ls),
(124,554,o),
(125,556,o),
(129,556,cs),
(383,556,ls),
(400,556,o),
(409,548,o),
(409,535,cs),
(409,532,o),
(408,529,o),
(408,527,cs),
(406,516,ls),
(405,510,o),
(403,509,o),
(397,509,cs),
(166,509,l),
(129,298,l),
(320,298,ls),
(337,298,o),
(346,291,o),
(346,277,cs),
(346,275,o),
(345,272,o),
(345,269,cs),
(343,257,ls),
(342,252,o),
(340,251,o),
(334,251,cs),
(121,251,l),
(85,47,l)
);
},
{
closed = 1;
nodes = (
(292,682,ls),
(301,689,o),
(305,691,o),
(315,691,cs),
(368,691,ls),
(370,691,o),
(372,689,o),
(372,688,cs),
(372,687,o),
(371,685,o),
(370,685,c),
(289,629,ls),
(279,622,o),
(271,619,o),
(262,619,cs),
(226,619,ls),
(223,619,o),
(222,621,o),
(222,622,cs),
(222,623,o),
(222,624,o),
(224,625,c)
);
}
);
width = 404;
}
);
note = Eacute;
unicode = 201;
},
{
glyphname = Ecircumflex;
kernRight = E;
layers = (
{
layerId = m01;
shapes = (
{
closed = 1;
nodes = (
(303,47,ls),
(320,47,o),
(329,39,o),
(329,26,cs),
(329,23,o),
(329,20,o),
(328,18,c),
(326,7,l),
(326,2,o),
(323,0,o),
(317,0,cs),
(31,0,ls),
(28,0,o),
(27,1,o),
(27,3,cs),
(27,4,o),
(27,5,o),
(27,6,cs),
(123,549,ls),
(124,554,o),
(125,556,o),
(129,556,cs),
(383,556,ls),
(400,556,o),
(409,548,o),
(409,535,cs),
(409,532,o),
(408,529,o),
(408,527,cs),
(406,516,ls),
(405,510,o),
(403,509,o),
(397,509,cs),
(166,509,l),
(129,298,l),
(320,298,ls),
(337,298,o),
(346,291,o),
(346,277,cs),
(346,275,o),
(345,272,o),
(345,269,cs),
(343,257,ls),
(342,252,o),
(340,251,o),
(334,251,cs),
(121,251,l),
(85,47,l)
);
},
{
closed = 1;
nodes = (
(246,629,ls),
(237,622,o),
(231,619,o),
(220,619,cs),
(184,619,ls),
(182,619,o),
(180,621,o),
(180,622,cs),
(180,623,o),
(181,624,o),
(182,625,cs),
(254,682,ls),
(263,689,o),
(268,691,o),
(277,691,cs),
(306,691,ls),
(315,691,o),
(317,690,o),
(325,682,cs),
(377,625,ls),
(378,624,o),
(378,624,o),
(378,623,cs),
(378,621,o),
(376,619,o),
(374,619,cs),
(344,619,ls),
(333,619,o),
(327,622,o),
(321,629,cs),
(290,664,l)
);
}
);
width = 404;
}
);
note = Ecircumflex;
unicode = 202;
},
{
glyphname = Edieresis;
kernRight = E;
layers = (
{
layerId = m01;
shapes = (
{
closed = 1;
nodes = (
(303,47,ls),
(320,47,o),
(329,39,o),
(329,26,cs),
(329,23,o),
(329,20,o),
(328,18,c),
(326,7,l),
(326,2,o),
(323,0,o),
(317,0,cs),
(31,0,ls),
(28,0,o),
(27,1,o),
(27,3,cs),
(27,4,o),
(27,5,o),
(27,6,cs),
(123,549,ls),
(124,554,o),
(125,556,o),
(129,556,cs),
(383,556,ls),
(400,556,o),
(409,548,o),
(409,535,cs),
(409,532,o),
(408,529,o),
(408,527,cs),
(406,516,ls),
(405,510,o),
(403,509,o),
(397,509,cs),
(166,509,l),
(129,298,l),
(320,298,ls),
(337,298,o),
(346,291,o),
(346,277,cs),
(346,275,o),
(345,272,o),
(345,269,cs),
(343,257,ls),
(342,252,o),
(340,251,o),
(334,251,cs),
(121,251,l),
(85,47,l)
);
},
{
closed = 1;
nodes = (
(192,662,o),
(209,681,o),
(230,681,cs),
(246,681,o),
(260,669,o),
(260,653,cs),
(260,632,o),
(244,614,o),
(222,614,cs),
(207,614,o),
(192,626,o),
(192,642,cs)
);
},
{
closed = 1;
nodes = (
(305,662,o),
(321,681,o),
(342,681,cs),
(358,681,o),
(372,669,o),
(372,653,cs),
(372,632,o),
(356,614,o),
(334,614,cs),
(319,614,o),
(305,626,o),
(305,642,cs)
);
}
);
width = 404;
}
);
note = Edieresis;
unicode = 203;
},
{
glyphname = Igrave;
kernRight = I;
layers = (
{
layerId = m01;
shapes = (
{
closed = 1;
nodes = (
(28,0,o),
(27,1,o),
(27,3,cs),
(27,4,o),
(27,5,o),
(27,6,cs),
(123,549,ls),
(124,554,o),
(125,556,o),
(129,556,cs),
(134,556,ls),
(154,556,o),
(167,540,o),
(167,517,cs),
(167,512,o),
(166,508,o),
(166,504,c),
(78,6,ls),
(77,2,o),
(75,0,o),
(72,0,cs),
(31,0,ls)
);
},
{
closed = 1;
nodes = (
(229,624,o),
(230,624,o),
(230,623,cs),
(230,621,o),
(228,619,o),
(225,619,cs),
(193,619,ls),
(184,619,o),
(177,622,o),
(170,629,cs),
(108,685,l),
(108,685,o),
(107,686,o),
(107,687,cs),
(107,689,o),
(109,691,o),
(112,691,cs),
(157,691,ls),
(166,691,o),
(169,689,o),
(176,682,cs),
(229,625,l)
);
}
);
width = 196;
}
);
note = Igrave;
unicode = 204;
},
{
glyphname = Iacute;
kernRight = I;
layers = (
{
layerId = m01;
shapes = (
{
closed = 1;
nodes = (
(28,0,o),
(27,1,o),
(27,3,cs),
(27,4,o),
(27,5,o),
(27,6,cs),
(123,549,ls),
(124,554,o),
(125,556,o),
(129,556,cs),
(134,556,ls),
(154,556,o),
(167,540,o),
(167,517,cs),
(167,512,o),
(166,508,o),
(166,504,c),
(78,6,ls),
(77,2,o),
(75,0,o),
(72,0,cs),
(31,0,ls)
);
},
{
closed = 1;
nodes = (
(164,682,ls),
(173,689,o),
(177,691,o),
(187,691,cs),
(240,691,ls),
(242,691,o),
(244,689,o),
(244,688,cs),
(244,687,o),
(243,685,o),
(242,685,c),
(161,629,ls),
(151,622,o),
(143,619,o),
(134,619,cs),
(98,619,ls),
(95,619,o),
(94,621,o),
(94,622,cs),
(94,623,o),
(94,624,o),
(96,625,c)
);
}
);
width = 196;
}
);
note = Iacute;
unicode = 205;
},
{
glyphname = Icircumflex;
kernRight = I;
layers = (
{
layerId = m01;
shapes = (
{
closed = 1;
nodes = (
(28,0,o),
(27,1,o),
(27,3,cs),
(27,4,o),
(27,5,o),
(27,6,cs),
(123,549,ls),
(124,554,o),
(125,556,o),
(129,556,cs),
(134,556,ls),
(154,556,o),
(167,540,o),
(167,517,cs),
(167,512,o),
(166,508,o),
(166,504,c),
(78,6,ls),
(77,2,o),
(75,0,o),
(72,0,cs),
(31,0,ls)
);
},
{
closed = 1;
nodes = (
(129,629,ls),
(120,622,o),
(114,619,o),
(103,619,cs),
(67,619,ls),
(65,619,o),
(63,621,o),
(63,622,cs),
(63,623,o),
(64,624,o),
(65,625,cs),
(137,682,ls),
(146,689,o),
(151,691,o),
(160,691,cs),
(189,691,ls),
(198,691,o),
(200,690,o),
(208,682,cs),
(261,625,l),
(261,624,o),
(262,624,o),
(262,623,cs),
(262,621,o),
(260,619,o),
(257,619,cs),
(227,619,ls),
(216,619,o),
(210,622,o),
(204,629,cs),
(173,664,l)
);
}
);
width = 196;
}
);
note = Icircumflex;
unicode = 206;
},
{
glyphname = Idieresis;
kernRight = I;
layers = (
{
layerId = m01;
shapes = (
{
closed = 1;
nodes = (
(28,0,o),
(27,1,o),
(27,3,cs),
(27,4,o),
(27,5,o),
(27,6,cs),
(123,549,ls),
(124,554,o),
(125,556,o),
(129,556,cs),
(134,556,ls),
(154,556,o),
(167,540,o),
(167,517,cs),
(167,512,o),
(166,508,o),
(166,504,c),
(78,6,ls),
(77,2,o),
(75,0,o),
(72,0,cs),
(31,0,ls)
);
},
{
closed = 1;
nodes = (
(76,662,o),
(92,681,o),
(113,681,cs),
(129,681,o),
(143,669,o),
(143,653,cs),
(143,632,o),
(127,614,o),
(105,614,cs),
(90,614,o),
(76,626,o),
(76,642,cs)
);
},
{
closed = 1;
nodes = (
(188,662,o),
(204,681,o),
(225,681,cs),
(241,681,o),
(256,669,o),
(256,653,cs),
(256,632,o),
(239,614,o),
(218,614,cs),
(202,614,o),
(188,626,o),
(188,642,cs)
);
}
);
width = 196;
}
);
note = Idieresis;
unicode = 207;
},
{
glyphname = Eth;
layers = (
{
layerId = m01;
shapes = (
{
closed = 1;
nodes = (
(18,258,ls),
(15,258,o),
(14,259,o),
(14,262,c),
(14,262,o),
(14,263,o),
(14,264,cs),
(20,298,ls),
(21,302,o),
(23,304,o),
(26,304,cs),
(83,304,l),
(126,549,ls),
(127,554,o),
(129,556,o),
(132,556,cs),
(277,556,ls),
(436,556,o),
(509,485,o),
(509,336,cs),
(509,254,o),
(487,176,o),
(451,119,cs),
(399,39,o),
(306,0,o),
(190,0,cs),
(34,0,ls),
(31,0,o),
(30,1,o),
(30,4,cs),
(30,5,o),
(30,5,o),
(30,6,cs),
(75,258,l)
);
},
{
closed = 1;
nodes = (
(88,47,l),
(197,47,ls),
(290,47,o),
(361,76,o),
(407,142,cs),
(440,189,o),
(458,266,o),
(458,343,cs),
(458,453,o),
(400,508,o),
(267,508,cs),
(169,508,l),
(133,304,l),
(299,304,ls),
(316,304,o),
(325,296,o),
(325,283,cs),
(325,280,o),
(325,278,o),
(324,276,c),
(322,265,ls),
(321,260,o),
(319,258,o),
(313,258,cs),
(125,258,l)
);
}
);
width = 556;
}
);
note = Eth;
unicode = 208;
},
{
glyphname = Ntilde;
kernRight = N;
layers = (
{
layerId = m01;
shapes = (
{
closed = 1;
nodes = (
(450,549,ls),
(451,554,o),
(453,556,o),
(456,556,cs),
(461,556,ls),
(481,556,o),
(493,541,o),
(493,518,cs),
(493,513,o),
(493,508,o),
(492,504,cs),
(404,6,ls),
(403,2,o),
(402,0,o),
(398,0,cs),
(364,0,ls),
(354,0,o),
(348,4,o),
(344,13,cs),
(157,454,l),
(78,6,ls),
(77,2,o),
(75,0,o),
(72,0,cs),
(31,0,ls),
(28,0,o),
(27,1,o),
(27,3,cs),
(27,4,o),
(27,5,o),
(27,6,cs),
(123,549,ls),
(124,554,o),
(126,556,o),
(129,556,cs),
(134,556,ls),
(161,556,o),
(168,550,o),
(183,515,cs),
(367,80,l)
);
},
{
closed = 1;
nodes = (
(227,620,o),
(225,621,o),
(225,623,cs),
(225,652,o),
(254,684,o),
(283,684,cs),
(296,684,o),
(312,680,o),
(335,668,cs),
(353,660,o),
(360,657,o),
(368,657,cs),
(379,657,o),
(385,662,o),
(391,674,cs),
(393,678,o),
(396,680,o),
(400,680,cs),
(427,680,ls),
(430,680,o),
(432,678,o),
(432,676,cs),
(434,648,o),
(402,617,o),
(369,617,cs),
(356,617,o),
(341,621,o),
(318,632,cs),
(300,642,o),
(293,644,o),
(285,644,cs),
(276,644,o),
(270,639,o),
(266,627,cs),
(264,621,o),
(262,619,o),
(257,619,cs),
(231,619,l)
);
}
);
width = 522;
}
);
note = Ntilde;
unicode = 209;
},
{
glyphname = Ograve;
kernLeft = O;
kernRight = O;
layers = (
{
layerId = m01;
shapes = (
{
closed = 1;
nodes = (
(134,-10,o),
(53,74,o),
(52,204,cs),
(52,380,o),
(146,567,o),
(342,567,cs),
(469,567,o),
(549,481,o),
(550,351,cs),
(550,173,o),
(462,-10,o),
(263,-10,cs)
);
},
{
closed = 1;
nodes = (
(437,39,o),
(500,205,o),
(499,354,cs),
(498,482,o),
(415,520,o),
(338,520,cs),
(167,520,o),
(97,338,o),
(103,190,cs),
(109,71,o),
(191,37,o),
(267,37,cs)
);
},
{
closed = 1;
nodes = (
(428,624,o),
(428,624,o),
(428,623,cs),
(428,621,o),
(426,619,o),
(424,619,cs),
(392,619,ls),
(383,619,o),
(376,622,o),
(369,629,cs),
(307,685,l),
(306,685,o),
(306,686,o),
(306,687,cs),
(306,689,o),
(308,691,o),
(311,691,cs),
(356,691,ls),
(365,691,o),
(368,689,o),
(375,682,cs),
(427,625,ls)
);
}
);
width = 597;
}
);
note = Ograve;
unicode = 210;
},
{
glyphname = Oacute;
kernLeft = O;
kernRight = O;
layers = (
{
layerId = m01;
shapes = (
{
closed = 1;
nodes = (
(134,-10,o),
(53,74,o),
(52,204,cs),
(52,380,o),
(146,567,o),
(342,567,cs),
(469,567,o),
(549,481,o),
(550,351,cs),
(550,173,o),
(462,-10,o),
(263,-10,cs)
);
},
{
closed = 1;
nodes = (
(437,39,o),
(500,205,o),
(499,354,cs),
(498,482,o),
(415,520,o),
(338,520,cs),
(167,520,o),
(97,338,o),
(103,190,cs),
(109,71,o),
(191,37,o),
(267,37,cs)
);
},
{
closed = 1;
nodes = (
(364,682,ls),
(373,689,o),
(378,691,o),
(387,691,cs),
(440,691,ls),
(442,691,o),
(444,689,o),
(444,688,cs),
(444,687,o),
(443,685,o),
(443,685,c),
(361,629,ls),
(351,622,o),
(344,619,o),
(334,619,cs),
(298,619,ls),
(296,619,o),
(294,621,o),
(294,622,cs),
(294,623,o),
(295,624,o),
(296,625,cs)
);
}
);
width = 597;
}
);
note = Oacute;
unicode = 211;
},
{
glyphname = Ocircumflex;
kernLeft = O;
kernRight = O;
layers = (
{
layerId = m01;
shapes = (
{
closed = 1;
nodes = (
(134,-10,o),
(53,74,o),
(52,204,cs),
(52,380,o),
(146,567,o),
(342,567,cs),
(469,567,o),
(549,481,o),
(550,351,cs),
(550,173,o),
(462,-10,o),
(263,-10,cs)
);
},
{
closed = 1;
nodes = (
(437,39,o),
(500,205,o),
(499,354,cs),
(498,482,o),
(415,520,o),
(338,520,cs),
(167,520,o),
(97,338,o),
(103,190,cs),
(109,71,o),
(191,37,o),
(267,37,cs)
);
},
{
closed = 1;
nodes = (
(327,629,ls),
(318,622,o),
(311,619,o),
(300,619,cs),
(264,619,ls),
(262,619,o),
(260,621,o),
(260,622,cs),
(260,623,o),
(261,624,o),
(262,625,cs),
(335,682,ls),
(344,689,o),
(348,691,o),
(357,691,cs),
(386,691,ls),
(396,691,o),
(398,690,o),
(405,682,cs),
(458,625,ls),
(459,624,o),
(459,624,o),
(459,623,cs),
(459,621,o),
(457,619,o),
(454,619,cs),
(425,619,ls),
(414,619,o),
(407,622,o),
(401,629,cs),
(371,664,l)
);
}
);
width = 597;
}
);
note = Ocircumflex;
unicode = 212;
},
{
glyphname = Otilde;
kernLeft = O;
kernRight = O;
layers = (
{
layerId = m01;
shapes = (
{
closed = 1;
nodes = (
(134,-10,o),
(53,74,o),
(52,204,cs),
(52,380,o),
(146,567,o),
(342,567,cs),
(469,567,o),
(549,481,o),
(550,351,cs),
(550,173,o),
(462,-10,o),
(263,-10,cs)
);
},
{
closed = 1;
nodes = (
(437,39,o),
(500,205,o),
(499,354,cs),
(498,482,o),
(415,520,o),
(338,520,cs),
(167,520,o),
(97,338,o),
(103,190,cs),
(109,71,o),
(191,37,o),
(267,37,cs)
);
},
{
closed = 1;
nodes = (
(264,620,o),
(263,621,o),
(263,623,cs),
(263,652,o),
(291,684,o),
(320,684,cs),
(333,684,o),
(349,680,o),
(373,668,cs),
(390,660,o),
(398,657,o),
(405,657,cs),
(416,657,o),
(422,662,o),
(428,674,cs),
(430,678,o),
(434,680,o),
(438,680,cs),
(464,680,ls),
(467,680,o),
(469,678,o),
(469,676,cs),
(471,648,o),
(439,617,o),
(406,617,cs),
(393,617,o),
(378,621,o),
(355,632,cs),
(337,642,o),
(330,644,o),
(322,644,cs),
(313,644,o),
(308,639,o),
(303,627,cs),
(301,621,o),
(299,619,o),
(295,619,cs),
(268,619,l)
);
}
);
width = 597;
}
);
note = Otilde;
unicode = 213;
},
{
glyphname = Odieresis;
kernLeft = O;
kernRight = O;
layers = (
{
layerId = m01;
shapes = (
{
closed = 1;
nodes = (
(134,-10,o),
(53,74,o),
(52,204,cs),
(52,380,o),
(146,567,o),
(342,567,cs),
(469,567,o),
(549,481,o),
(550,351,cs),
(550,173,o),
(462,-10,o),
(263,-10,cs)
);
},
{
closed = 1;
nodes = (
(437,39,o),
(500,205,o),
(499,354,cs),
(498,482,o),
(415,520,o),
(338,520,cs),
(167,520,o),
(97,338,o),
(103,190,cs),
(109,71,o),
(191,37,o),
(267,37,cs)
);
},
{
closed = 1;
nodes = (
(276,662,o),
(292,681,o),
(313,681,cs),
(329,681,o),
(344,669,o),
(344,653,cs),
(344,632,o),
(327,614,o),
(306,614,cs),
(290,614,o),
(276,626,o),
(276,642,cs)
);
},
{
closed = 1;
nodes = (
(388,662,o),
(405,681,o),
(425,681,cs),
(441,681,o),
(456,669,o),
(456,653,cs),
(456,632,o),
(439,614,o),
(418,614,cs),
(402,614,o),
(388,626,o),
(388,642,cs)
);
}
);
width = 597;
}
);
note = Odieresis;
unicode = 214;
},
{
glyphname = multiply;
layers = (
{
layerId = m01;
shapes = (
{
closed = 1;
nodes = (
(50,388,ls),
(47,391,o),
(46,393,o),
(49,396,cs),
(68,414,o),
(85,413,o),
(107,389,cs),
(194,304,l),
(303,414,ls),
(306,417,o),
(308,417,o),
(311,414,cs),
(333,392,ls),
(336,389,o),
(336,387,o),
(333,384,cs),
(224,275,l),
(337,160,ls),
(340,157,o),
(341,155,o),
(338,152,cs),
(319,133,o),
(302,135,o),
(279,158,cs),
(194,245,l),
(84,134,ls),
(81,131,o),
(79,131,o),
(76,134,cs),
(54,156,ls),
(51,159,o),
(51,161,o),
(54,164,cs),
(164,275,l)
);
}
);
width = 384;
}
);
note = multiply;
unicode = 215;
},
{
glyphname = Oslash;
kernLeft = O;
kernRight = O;
layers = (
{
layerId = m01;
shapes = (
{
closed = 1;
nodes = (
(134,-10,o),
(53,74,o),
(52,204,cs),
(52,380,o),
(146,567,o),
(342,567,cs),
(469,567,o),
(549,481,o),
(550,351,cs),
(550,173,o),
(462,-10,o),
(263,-10,cs)
);
},
{
closed = 1;
nodes = (
(414,511,o),
(376,519,o),
(338,520,cs),
(167,520,o),
(97,338,o),
(103,190,cs),
(106,158,o),
(112,127,o),
(130,100,c),
(445,487,l)
);
},
{
closed = 1;
nodes = (
(190,45,o),
(228,38,o),
(267,37,cs),
(437,39,o),
(500,205,o),
(499,354,cs),
(498,390,o),
(492,425,o),
(472,457,c),
(158,69,l)
);
}
);
width = 597;
}
);
note = Oslash;
unicode = 216;
},
{
glyphname = Ugrave;
kernLeft = U;
kernRight = U;
layers = (
{
layerId = m01;
shapes = (
{
closed = 1;
nodes = (
(412,61,o),
(340,-10,o),
(214,-10,cs),
(113,-10,o),
(52,46,o),
(53,149,cs),
(53,168,o),
(55,188,o),
(59,208,cs),
(119,549,ls),
(120,554,o),
(122,556,o),
(125,556,cs),
(130,556,ls),
(150,556,o),
(163,540,o),
(163,517,cs),
(163,512,o),
(163,508,o),
(162,504,cs),
(109,201,ls),
(105,182,o),
(104,162,o),
(104,145,cs),
(104,72,o),
(147,37,o),
(222,37,cs),
(314,37,o),
(369,96,o),
(387,202,cs),
(448,549,ls),
(449,554,o),
(451,556,o),
(454,556,cs),
(458,556,ls),
(478,556,o),
(491,541,o),
(491,517,cs),
(491,513,o),
(491,508,o),
(490,504,cs),
(433,184,ls)
);
},
{
closed = 1;
nodes = (
(370,624,o),
(370,624,o),
(370,623,cs),
(370,621,o),
(368,619,o),
(365,619,cs),
(333,619,ls),
(324,619,o),
(318,622,o),
(310,629,cs),
(248,685,l),
(248,685,o),
(248,686,o),
(248,687,cs),
(248,689,o),
(250,691,o),
(252,691,cs),
(297,691,ls),
(306,691,o),
(309,689,o),
(316,682,cs),
(369,625,ls)
);
}
);
width = 516;
}
);
note = Ugrave;
unicode = 217;
},
{
glyphname = Uacute;
kernLeft = U;
kernRight = U;
layers = (
{
layerId = m01;
shapes = (
{
closed = 1;
nodes = (
(412,61,o),
(340,-10,o),
(214,-10,cs),
(113,-10,o),
(52,46,o),
(53,149,cs),
(53,168,o),
(55,188,o),
(59,208,cs),
(119,549,ls),
(120,554,o),
(122,556,o),
(125,556,cs),
(130,556,ls),
(150,556,o),
(163,540,o),
(163,517,cs),
(163,512,o),
(163,508,o),
(162,504,cs),
(109,201,ls),
(105,182,o),
(104,162,o),
(104,145,cs),
(104,72,o),
(147,37,o),
(222,37,cs),
(314,37,o),
(369,96,o),
(387,202,cs),
(448,549,ls),
(449,554,o),
(451,556,o),
(454,556,cs),
(458,556,ls),
(478,556,o),
(491,541,o),
(491,517,cs),
(491,513,o),
(491,508,o),
(490,504,cs),
(433,184,ls)
);
},
{
closed = 1;
nodes = (
(324,682,ls),
(333,689,o),
(337,691,o),
(347,691,cs),
(400,691,ls),
(402,691,o),
(404,689,o),
(404,688,cs),
(404,687,o),
(403,685,o),
(402,685,c),
(321,629,ls),
(311,622,o),
(303,619,o),
(294,619,cs),
(258,619,ls),
(255,619,o),
(254,621,o),
(254,622,cs),
(254,623,o),
(254,624,o),
(256,625,c)
);
}
);
width = 516;
}
);
note = Uacute;
unicode = 218;
},
{
glyphname = Ucircumflex;
kernLeft = U;
kernRight = U;
layers = (
{
layerId = m01;
shapes = (
{
closed = 1;
nodes = (
(412,61,o),
(340,-10,o),
(214,-10,cs),
(113,-10,o),
(52,46,o),
(53,149,cs),
(53,168,o),
(55,188,o),
(59,208,cs),
(119,549,ls),
(120,554,o),
(122,556,o),
(125,556,cs),
(130,556,ls),
(150,556,o),
(163,540,o),
(163,517,cs),
(163,512,o),
(163,508,o),
(162,504,cs),
(109,201,ls),
(105,182,o),
(104,162,o),
(104,145,cs),
(104,72,o),
(147,37,o),
(222,37,cs),
(314,37,o),
(369,96,o),
(387,202,cs),
(448,549,ls),
(449,554,o),
(451,556,o),
(454,556,cs),
(458,556,ls),
(478,556,o),
(491,541,o),
(491,517,cs),
(491,513,o),
(491,508,o),
(490,504,cs),
(433,184,ls)
);
},
{
closed = 1;
nodes = (
(289,629,ls),
(280,622,o),
(274,619,o),
(263,619,cs),
(227,619,ls),
(225,619,o),
(223,621,o),
(223,622,cs),
(223,623,o),
(224,624,o),
(225,625,cs),
(297,682,ls),
(306,689,o),
(311,691,o),
(320,691,cs),
(349,691,ls),
(359,691,o),
(360,690,o),
(368,682,cs),
(421,625,ls),
(422,624,o),
(422,624,o),
(422,623,cs),
(422,621,o),
(420,619,o),
(417,619,cs),
(387,619,ls),
(376,619,o),
(370,622,o),
(364,629,cs),
(333,664,l)
);
}
);
width = 516;
}
);
note = Ucircumflex;
unicode = 219;
},
{
glyphname = Udieresis;
kernLeft = U;
kernRight = U;
layers = (
{
layerId = m01;
shapes = (
{
closed = 1;
nodes = (
(412,61,o),
(340,-10,o),
(214,-10,cs),
(113,-10,o),
(52,46,o),
(53,149,cs),
(53,168,o),
(55,188,o),
(59,208,cs),
(119,549,ls),
(120,554,o),
(122,556,o),
(125,556,cs),
(130,556,ls),
(150,556,o),
(163,540,o),
(163,517,cs),
(163,512,o),
(163,508,o),
(162,504,cs),
(109,201,ls),
(105,182,o),
(104,162,o),
(104,145,cs),
(104,72,o),
(147,37,o),
(222,37,cs),
(314,37,o),
(369,96,o),
(387,202,cs),
(448,549,ls),
(449,554,o),
(451,556,o),
(454,556,cs),
(458,556,ls),
(478,556,o),
(491,541,o),
(491,517,cs),
(491,513,o),
(491,508,o),
(490,504,cs),
(433,184,ls)
);
},
{
closed = 1;
nodes = (
(236,662,o),
(252,681,o),
(273,681,cs),
(289,681,o),
(303,669,o),
(303,653,cs),
(303,632,o),
(287,614,o),
(265,614,cs),
(250,614,o),
(236,626,o),
(236,642,cs)
);
},
{
closed = 1;
nodes = (
(348,662,o),
(364,681,o),
(385,681,cs),
(401,681,o),
(416,669,o),
(416,653,cs),
(416,632,o),
(399,614,o),
(378,614,cs),
(362,614,o),
(348,626,o),
(348,642,cs)
);
}
);
width = 516;
}
);
note = Udieresis;
unicode = 220;
},
{
glyphname = Yacute;
kernLeft = Y;
kernRight = Y;
layers = (
{
layerId = m01;
shapes = (
{
closed = 1;
nodes = (
(57,548,l),
(56,549,o),
(56,551,o),
(56,551,c),
(56,554,o),
(59,556,o),
(62,556,cs),
(74,556,ls),
(98,556,o),
(111,544,o),
(123,513,cs),
(212,274,l),
(407,543,ls),
(414,554,o),
(416,556,o),
(426,556,cs),
(462,556,ls),
(467,556,o),
(469,554,o),
(469,552,cs),
(469,551,o),
(468,548,o),
(467,547,cs),
(229,219,l),
(192,6,ls),
(191,2,o),
(189,0,o),
(186,0,cs),
(146,0,ls),
(143,0,o),
(142,1,o),
(142,3,cs),
(142,4,o),
(142,5,o),
(142,6,cs),
(180,219,l)
);
},
{
closed = 1;
nodes = (
(284,682,ls),
(293,689,o),
(298,691,o),
(307,691,cs),
(360,691,ls),
(362,691,o),
(364,689,o),
(364,688,cs),
(364,687,o),
(363,685,o),
(362,685,c),
(281,629,ls),
(271,622,o),
(263,619,o),
(254,619,cs),
(218,619,ls),
(216,619,o),
(214,621,o),
(214,622,cs),
(214,623,o),
(214,624,o),
(216,625,c)
);
}
);
width = 422;
}
);
note = Yacute;
unicode = 221;
},
{
glyphname = Thorn;
layers = (
{
layerId = m01;
shapes = (
{
closed = 1;
nodes = (
(295,451,ls),
(396,451,o),
(455,388,o),
(455,303,cs),
(455,182,o),
(360,110,o),
(242,110,cs),
(96,110,l),
(85,52,l),
(77,6,ls),
(76,2,o),
(75,0,o),
(71,0,cs),
(31,0,ls),
(28,0,o),
(27,1,o),
(27,4,cs),
(27,5,o),
(27,5,o),
(27,6,cs),
(123,549,ls),
(124,554,o),
(126,556,o),
(129,556,cs),
(134,556,ls),
(154,556,o),
(166,541,o),
(166,517,cs),
(166,513,o),
(166,508,o),
(165,503,cs),
(156,451,l)
);
},
{
closed = 1;
nodes = (
(248,157,ls),
(339,157,o),
(402,212,o),
(402,302,cs),
(402,363,o),
(362,403,o),
(295,403,cs),
(147,403,l),
(104,157,l)
);
}
);
width = 484;
}
);
note = Thorn;
unicode = 222;
},
{
glyphname = germandbls;
layers = (
{
layerId = m01;
shapes = (
{
closed = 1;
nodes = (
(105,521,o),
(169,567,o),
(263,567,cs),
(333,567,o),
(381,527,o),
(381,467,cs),
(381,429,o),
(361,404,o),
(306,352,cs),
(271,319,o),
(261,303,o),
(261,285,cs),
(261,262,o),
(274,243,o),
(309,217,cs),
(359,180,o),
(378,152,o),
(378,116,cs),
(378,46,o),
(321,-10,o),
(243,-10,cs),
(171,-10,o),
(130,25,o),
(130,67,cs),
(130,81,o),
(135,90,o),
(143,90,cs),
(147,90,o),
(148,89,o),
(157,75,cs),
(173,51,o),
(201,37,o),
(237,37,cs),
(290,37,o),
(326,67,o),
(326,110,cs),
(326,138,o),
(313,157,o),
(274,188,cs),
(230,222,o),
(212,248,o),
(212,278,cs),
(212,307,o),
(229,333,o),
(274,375,cs),
(315,414,o),
(329,436,o),
(329,461,cs),
(329,497,o),
(300,519,o),
(252,519,cs),
(192,519,o),
(147,477,o),
(135,409,cs),
(64,6,l),
(64,2,o),
(62,0,o),
(58,0,cs),
(18,0,ls),
(15,0,o),
(14,1,o),
(14,4,cs),
(14,5,o),
(14,5,o),
(14,6,cs),
(87,418,ls)
);
}
);
width = 439;
}
);
note = germandbls;
unicode = 223;
},
{
glyphname = agrave;
kernLeft = a;
kernRight = a;
layers = (
{
layerId = m01;
shapes = (
{
closed = 1;
nodes = (
(271,12,o),
(226,-9,o),
(168,-9,cs),
(72,-9,o),
(25,56,o),
(25,154,cs),
(25,279,o),
(101,367,o),
(221,367,cs),
(275,367,o),
(319,349,o),
(351,304,c),
(358,341,o),
(375,360,o),
(401,360,cs),
(406,360,ls),
(409,360,o),
(410,359,o),
(410,357,cs),
(410,356,o),
(410,355,o),
(410,354,cs),
(349,6,ls),
(348,1,o),
(347,0,o),
(343,0,cs),
(302,0,ls),
(299,0,o),
(298,1,o),
(298,4,cs),
(298,5,o),
(298,5,o),
(298,6,cs),
(307,57,l)
);
},
{
closed = 1;
nodes = (
(268,38,o),
(332,112,o),
(332,217,cs),
(332,283,o),
(288,320,o),
(222,320,cs),
(131,320,o),
(76,248,o),
(76,150,cs),
(76,84,o),
(113,38,o),
(175,38,cs)
);
},
{
closed = 1;
nodes = (
(306,435,o),
(306,435,o),
(306,435,c),
(306,432,o),
(304,431,o),
(301,431,cs),
(269,431,ls),
(260,431,o),
(254,433,o),
(246,440,cs),
(184,496,l),
(184,497,o),
(184,497,o),
(184,498,cs),
(184,500,o),
(186,502,o),
(188,502,cs),
(233,502,ls),
(242,502,o),
(245,500,o),
(252,493,cs),
(305,436,ls)
);
}
);
width = 454;
}
);
note = agrave;
unicode = 224;
},
{
glyphname = aacute;
kernLeft = a;
kernRight = a;
layers = (
{
layerId = m01;
shapes = (
{
closed = 1;
nodes = (
(271,12,o),
(226,-9,o),
(168,-9,cs),
(72,-9,o),
(25,56,o),
(25,154,cs),
(25,279,o),
(101,367,o),
(221,367,cs),
(275,367,o),
(319,349,o),
(351,304,c),
(358,341,o),
(375,360,o),
(401,360,cs),
(406,360,ls),
(409,360,o),
(410,359,o),
(410,357,cs),
(410,356,o),
(410,355,o),
(410,354,cs),
(349,6,ls),
(348,1,o),
(347,0,o),
(343,0,cs),
(302,0,ls),
(299,0,o),
(298,1,o),
(298,4,cs),
(298,5,o),
(298,5,o),
(298,6,cs),
(307,57,l)
);
},
{
closed = 1;
nodes = (
(268,38,o),
(332,112,o),
(332,217,cs),
(332,283,o),
(288,320,o),
(222,320,cs),
(131,320,o),
(76,248,o),
(76,150,cs),
(76,84,o),
(113,38,o),
(175,38,cs)
);
},
{
closed = 1;
nodes = (
(250,493,ls),
(259,500,o),
(263,502,o),
(273,502,cs),
(326,502,ls),
(328,502,o),
(330,501,o),
(330,499,cs),
(330,498,o),
(329,497,o),
(328,496,cs),
(247,440,ls),
(237,433,o),
(229,431,o),
(220,431,cs),
(184,431,ls),
(181,431,o),
(180,432,o),
(180,433,cs),
(180,435,o),
(180,435,o),
(182,436,c)
);
}
);
width = 454;
}
);
note = aacute;
unicode = 225;
},
{
glyphname = acircumflex;
kernLeft = a;
kernRight = a;
layers = (
{
layerId = m01;
shapes = (
{
closed = 1;
nodes = (
(271,12,o),
(226,-9,o),
(168,-9,cs),
(72,-9,o),
(25,56,o),
(25,154,cs),
(25,279,o),
(101,367,o),
(221,367,cs),
(275,367,o),
(319,349,o),
(351,304,c),
(358,341,o),
(375,360,o),
(401,360,cs),
(406,360,ls),
(409,360,o),
(410,359,o),
(410,357,cs),
(410,356,o),
(410,355,o),
(410,354,cs),
(349,6,ls),
(348,1,o),
(347,0,o),
(343,0,cs),
(302,0,ls),
(299,0,o),
(298,1,o),
(298,4,cs),
(298,5,o),
(298,5,o),
(298,6,cs),
(307,57,l)
);
},
{
closed = 1;
nodes = (
(268,38,o),
(332,112,o),
(332,217,cs),
(332,283,o),
(288,320,o),
(222,320,cs),
(131,320,o),
(76,248,o),
(76,150,cs),
(76,84,o),
(113,38,o),
(175,38,cs)
);
},
{
closed = 1;
nodes = (
(218,440,ls),
(209,433,o),
(203,431,o),
(192,431,cs),
(156,431,ls),
(154,431,o),
(152,432,o),
(152,433,cs),
(152,435,o),
(153,435,o),
(154,436,cs),
(226,493,ls),
(235,500,o),
(240,502,o),
(249,502,cs),
(278,502,ls),
(287,502,o),
(289,501,o),
(297,493,cs),
(349,436,ls),
(350,435,o),
(350,435,o),
(350,435,c),
(350,432,o),
(348,431,o),
(346,431,cs),
(316,431,ls),
(305,431,o),
(299,433,o),
(293,440,cs),
(262,475,l)
);
}
);
width = 454;
}
);
note = acircumflex;
unicode = 226;
},
{
glyphname = atilde;
kernLeft = a;
kernRight = a;
layers = (
{
layerId = m01;
shapes = (
{
closed = 1;
nodes = (
(271,12,o),
(226,-9,o),
(168,-9,cs),
(72,-9,o),
(25,56,o),
(25,154,cs),
(25,279,o),
(101,367,o),
(221,367,cs),
(275,367,o),
(319,349,o),
(351,304,c),
(358,341,o),
(375,360,o),
(401,360,cs),
(406,360,ls),
(409,360,o),
(410,359,o),
(410,357,cs),
(410,356,o),
(410,355,o),
(410,354,cs),
(349,6,ls),
(348,1,o),
(347,0,o),
(343,0,cs),
(302,0,ls),
(299,0,o),
(298,1,o),
(298,4,cs),
(298,5,o),
(298,5,o),
(298,6,cs),
(307,57,l)
);
},
{
closed = 1;
nodes = (
(268,38,o),
(332,112,o),
(332,217,cs),
(332,283,o),
(288,320,o),
(222,320,cs),
(131,320,o),
(76,248,o),
(76,150,cs),
(76,84,o),
(113,38,o),
(175,38,cs)
);
},
{
closed = 1;
nodes = (
(156,431,o),
(154,432,o),
(154,434,cs),
(154,463,o),
(183,495,o),
(211,495,cs),
(224,495,o),
(241,491,o),
(264,480,cs),
(282,471,o),
(289,468,o),
(297,468,cs),
(307,468,o),
(314,473,o),
(320,485,cs),
(322,489,o),
(325,491,o),
(329,491,cs),
(356,491,ls),
(359,491,o),
(361,490,o),
(361,487,cs),
(363,460,o),
(331,428,o),
(298,428,cs),
(284,428,o),
(269,432,o),
(247,443,cs),
(228,453,o),
(222,455,o),
(214,455,cs),
(205,455,o),
(199,450,o),
(195,438,cs),
(193,432,o),
(191,431,o),
(186,431,cs),
(160,431,ls)
);
}
);
width = 454;
}
);
note = atilde;
unicode = 227;
},
{
glyphname = adieresis;
kernLeft = a;
kernRight = a;
layers = (
{
layerId = m01;
shapes = (
{
closed = 1;
nodes = (
(271,12,o),
(226,-9,o),
(168,-9,cs),
(72,-9,o),
(25,56,o),
(25,154,cs),
(25,279,o),
(101,367,o),
(221,367,cs),
(275,367,o),
(319,349,o),
(351,304,c),
(358,341,o),
(375,360,o),
(401,360,cs),
(406,360,ls),
(409,360,o),
(410,359,o),
(410,357,cs),
(410,356,o),
(410,355,o),
(410,354,cs),
(349,6,ls),
(348,1,o),
(347,0,o),
(343,0,cs),
(302,0,ls),
(299,0,o),
(298,1,o),
(298,4,cs),
(298,5,o),
(298,5,o),
(298,6,cs),
(307,57,l)
);
},
{
closed = 1;
nodes = (
(268,38,o),
(332,112,o),
(332,217,cs),
(332,283,o),
(288,320,o),
(222,320,cs),
(131,320,o),
(76,248,o),
(76,150,cs),
(76,84,o),
(113,38,o),
(175,38,cs)
);
},
{
closed = 1;
nodes = (
(159,473,o),
(175,492,o),
(196,492,cs),
(212,492,o),
(227,480,o),
(227,464,cs),
(226,443,o),
(210,426,o),
(188,426,cs),
(173,426,o),
(159,437,o),
(159,453,cs)
);
},
{
closed = 1;
nodes = (
(271,473,o),
(287,492,o),
(308,492,cs),
(324,492,o),
(339,480,o),
(339,464,cs),
(339,443,o),
(322,426,o),
(301,426,cs),
(285,426,o),
(271,437,o),
(271,453,cs)
);
}
);
width = 454;
}
);
note = adieresis;
unicode = 228;
},
{
glyphname = aring;
kernLeft = a;
kernRight = a;
layers = (
{
layerId = m01;
shapes = (
{
closed = 1;
nodes = (
(271,12,o),
(226,-9,o),
(168,-9,cs),
(72,-9,o),
(25,56,o),
(25,154,cs),
(25,279,o),
(101,367,o),
(221,367,cs),
(275,367,o),
(319,349,o),
(351,304,c),
(358,341,o),
(375,360,o),
(401,360,cs),
(406,360,ls),
(409,360,o),
(410,359,o),
(410,357,cs),
(410,356,o),
(410,355,o),
(410,354,cs),
(349,6,ls),
(348,1,o),
(347,0,o),
(343,0,cs),
(302,0,ls),
(299,0,o),
(298,1,o),
(298,4,cs),
(298,5,o),
(298,5,o),
(298,6,cs),
(307,57,l)
);
},
{
closed = 1;
nodes = (
(268,38,o),
(332,112,o),
(332,217,cs),
(332,283,o),
(288,320,o),
(222,320,cs),
(131,320,o),
(76,248,o),
(76,150,cs),
(76,84,o),
(113,38,o),
(175,38,cs)
);
},
{
closed = 1;
nodes = (
(190,517,o),
(225,548,o),
(265,548,cs),
(296,548,o),
(322,522,o),
(322,491,cs),
(322,452,o),
(287,421,o),
(247,421,cs),
(216,421,o),
(190,448,o),
(190,478,cs)
);
},
{
closed = 1;
nodes = (
(271,450,o),
(289,469,o),
(289,492,cs),
(289,509,o),
(279,519,o),
(262,519,cs),
(241,519,o),
(223,499,o),
(223,477,cs),
(223,461,o),
(233,450,o),
(250,450,cs)
);
}
);
width = 454;
}
);
note = aring;
unicode = 229;
},
{
glyphname = ae;
kernLeft = a;
kernRight = e;
layers = (
{
layerId = m01;
shapes = (
{
closed = 1;
nodes = (
(431,350,o),
(480,365,o),
(524,367,cs),
(606,367,o),
(660,313,o),
(660,241,cs),
(660,222,o),
(656,192,o),
(652,176,cs),
(648,163,o),
(645,160,o),
(635,160,cs),
(379,160,l),
(377,150,o),
(377,141,o),
(378,134,cs),
(383,73,o),
(424,37,o),
(489,37,cs),
(536,37,o),
(583,55,o),
(612,85,cs),
(617,90,o),
(621,92,o),
(624,92,cs),
(628,92,o),
(630,89,o),
(630,83,cs),
(630,36,o),
(580,-9,o),
(477,-9,cs),
(426,-7,o),
(383,11,o),
(358,58,c),
(349,6,ls),
(348,1,o),
(347,0,o),
(343,0,cs),
(302,0,ls),
(299,0,o),
(298,1,o),
(298,4,cs),
(298,5,o),
(298,5,o),
(298,6,cs),
(307,57,l),
(271,12,o),
(226,-9,o),
(168,-9,cs),
(72,-9,o),
(25,56,o),
(25,154,cs),
(25,279,o),
(101,367,o),
(221,367,cs),
(275,367,o),
(320,351,o),
(352,305,c),
(360,343,o),
(375,360,o),
(401,360,cs),
(406,360,ls),
(409,360,o),
(410,359,o),
(410,357,cs),
(410,356,o),
(410,355,o),
(410,354,cs),
(403,313,l)
);
},
{
closed = 1;
nodes = (
(268,38,o),
(332,112,o),
(332,217,cs),
(332,283,o),
(288,320,o),
(222,320,cs),
(131,320,o),
(76,248,o),
(76,150,cs),
(76,84,o),
(113,38,o),
(175,38,cs)
);
},
{
closed = 1;
nodes = (
(606,203,l),
(609,220,o),
(610,229,o),
(610,238,cs),
(610,287,o),
(580,321,o),
(520,321,cs),
(457,321,o),
(412,281,o),
(386,203,c)
);
}
);
width = 712;
}
);
note = ae;
unicode = 230;
},
{
glyphname = ccedilla;
kernLeft = c;
kernRight = c;
layers = (
{
layerId = m01;
shapes = (
{
closed = 1;
nodes = (
(106,-1,o),
(75,16,o),
(54,43,cs),
(33,71,o),
(25,103,o),
(24,137,cs),
(24,263,o),
(84,367,o),
(232,367,cs),
(289,367,o),
(339,349,o),
(339,326,cs),
(339,322,o),
(338,318,o),
(336,313,cs),
(329,298,ls),
(327,293,o),
(326,292,o),
(323,292,cs),
(322,292,o),
(320,292,o),
(318,294,c),
(290,311,o),
(263,320,o),
(230,320,cs),
(122,320,o),
(76,236,o),
(76,141,cs),
(76,80,o),
(113,37,o),
(182,37,cs),
(221,37,o),
(258,53,o),
(287,82,cs),
(292,87,o),
(295,89,o),
(299,89,cs),
(303,89,o),
(306,85,o),
(306,79,cs),
(302,22,o),
(234,-6,o),
(185,-9,c),
(138,-77,ls),
(133,-84,o),
(129,-86,o),
(116,-86,cs),
(83,-86,ls),
(80,-86,o),
(79,-85,o),
(79,-84,cs),
(79,-82,o),
(80,-81,o),
(81,-80,cs),
(139,-7,l)
);
}
);
width = 362;
}
);
note = ccedilla;
unicode = 231;
},
{
glyphname = egrave;
kernLeft = e;
kernRight = e;
layers = (
{
layerId = m01;
shapes = (
{
closed = 1;
nodes = (
(75,150,o),
(75,141,o),
(75,134,cs),
(80,73,o),
(122,37,o),
(186,37,cs),
(234,37,o),
(280,55,o),
(310,85,cs),
(314,90,o),
(319,92,o),
(322,92,cs),
(325,92,o),
(328,89,o),
(328,83,cs),
(328,36,o),
(277,-9,o),
(174,-9,cs),
(86,-9,o),
(25,54,o),
(25,134,cs),
(25,270,o),
(96,367,o),
(222,367,cs),
(303,367,o),
(357,313,o),
(357,241,cs),
(357,222,o),
(354,192,o),
(349,176,cs),
(346,163,o),
(343,160,o),
(332,160,cs),
(76,160,l)
);
},
{
closed = 1;
nodes = (
(303,203,l),
(306,220,o),
(307,229,o),
(307,238,cs),
(307,287,o),
(277,321,o),
(217,321,cs),
(155,321,o),
(106,281,o),
(84,203,c)
);
},
{
closed = 1;
nodes = (
(298,435,o),
(299,435,o),
(299,435,c),
(299,432,o),
(297,431,o),
(294,431,cs),
(262,431,ls),
(253,431,o),
(246,433,o),
(239,440,cs),
(177,496,l),
(177,497,o),
(176,497,o),
(176,498,cs),
(176,500,o),
(178,502,o),
(181,502,cs),
(226,502,ls),
(235,502,o),
(238,500,o),
(245,493,cs),
(298,436,l)
);
}
);
width = 406;
}
);
note = egrave;
unicode = 232;
},
{
glyphname = eacute;
kernLeft = e;
kernRight = e;
layers = (
{
layerId = m01;
shapes = (
{
closed = 1;
nodes = (
(75,150,o),
(75,141,o),
(75,134,cs),
(80,73,o),
(122,37,o),
(186,37,cs),
(234,37,o),
(280,55,o),
(310,85,cs),
(314,90,o),
(319,92,o),
(322,92,cs),
(325,92,o),
(328,89,o),
(328,83,cs),
(328,36,o),
(277,-9,o),
(174,-9,cs),
(86,-9,o),
(25,54,o),
(25,134,cs),
(25,270,o),
(96,367,o),
(222,367,cs),
(303,367,o),
(357,313,o),
(357,241,cs),
(357,222,o),
(354,192,o),
(349,176,cs),
(346,163,o),
(343,160,o),
(332,160,cs),
(76,160,l)
);
},
{
closed = 1;
nodes = (
(303,203,l),
(306,220,o),
(307,229,o),
(307,238,cs),
(307,287,o),
(277,321,o),
(217,321,cs),
(155,321,o),
(106,281,o),
(84,203,c)
);
},
{
closed = 1;
nodes = (
(240,493,ls),
(249,500,o),
(253,502,o),
(262,502,cs),
(316,502,ls),
(318,502,o),
(320,501,o),
(320,499,cs),
(320,498,o),
(319,497,o),
(318,496,cs),
(237,440,ls),
(227,433,o),
(219,431,o),
(210,431,cs),
(173,431,ls),
(171,431,o),
(169,432,o),
(169,433,cs),
(169,435,o),
(170,435,o),
(171,436,cs)
);
}
);
width = 406;
}
);
note = eacute;
unicode = 233;
},
{
glyphname = ecircumflex;
kernLeft = e;
kernRight = e;
layers = (
{
layerId = m01;
shapes = (
{
closed = 1;
nodes = (
(75,150,o),
(75,141,o),
(75,134,cs),
(80,73,o),
(122,37,o),
(186,37,cs),
(234,37,o),
(280,55,o),
(310,85,cs),
(314,90,o),
(319,92,o),
(322,92,cs),
(325,92,o),
(328,89,o),
(328,83,cs),
(328,36,o),
(277,-9,o),
(174,-9,cs),
(86,-9,o),
(25,54,o),
(25,134,cs),
(25,270,o),
(96,367,o),
(222,367,cs),
(303,367,o),
(357,313,o),
(357,241,cs),
(357,222,o),
(354,192,o),
(349,176,cs),
(346,163,o),
(343,160,o),
(332,160,cs),
(76,160,l)
);
},
{
closed = 1;
nodes = (
(303,203,l),
(306,220,o),
(307,229,o),
(307,238,cs),
(307,287,o),
(277,321,o),
(217,321,cs),
(155,321,o),
(106,281,o),
(84,203,c)
);
},
{
closed = 1;
nodes = (
(207,440,ls),
(198,433,o),
(191,431,o),
(180,431,cs),
(144,431,ls),
(142,431,o),
(140,432,o),
(140,433,cs),
(140,435,o),
(141,435,o),
(142,436,cs),
(215,493,ls),
(224,500,o),
(228,502,o),
(237,502,cs),
(266,502,ls),
(276,502,o),
(278,501,o),
(285,493,cs),
(338,436,ls),
(339,435,o),
(339,435,o),
(339,435,c),
(339,432,o),
(337,431,o),
(334,431,cs),
(304,431,ls),
(294,431,o),
(287,433,o),
(281,440,cs),
(251,475,l)
);
}
);
width = 406;
}
);
note = ecircumflex;
unicode = 234;
},
{
glyphname = edieresis;
kernLeft = e;
kernRight = e;
layers = (
{
layerId = m01;
shapes = (
{
closed = 1;
nodes = (
(75,150,o),
(75,141,o),
(75,134,cs),
(80,73,o),
(122,37,o),
(186,37,cs),
(234,37,o),
(280,55,o),
(310,85,cs),
(314,90,o),
(319,92,o),
(322,92,cs),
(325,92,o),
(328,89,o),
(328,83,cs),
(328,36,o),
(277,-9,o),
(174,-9,cs),
(86,-9,o),
(25,54,o),
(25,134,cs),
(25,270,o),
(96,367,o),
(222,367,cs),
(303,367,o),
(357,313,o),
(357,241,cs),
(357,222,o),
(354,192,o),
(349,176,cs),
(346,163,o),
(343,160,o),
(332,160,cs),
(76,160,l)
);
},
{
closed = 1;
nodes = (
(303,203,l),
(306,220,o),
(307,229,o),
(307,238,cs),
(307,287,o),
(277,321,o),
(217,321,cs),
(155,321,o),
(106,281,o),
(84,203,c)
);
},
{
closed = 1;
nodes = (
(151,473,o),
(168,492,o),
(189,492,cs),
(205,492,o),
(219,480,o),
(219,464,cs),
(219,443,o),
(203,426,o),
(181,426,cs),
(166,426,o),
(152,437,o),
(151,453,cs)
);
},
{
closed = 1;
nodes = (
(264,473,o),
(280,492,o),
(301,492,cs),
(317,492,o),
(331,480,o),
(331,464,cs),
(331,443,o),
(315,426,o),
(293,426,cs),
(278,426,o),
(264,437,o),
(264,453,cs)
);
}
);
width = 406;
}
);
note = edieresis;
unicode = 235;
},
{
glyphname = igrave;
kernLeft = i;
kernRight = i;
layers = (
{
layerId = m01;
shapes = (
{
closed = 1;
nodes = (
(15,0,o),
(14,1,o),
(14,4,cs),
(14,5,o),
(14,5,o),
(14,6,cs),
(76,354,l),
(76,358,o),
(78,360,o),
(82,360,cs),
(85,360,ls),
(105,360,o),
(118,345,o),
(118,322,cs),
(118,317,o),
(118,313,o),
(117,308,cs),
(64,6,ls),
(63,1,o),
(61,0,o),
(58,0,cs),
(18,0,ls)
);
},
{
closed = 1;
nodes = (
(183,435,o),
(183,435,o),
(183,435,c),
(183,432,o),
(181,431,o),
(178,431,cs),
(146,431,ls),
(137,431,o),
(131,433,o),
(123,440,cs),
(61,496,l),
(61,497,o),
(61,497,o),
(61,498,cs),
(61,500,o),
(63,502,o),
(65,502,cs),
(110,502,ls),
(119,502,o),
(122,500,o),
(129,493,cs),
(182,436,ls)
);
}
);
width = 170;
}
);
note = igrave;
unicode = 236;
},
{
glyphname = iacute;
kernLeft = i;
kernRight = i;
layers = (
{
layerId = m01;
shapes = (
{
closed = 1;
nodes = (
(15,0,o),
(14,1,o),
(14,4,cs),
(14,5,o),
(14,5,o),
(14,6,cs),
(76,354,l),
(76,358,o),
(78,360,o),
(82,360,cs),
(85,360,ls),
(105,360,o),
(118,345,o),
(118,322,cs),
(118,317,o),
(118,313,o),
(117,308,cs),
(64,6,ls),
(63,1,o),
(61,0,o),
(58,0,cs),
(18,0,ls)
);
},
{
closed = 1;
nodes = (
(117,493,ls),
(126,500,o),
(131,502,o),
(140,502,cs),
(193,502,ls),
(196,502,o),
(197,501,o),
(197,499,cs),
(197,498,o),
(196,497,o),
(196,496,c),
(114,440,ls),
(104,433,o),
(97,431,o),
(88,431,cs),
(51,431,ls),
(49,431,o),
(47,432,o),
(47,433,cs),
(47,435,o),
(48,435,o),
(49,436,cs)
);
}
);
width = 170;
}
);
note = iacute;
unicode = 237;
},
{
glyphname = icircumflex;
kernLeft = i;
kernRight = i;
layers = (
{
layerId = m01;
shapes = (
{
closed = 1;
nodes = (
(15,0,o),
(14,1,o),
(14,4,cs),
(14,5,o),
(14,5,o),
(14,6,cs),
(76,354,l),
(76,358,o),
(78,360,o),
(82,360,cs),
(85,360,ls),
(105,360,o),
(118,345,o),
(118,322,cs),
(118,317,o),
(118,313,o),
(117,308,cs),
(64,6,ls),
(63,1,o),
(61,0,o),
(58,0,cs),
(18,0,ls)
);
},
{
closed = 1;
nodes = (
(81,440,ls),
(72,433,o),
(66,431,o),
(55,431,cs),
(19,431,ls),
(17,431,o),
(15,432,o),
(15,433,cs),
(15,435,o),
(16,435,o),
(17,436,cs),
(89,493,ls),
(98,500,o),
(103,502,o),
(112,502,cs),
(141,502,ls),
(150,502,o),
(152,501,o),
(160,493,cs),
(212,436,ls),
(213,435,o),
(214,435,o),
(214,435,c),
(214,432,o),
(212,431,o),
(209,431,cs),
(179,431,ls),
(168,431,o),
(162,433,o),
(156,440,cs),
(125,475,l)
);
}
);
width = 170;
}
);
note = icircumflex;
unicode = 238;
},
{
glyphname = idieresis;
kernLeft = i;
kernRight = i;
layers = (
{
layerId = m01;
shapes = (
{
closed = 1;
nodes = (
(15,0,o),
(14,1,o),
(14,4,cs),
(14,5,o),
(14,5,o),
(14,6,cs),
(76,354,l),
(76,358,o),
(78,360,o),
(82,360,cs),
(85,360,ls),
(105,360,o),
(118,345,o),
(118,322,cs),
(118,317,o),
(118,313,o),
(117,308,cs),
(64,6,ls),
(63,1,o),
(61,0,o),
(58,0,cs),
(18,0,ls)
);
},
{
closed = 1;
nodes = (
(29,473,o),
(45,492,o),
(66,492,cs),
(82,492,o),
(97,480,o),
(97,464,cs),
(97,443,o),
(80,426,o),
(59,426,cs),
(43,426,o),
(29,437,o),
(29,453,cs)
);
},
{
closed = 1;
nodes = (
(141,473,o),
(158,492,o),
(178,492,cs),
(195,492,o),
(209,480,o),
(209,464,cs),
(209,443,o),
(192,426,o),
(171,426,cs),
(155,426,o),
(141,437,o),
(141,453,cs)
);
}
);
width = 170;
}
);
note = idieresis;
unicode = 239;
},
{
glyphname = eth;
layers = (
{
layerId = m01;
shapes = (
{
closed = 1;
nodes = (
(172,549,l),
(172,550,o),
(172,550,o),
(172,551,cs),
(172,554,o),
(174,556,o),
(178,556,cs),
(197,556,ls),
(218,556,o),
(236,544,o),
(247,523,cs),
(257,506,l),
(318,534,l),
(319,535,o),
(320,535,o),
(321,535,cs),
(322,535,o),
(323,534,o),
(323,532,c),
(337,507,ls),
(338,505,o),
(338,504,o),
(338,503,cs),
(338,501,o),
(337,500,o),
(334,498,cs),
(276,469,l),
(364,307,ls),
(382,276,o),
(392,242,o),
(392,205,cs),
(388,86,o),
(308,-9,o),
(183,-9,cs),
(93,-9,o),
(31,52,o),
(30,140,cs),
(28,261,o),
(109,367,o),
(236,367,cs),
(251,366,o),
(265,365,o),
(280,362,c),
(230,448,l),
(154,413,l),
(154,413,o),
(153,412,o),
(152,412,cs),
(150,412,o),
(149,413,o),
(148,416,c),
(134,442,l),
(134,443,o),
(133,444,o),
(133,445,c),
(134,447,o),
(135,448,o),
(138,449,cs),
(210,483,l)
);
},
{
closed = 1;
nodes = (
(280,38,o),
(342,122,o),
(340,212,cs),
(340,278,o),
(298,320,o),
(234,320,cs),
(138,320,o),
(78,227,o),
(81,138,cs),
(84,76,o),
(122,38,o),
(184,38,cs)
);
}
);
width = 443;
}
);
note = eth;
unicode = 240;
},
{
glyphname = ntilde;
kernLeft = n;
kernRight = n;
layers = (
{
layerId = m01;
shapes = (
{
closed = 1;
nodes = (
(149,346,o),
(195,367,o),
(250,367,cs),
(326,367,o),
(375,320,o),
(375,247,cs),
(375,236,o),
(374,225,o),
(372,214,cs),
(335,6,l),
(335,2,o),
(333,0,o),
(329,0,cs),
(289,0,ls),
(286,0,o),
(285,1,o),
(285,4,cs),
(285,5,o),
(285,5,o),
(285,6,cs),
(319,200,ls),
(321,211,o),
(322,223,o),
(322,234,cs),
(322,290,o),
(297,320,o),
(232,320,cs),
(160,320,o),
(111,274,o),
(97,193,cs),
(64,6,ls),
(63,2,o),
(62,0,o),
(58,0,cs),
(18,0,ls),
(15,0,o),
(14,1,o),
(14,4,cs),
(14,5,o),
(14,5,o),
(14,6,cs),
(76,354,l),
(76,358,o),
(78,360,o),
(82,360,cs),
(87,360,ls),
(106,360,o),
(120,344,o),
(120,321,cs),
(120,318,o),
(119,313,o),
(119,307,c)
);
},
{
closed = 1;
nodes = (
(153,431,o),
(151,432,o),
(151,434,cs),
(151,463,o),
(179,495,o),
(208,495,cs),
(221,495,o),
(237,491,o),
(261,480,cs),
(278,471,o),
(286,468,o),
(293,468,cs),
(304,468,o),
(310,473,o),
(316,485,cs),
(318,489,o),
(322,491,o),
(326,491,cs),
(352,491,ls),
(356,491,o),
(357,490,o),
(358,487,c),
(359,460,o),
(327,428,o),
(294,428,cs),
(281,428,o),
(266,432,o),
(243,443,cs),
(225,453,o),
(218,455,o),
(210,455,cs),
(201,455,o),
(196,450,o),
(191,438,cs),
(189,432,o),
(187,431,o),
(183,431,cs),
(156,431,ls)
);
}
);
width = 439;
}
);
note = ntilde;
unicode = 241;
},
{
glyphname = ograve;
kernLeft = o;
kernRight = o;
layers = (
{
layerId = m01;
shapes = (
{
closed = 1;
nodes = (
(99,-9,o),
(31,52,o),
(30,140,cs),
(28,261,o),
(103,367,o),
(230,367,cs),
(327,367,o),
(395,298,o),
(392,205,cs),
(388,86,o),
(314,-9,o),
(189,-9,cs)
);
},
{
closed = 1;
nodes = (
(286,38,o),
(342,122,o),
(340,212,cs),
(340,278,o),
(292,320,o),
(228,320,cs),
(132,320,o),
(78,227,o),
(81,138,cs),
(84,76,o),
(128,38,o),
(190,38,cs)
);
},
{
closed = 1;
nodes = (
(316,435,o),
(316,435,o),
(316,435,c),
(316,432,o),
(314,431,o),
(311,431,cs),
(279,431,ls),
(270,431,o),
(264,433,o),
(256,440,cs),
(194,496,l),
(194,497,o),
(193,497,o),
(194,498,c),
(193,500,o),
(195,502,o),
(198,502,cs),
(243,502,ls),
(252,502,o),
(255,500,o),
(262,493,cs),
(315,436,ls)
);
}
);
width = 443;
}
);
note = ograve;
unicode = 242;
},
{
glyphname = oacute;
kernLeft = o;
kernRight = o;
layers = (
{
layerId = m01;
shapes = (
{
closed = 1;
nodes = (
(99,-9,o),
(31,52,o),
(30,140,cs),
(28,261,o),
(103,367,o),
(230,367,cs),
(327,367,o),
(395,298,o),
(392,205,cs),
(388,86,o),
(314,-9,o),
(189,-9,cs)
);
},
{
closed = 1;
nodes = (
(286,38,o),
(342,122,o),
(340,212,cs),
(340,278,o),
(292,320,o),
(228,320,cs),
(132,320,o),
(78,227,o),
(81,138,cs),
(84,76,o),
(128,38,o),
(190,38,cs)
);
},
{
closed = 1;
nodes = (
(254,493,ls),
(263,500,o),
(268,502,o),
(277,502,cs),
(330,502,ls),
(332,502,o),
(334,501,o),
(334,499,cs),
(334,498,o),
(333,497,o),
(333,496,c),
(251,440,ls),
(241,433,o),
(234,431,o),
(224,431,cs),
(188,431,ls),
(186,431,o),
(184,432,o),
(184,433,cs),
(184,435,o),
(185,435,o),
(186,436,cs)
);
}
);
width = 443;
}
);
note = oacute;
unicode = 243;
},
{
glyphname = ocircumflex;
kernLeft = o;
kernRight = o;
layers = (
{
layerId = m01;
shapes = (
{
closed = 1;
nodes = (
(99,-9,o),
(31,52,o),
(30,140,cs),
(28,261,o),
(103,367,o),
(230,367,cs),
(327,367,o),
(395,298,o),
(392,205,cs),
(388,86,o),
(314,-9,o),
(189,-9,cs)
);
},
{
closed = 1;
nodes = (
(286,38,o),
(342,122,o),
(340,212,cs),
(340,278,o),
(292,320,o),
(228,320,cs),
(132,320,o),
(78,227,o),
(81,138,cs),
(84,76,o),
(128,38,o),
(190,38,cs)
);
},
{
closed = 1;
nodes = (
(220,440,ls),
(211,433,o),
(204,431,o),
(193,431,cs),
(157,431,ls),
(155,431,o),
(153,432,o),
(153,433,cs),
(153,435,o),
(154,435,o),
(155,436,cs),
(227,493,ls),
(237,500,o),
(241,502,o),
(250,502,cs),
(279,502,ls),
(289,502,o),
(291,501,o),
(298,493,cs),
(351,436,ls),
(352,435,o),
(352,435,o),
(352,435,c),
(352,432,o),
(350,431,o),
(347,431,cs),
(317,431,ls),
(307,431,o),
(300,433,o),
(294,440,cs),
(263,475,l)
);
}
);
width = 443;
}
);
note = ocircumflex;
unicode = 244;
},
{
glyphname = otilde;
kernLeft = o;
kernRight = o;
layers = (
{
layerId = m01;
shapes = (
{
closed = 1;
nodes = (
(99,-9,o),
(31,52,o),
(30,140,cs),
(28,261,o),
(103,367,o),
(230,367,cs),
(327,367,o),
(395,298,o),
(392,205,cs),
(388,86,o),
(314,-9,o),
(189,-9,cs)
);
},
{
closed = 1;
nodes = (
(286,38,o),
(342,122,o),
(340,212,cs),
(340,278,o),
(292,320,o),
(228,320,cs),
(132,320,o),
(78,227,o),
(81,138,cs),
(84,76,o),
(128,38,o),
(190,38,cs)
);
},
{
closed = 1;
nodes = (
(155,431,o),
(153,432,o),
(153,434,cs),
(153,463,o),
(181,495,o),
(210,495,cs),
(223,495,o),
(239,491,o),
(263,480,cs),
(280,471,o),
(288,468,o),
(295,468,cs),
(306,468,o),
(312,473,o),
(318,485,cs),
(320,489,o),
(324,491,o),
(328,491,cs),
(354,491,ls),
(358,491,o),
(359,490,o),
(360,487,c),
(361,460,o),
(329,428,o),
(296,428,cs),
(283,428,o),
(268,432,o),
(245,443,cs),
(227,453,o),
(220,455,o),
(212,455,cs),
(203,455,o),
(198,450,o),
(193,438,cs),
(191,432,o),
(189,431,o),
(185,431,cs),
(158,431,ls)
);
}
);
width = 443;
}
);
note = otilde;
unicode = 245;
},
{
glyphname = odieresis;
kernLeft = o;
kernRight = o;
layers = (
{
layerId = m01;
shapes = (
{
closed = 1;
nodes = (
(99,-9,o),
(31,52,o),
(30,140,cs),
(28,261,o),
(103,367,o),
(230,367,cs),
(327,367,o),
(395,298,o),
(392,205,cs),
(388,86,o),
(314,-9,o),
(189,-9,cs)
);
},
{
closed = 1;
nodes = (
(286,38,o),
(342,122,o),
(340,212,cs),
(340,278,o),
(292,320,o),
(228,320,cs),
(132,320,o),
(78,227,o),
(81,138,cs),
(84,76,o),
(128,38,o),
(190,38,cs)
);
},
{
closed = 1;
nodes = (
(166,473,o),
(182,492,o),
(203,492,cs),
(219,492,o),
(234,480,o),
(234,464,cs),
(234,443,o),
(217,426,o),
(196,426,cs),
(180,426,o),
(166,437,o),
(166,453,cs)
);
},
{
closed = 1;
nodes = (
(278,473,o),
(295,492,o),
(315,492,cs),
(332,492,o),
(346,480,o),
(346,464,cs),
(346,443,o),
(329,426,o),
(308,426,cs),
(292,426,o),
(278,437,o),
(278,453,cs)
);
}
);
width = 443;
}
);
note = odieresis;
unicode = 246;
},
{
glyphname = divide;
layers = (
{
layerId = m01;
shapes = (
{
closed = 1;
nodes = (
(41,249,o),
(40,251,o),
(40,255,cs),
(40,289,ls),
(40,293,o),
(41,295,o),
(45,295,cs),
(304,295,ls),
(329,295,o),
(343,279,o),
(343,260,cs),
(343,255,ls),
(343,251,o),
(342,249,o),
(338,249,cs),
(45,249,ls)
);
},
{
closed = 1;
nodes = (
(161,412,o),
(175,426,o),
(191,426,cs),
(208,426,o),
(222,412,o),
(222,394,cs),
(222,379,o),
(208,364,o),
(191,364,cs),
(175,364,o),
(161,379,o),
(161,394,cs)
);
},
{
closed = 1;
nodes = (
(161,165,o),
(175,179,o),
(191,179,cs),
(208,179,o),
(222,165,o),
(222,148,cs),
(222,132,o),
(208,118,o),
(191,118,cs),
(175,118,o),
(161,132,o),
(161,148,cs)
);
}
);
width = 384;
}
);
note = divide;
unicode = 247;
},
{
glyphname = oslash;
kernLeft = o;
kernRight = o;
layers = (
{
layerId = m01;
shapes = (
{
closed = 1;
nodes = (
(93,-9,o),
(31,52,o),
(30,140,cs),
(28,261,o),
(109,367,o),
(236,367,cs),
(333,367,o),
(395,298,o),
(392,205,cs),
(388,86,o),
(308,-9,o),
(183,-9,cs)
);
},
{
closed = 1;
nodes = (
(139,46,l),
(153,40,o),
(169,38,o),
(184,38,cs),
(280,38,o),
(342,122,o),
(340,212,cs),
(339,234,o),
(336,255,o),
(324,274,c)
);
},
{
closed = 1;
nodes = (
(296,303,l),
(277,315,o),
(256,319,o),
(234,320,cs),
(138,320,o),
(78,227,o),
(81,138,cs),
(83,113,o),
(89,90,o),
(105,71,c)
);
}
);
width = 443;
}
);
note = oslash;
unicode = 248;
},
{
glyphname = ugrave;
kernLeft = u;
kernRight = u;
layers = (
{
layerId = m01;
shapes = (
{
closed = 1;
nodes = (
(324,37,o),
(268,-10,o),
(163,-10,cs),
(82,-10,o),
(37,37,o),
(38,121,cs),
(38,137,o),
(39,153,o),
(42,169,cs),
(75,354,ls),
(76,358,o),
(77,360,o),
(80,360,cs),
(85,360,ls),
(105,360,o),
(119,345,o),
(119,322,cs),
(119,317,o),
(118,313,o),
(117,308,cs),
(91,156,ls),
(88,144,o),
(87,131,o),
(87,120,cs),
(87,65,o),
(116,36,o),
(171,36,cs),
(241,36,o),
(281,77,o),
(294,153,cs),
(330,354,ls),
(331,358,o),
(332,360,o),
(336,360,cs),
(340,360,ls),
(360,360,o),
(373,345,o),
(373,322,cs),
(373,317,o),
(373,313,o),
(372,308,cs),
(343,146,ls)
);
},
{
closed = 1;
nodes = (
(293,435,o),
(293,435,o),
(293,435,c),
(293,432,o),
(291,431,o),
(288,431,cs),
(256,431,ls),
(247,431,o),
(241,433,o),
(233,440,cs),
(172,496,ls),
(171,497,o),
(171,497,o),
(171,498,cs),
(171,500,o),
(173,502,o),
(175,502,cs),
(220,502,ls),
(230,502,o),
(232,500,o),
(239,493,cs),
(292,436,ls)
);
}
);
width = 423;
}
);
note = ugrave;
unicode = 249;
},
{
glyphname = uacute;
kernLeft = u;
kernRight = u;
layers = (
{
layerId = m01;
shapes = (
{
closed = 1;
nodes = (
(324,37,o),
(268,-10,o),
(163,-10,cs),
(82,-10,o),
(37,37,o),
(38,121,cs),
(38,137,o),
(39,153,o),
(42,169,cs),
(75,354,ls),
(76,358,o),
(77,360,o),
(80,360,cs),
(85,360,ls),
(105,360,o),
(119,345,o),
(119,322,cs),
(119,317,o),
(118,313,o),
(117,308,cs),
(91,156,ls),
(88,144,o),
(87,131,o),
(87,120,cs),
(87,65,o),
(116,36,o),
(171,36,cs),
(241,36,o),
(281,77,o),
(294,153,cs),
(330,354,ls),
(331,358,o),
(332,360,o),
(336,360,cs),
(340,360,ls),
(360,360,o),
(373,345,o),
(373,322,cs),
(373,317,o),
(373,313,o),
(372,308,cs),
(343,146,ls)
);
},
{
closed = 1;
nodes = (
(244,493,ls),
(253,500,o),
(258,502,o),
(267,502,cs),
(320,502,ls),
(323,502,o),
(324,501,o),
(324,499,cs),
(324,498,o),
(323,497,o),
(323,496,c),
(241,440,ls),
(231,433,o),
(224,431,o),
(215,431,cs),
(178,431,ls),
(176,431,o),
(174,432,o),
(174,433,cs),
(174,435,o),
(175,435,o),
(176,436,cs)
);
}
);
width = 423;
}
);
note = uacute;
unicode = 250;
},
{
glyphname = ucircumflex;
kernLeft = u;
kernRight = u;
layers = (
{
layerId = m01;
shapes = (
{
closed = 1;
nodes = (
(324,37,o),
(268,-10,o),
(163,-10,cs),
(82,-10,o),
(37,37,o),
(38,121,cs),
(38,137,o),
(39,153,o),
(42,169,cs),
(75,354,ls),
(76,358,o),
(77,360,o),
(80,360,cs),
(85,360,ls),
(105,360,o),
(119,345,o),
(119,322,cs),
(119,317,o),
(118,313,o),
(117,308,cs),
(91,156,ls),
(88,144,o),
(87,131,o),
(87,120,cs),
(87,65,o),
(116,36,o),
(171,36,cs),
(241,36,o),
(281,77,o),
(294,153,cs),
(330,354,ls),
(331,358,o),
(332,360,o),
(336,360,cs),
(340,360,ls),
(360,360,o),
(373,345,o),
(373,322,cs),
(373,317,o),
(373,313,o),
(372,308,cs),
(343,146,ls)
);
},
{
closed = 1;
nodes = (
(200,440,ls),
(191,433,o),
(184,431,o),
(173,431,cs),
(137,431,ls),
(135,431,o),
(134,432,o),
(134,433,cs),
(134,435,o),
(134,435,o),
(136,436,c),
(208,493,ls),
(217,500,o),
(221,502,o),
(230,502,cs),
(259,502,ls),
(269,502,o),
(271,501,o),
(278,493,cs),
(331,436,ls),
(332,435,o),
(332,435,o),
(332,435,c),
(332,432,o),
(330,431,o),
(327,431,cs),
(298,431,ls),
(287,431,o),
(280,433,o),
(274,440,cs),
(244,475,l)
);
}
);
width = 423;
}
);
note = ucircumflex;
unicode = 251;
},
{
glyphname = udieresis;
kernLeft = u;
kernRight = u;
layers = (
{
layerId = m01;
shapes = (
{
closed = 1;
nodes = (
(324,37,o),
(268,-10,o),
(163,-10,cs),
(82,-10,o),
(37,37,o),
(38,121,cs),
(38,137,o),
(39,153,o),
(42,169,cs),
(75,354,ls),
(76,358,o),
(77,360,o),
(80,360,cs),
(85,360,ls),
(105,360,o),
(119,345,o),
(119,322,cs),
(119,317,o),
(118,313,o),
(117,308,cs),
(91,156,ls),
(88,144,o),
(87,131,o),
(87,120,cs),
(87,65,o),
(116,36,o),
(171,36,cs),
(241,36,o),
(281,77,o),
(294,153,cs),
(330,354,ls),
(331,358,o),
(332,360,o),
(336,360,cs),
(340,360,ls),
(360,360,o),
(373,345,o),
(373,322,cs),
(373,317,o),
(373,313,o),
(372,308,cs),
(343,146,ls)
);
},
{
closed = 1;
nodes = (
(152,473,o),
(168,492,o),
(189,492,cs),
(205,492,o),
(220,480,o),
(220,464,cs),
(219,443,o),
(203,426,o),
(181,426,cs),
(166,426,o),
(152,437,o),
(152,453,cs)
);
},
{
closed = 1;
nodes = (
(264,473,o),
(280,492,o),
(301,492,cs),
(317,492,o),
(332,480,o),
(332,464,cs),
(332,443,o),
(315,426,o),
(294,426,cs),
(278,426,o),
(264,437,o),
(264,453,cs)
);
}
);
width = 423;
}
);
note = udieresis;
unicode = 252;
},
{
glyphname = yacute;
kernLeft = y;
kernRight = y;
layers = (
{
layerId = m01;
shapes = (
{
closed = 1;
nodes = (
(33,354,l),
(33,354,o),
(33,355,o),
(33,355,c),
(33,358,o),
(35,360,o),
(38,360,cs),
(51,360,ls),
(74,360,o),
(85,346,o),
(88,320,cs),
(124,63,l),
(269,350,ls),
(273,358,o),
(276,360,o),
(286,360,cs),
(323,360,ls),
(325,360,o),
(327,359,o),
(327,357,cs),
(327,356,o),
(326,355,o),
(326,354,c),
(129,-19,ls),
(64,-143,o),
(36,-171,o),
(-17,-171,cs),
(-52,-171,o),
(-80,-146,o),
(-80,-115,cs),
(-80,-102,o),
(-75,-93,o),
(-68,-93,cs),
(-64,-93,o),
(-62,-95,o),
(-55,-104,cs),
(-44,-119,o),
(-33,-125,o),
(-16,-125,cs),
(0,-124,o),
(12,-120,o),
(23,-108,cs),
(36,-95,o),
(46,-78,o),
(56,-62,cs),
(68,-42,o),
(80,-21,o),
(91,-1,c)
);
},
{
closed = 1;
nodes = (
(206,493,ls),
(215,500,o),
(220,502,o),
(229,502,cs),
(282,502,ls),
(284,502,o),
(286,501,o),
(286,499,cs),
(286,498,o),
(285,497,o),
(285,496,c),
(203,440,ls),
(193,433,o),
(186,431,o),
(176,431,cs),
(140,431,ls),
(138,431,o),
(136,432,o),
(136,433,cs),
(136,435,o),
(137,435,o),
(138,436,cs)
);
}
);
width = 329;
}
);
note = yacute;
unicode = 253;
},
{
glyphname = thorn;
layers = (
{
layerId = m01;
shapes = (
{
closed = 1;
nodes = (
(152,347,o),
(199,367,o),
(258,367,cs),
(344,367,o),
(399,306,o),
(399,217,cs),
(399,88,o),
(315,-9,o),
(198,-9,cs),
(141,-9,o),
(99,14,o),
(74,58,c),
(36,-154,ls),
(36,-156,o),
(35,-158,o),
(33,-159,cs),
(32,-160,o),
(31,-160,o),
(30,-160,cs),
(-10,-160,ls),
(-13,-160,o),
(-14,-159,o),
(-14,-156,cs),
(-14,-155,o),
(-14,-155,o),
(-14,-154,cs),
(110,549,ls),
(111,554,o),
(113,556,o),
(116,556,cs),
(121,556,ls),
(140,556,o),
(153,540,o),
(153,517,cs),
(153,513,o),
(153,508,o),
(152,503,cs),
(117,304,l)
);
},
{
closed = 1;
nodes = (
(280,38,o),
(347,117,o),
(347,213,cs),
(347,281,o),
(310,320,o),
(246,320,cs),
(158,320,o),
(92,244,o),
(92,142,cs),
(92,78,o),
(133,38,o),
(198,38,cs)
);
}
);
width = 454;
}
);
note = thorn;
unicode = 254;
},
{
glyphname = ydieresis;
kernLeft = y;
kernRight = y;
layers = (
{
layerId = m01;
shapes = (
{
closed = 1;
nodes = (
(33,354,l),
(33,354,o),
(33,355,o),
(33,355,c),
(33,358,o),
(35,360,o),
(38,360,cs),
(51,360,ls),
(74,360,o),
(85,346,o),
(88,320,cs),
(124,63,l),
(269,350,ls),
(273,358,o),
(276,360,o),
(286,360,cs),
(323,360,ls),
(325,360,o),
(327,359,o),
(327,357,cs),
(327,356,o),
(326,355,o),
(326,354,c),
(129,-19,ls),
(64,-143,o),
(36,-171,o),
(-17,-171,cs),
(-52,-171,o),
(-80,-146,o),
(-80,-115,cs),
(-80,-102,o),
(-75,-93,o),
(-68,-93,cs),
(-64,-93,o),
(-62,-95,o),
(-55,-104,cs),
(-44,-119,o),
(-33,-125,o),
(-16,-125,cs),
(0,-124,o),
(12,-120,o),
(23,-108,cs),
(36,-95,o),
(46,-78,o),
(56,-62,cs),
(68,-42,o),
(80,-21,o),
(91,-1,c)
);
},
{
closed = 1;
nodes = (
(114,473,o),
(130,492,o),
(151,492,cs),
(167,492,o),
(181,480,o),
(181,464,cs),
(181,443,o),
(165,426,o),
(143,426,cs),
(128,426,o),
(114,437,o),
(114,453,cs)
);
},
{
closed = 1;
nodes = (
(226,473,o),
(242,492,o),
(263,492,cs),
(279,492,o),
(294,480,o),
(294,464,cs),
(294,443,o),
(277,426,o),
(256,426,cs),
(240,426,o),
(226,437,o),
(226,453,cs)
);
}
);
width = 329;
}
);
note = ydieresis;
unicode = 255;
},
{
glyphname = dotlessi;
kernLeft = r;
kernRight = i;
layers = (
{
layerId = m01;
shapes = (
{
closed = 1;
nodes = (
(15,0,o),
(14,1,o),
(14,4,cs),
(14,5,o),
(14,5,o),
(14,6,cs),
(76,354,l),
(76,358,o),
(78,360,o),
(82,360,cs),
(85,360,ls),
(105,360,o),
(118,345,o),
(118,322,cs),
(118,317,o),
(118,313,o),
(117,308,cs),
(64,6,ls),
(63,1,o),
(61,0,o),
(58,0,cs),
(18,0,ls)
);
}
);
width = 170;
}
);
note = dotlessi;
unicode = 305;
},
{
glyphname = Lslash;
layers = (
{
layerId = m01;
shapes = (
{
closed = 1;
nodes = (
(87,47,l),
(275,47,ls),
(292,47,o),
(301,40,o),
(301,26,cs),
(301,23,o),
(301,21,o),
(300,18,cs),
(298,7,ls),
(297,2,o),
(295,0,o),
(289,0,cs),
(34,0,ls),
(31,0,o),
(30,1,o),
(30,4,cs),
(30,5,o),
(30,5,o),
(30,6,cs),
(67,213,l),
(13,187,l),
(12,186,o),
(11,186,o),
(10,186,cs),
(8,186,o),
(7,187,o),
(7,189,c),
(7,189,o),
(7,190,o),
(7,190,c),
(14,228,ls),
(15,233,o),
(16,235,o),
(20,237,cs),
(76,264,l),
(126,549,ls),
(127,554,o),
(129,556,o),
(132,556,cs),
(137,556,ls),
(157,556,o),
(169,541,o),
(169,517,cs),
(169,513,o),
(169,508,o),
(168,503,cs),
(130,291,l),
(299,374,l),
(300,374,o),
(301,375,o),
(302,375,cs),
(304,375,o),
(305,374,o),
(305,372,c),
(305,372,o),
(304,371,o),
(304,371,c),
(298,333,ls),
(297,327,o),
(296,326,o),
(291,324,cs),
(122,240,l)
);
}
);
width = 364;
}
);
note = Lslash;
unicode = 321;
},
{
glyphname = lslash;
layers = (
{
layerId = m01;
shapes = (
{
closed = 1;
nodes = (
(90,92,l),
(90,86,o),
(89,78,o),
(89,75,cs),
(89,52,o),
(100,41,o),
(122,41,cs),
(145,41,o),
(145,41,o),
(180,72,cs),
(184,76,o),
(185,77,o),
(188,77,cs),
(192,77,o),
(194,73,o),
(194,67,cs),
(194,24,o),
(152,-9,o),
(104,-9,cs),
(61,-9,o),
(37,15,o),
(37,59,cs),
(37,69,o),
(38,79,o),
(40,89,cs),
(61,211,l),
(13,187,l),
(12,186,o),
(11,186,o),
(10,186,cs),
(8,186,o),
(7,187,o),
(7,189,c),
(7,189,o),
(7,190,o),
(7,190,c),
(14,228,ls),
(15,233,o),
(16,235,o),
(20,237,cs),
(70,261,l),
(121,549,ls),
(122,554,o),
(124,556,o),
(127,556,cs),
(132,556,ls),
(152,556,o),
(164,541,o),
(164,518,cs),
(164,513,o),
(164,509,o),
(163,504,cs),
(125,288,l),
(198,324,l),
(199,324,o),
(201,325,o),
(202,325,c),
(203,324,o),
(204,323,o),
(204,322,c),
(204,322,o),
(204,321,o),
(204,321,c),
(197,283,ls),
(196,278,o),
(195,276,o),
(191,275,c),
(116,238,l)
);
}
);
width = 232;
}
);
note = lslash;
unicode = 322;
},
{
glyphname = OE;
kernLeft = O;
kernRight = E;
layers = (
{
layerId = m01;
shapes = (
{
closed = 1;
nodes = (
(720,47,ls),
(736,47,o),
(745,40,o),
(745,26,cs),
(745,23,o),
(745,21,o),
(744,18,c),
(743,7,ls),
(742,2,o),
(739,0,o),
(734,0,cs),
(446,0,ls),
(443,0,o),
(442,1,o),
(442,4,c),
(442,4,o),
(442,5,o),
(442,6,cs),
(457,89,l),
(404,21,o),
(338,-10,o),
(250,-10,cs),
(125,-10,o),
(52,67,o),
(52,198,cs),
(52,412,o),
(161,567,o),
(342,567,cs),
(425,567,o),
(486,535,o),
(523,466,c),
(538,549,ls),
(539,554,o),
(541,556,o),
(544,556,cs),
(799,556,ls),
(816,556,o),
(825,548,o),
(825,534,cs),
(825,532,o),
(825,529,o),
(824,527,c),
(822,516,ls),
(821,511,o),
(819,508,o),
(813,508,cs),
(582,508,l),
(545,298,l),
(736,298,ls),
(753,298,o),
(762,290,o),
(762,276,cs),
(762,274,o),
(761,272,o),
(761,270,cs),
(759,259,ls),
(758,254,o),
(755,252,o),
(750,252,cs),
(537,252,l),
(501,47,l)
);
},
{
closed = 1;
nodes = (
(399,37,o),
(497,166,o),
(497,354,cs),
(497,462,o),
(439,519,o),
(339,519,cs),
(198,519,o),
(101,386,o),
(101,199,cs),
(101,94,o),
(155,37,o),
(257,37,cs)
);
}
);
width = 821;
}
);
note = OE;
unicode = 338;
},
{
glyphname = oe;
kernLeft = o;
kernRight = e;
layers = (
{
layerId = m01;
shapes = (
{
closed = 1;
nodes = (
(307,18,o),
(253,-6,o),
(183,-9,cs),
(93,-9,o),
(31,52,o),
(30,140,cs),
(28,261,o),
(109,367,o),
(236,367,cs),
(297,365,o),
(350,341,o),
(373,282,c),
(409,342,o),
(457,364,o),
(525,367,cs),
(606,367,o),
(660,313,o),
(660,241,cs),
(660,222,o),
(656,192,o),
(652,176,cs),
(648,163,o),
(645,160,o),
(635,160,cs),
(379,160,l),
(378,150,o),
(377,141,o),
(378,134,cs),
(383,73,o),
(425,37,o),
(489,37,cs),
(536,37,o),
(583,55,o),
(612,85,cs),
(617,90,o),
(621,92,o),
(624,92,cs),
(628,92,o),
(631,89,o),
(631,83,cs),
(631,36,o),
(580,-9,o),
(477,-9,cs),
(416,-7,o),
(369,20,o),
(346,79,c)
);
},
{
closed = 1;
nodes = (
(606,203,l),
(609,220,o),
(610,229,o),
(610,238,cs),
(610,287,o),
(580,321,o),
(520,321,cs),
(457,321,o),
(412,281,o),
(387,203,c)
);
},
{
closed = 1;
nodes = (
(280,38,o),
(342,122,o),
(340,212,cs),
(340,278,o),
(298,320,o),
(234,320,cs),
(138,320,o),
(78,227,o),
(81,138,cs),
(84,76,o),
(122,38,o),
(184,38,cs)
);
}
);
width = 708;
}
);
note = oe;
unicode = 339;
},
{
glyphname = Scaron;
kernLeft = S;
kernRight = S;
layers = (
{
layerId = m01;
shapes = (
{
closed = 1;
nodes = (
(363,504,o),
(315,520,o),
(261,520,cs),
(180,520,o),
(118,472,o),
(118,409,cs),
(118,365,o),
(154,339,o),
(241,306,cs),
(344,266,o),
(386,225,o),
(386,165,cs),
(386,46,o),
(320,-4,o),
(174,-11,cs),
(92,-15,o),
(-4,38,o),
(-4,99,cs),
(-4,116,o),
(3,127,o),
(12,127,cs),
(18,127,o),
(20,125,o),
(24,117,cs),
(51,63,o),
(111,36,o),
(178,36,cs),
(274,36,o),
(333,83,o),
(333,153,cs),
(333,197,o),
(301,228,o),
(214,263,cs),
(111,303,o),
(67,337,o),
(66,402,cs),
(66,495,o),
(145,567,o),
(271,567,cs),
(348,567,o),
(434,527,o),
(434,502,cs),
(434,498,o),
(434,494,o),
(432,490,cs),
(425,473,ls),
(423,468,o),
(420,465,o),
(416,465,cs),
(414,465,o),
(411,466,o),
(407,470,c),
(406,470,o),
(406,470,o),
(405,471,cs)
);
},
{
closed = 1;
nodes = (
(327,681,ls),
(337,688,o),
(343,691,o),
(354,691,cs),
(390,691,ls),
(392,691,o),
(394,689,o),
(394,688,cs),
(394,686,o),
(393,686,o),
(392,685,cs),
(319,628,ls),
(309,620,o),
(307,619,o),
(297,619,cs),
(268,619,ls),
(259,619,o),
(255,621,o),
(249,628,cs),
(196,685,ls),
(195,686,o),
(195,686,o),
(195,687,cs),
(195,689,o),
(198,691,o),
(200,691,cs),
(230,691,ls),
(241,691,o),
(246,688,o),
(253,681,cs),
(285,646,l)
);
}
);
width = 437;
}
);
note = Scaron;
unicode = 352;
},
{
glyphname = scaron;
kernLeft = s;
layers = (
{
layerId = m01;
shapes = (
{
closed = 1;
nodes = (
(266,292,o),
(265,291,o),
(262,291,cs),
(261,291,o),
(259,292,o),
(257,293,cs),
(237,308,o),
(198,320,o),
(167,320,cs),
(117,320,o),
(83,297,o),
(83,265,cs),
(83,242,o),
(104,225,o),
(155,207,cs),
(226,181,o),
(255,153,o),
(255,110,cs),
(255,34,o),
(198,-11,o),
(112,-11,cs),
(29,-11,o),
(-9,23,o),
(-9,66,cs),
(-9,80,o),
(-4,88,o),
(4,88,cs),
(7,88,o),
(10,86,o),
(12,82,cs),
(27,53,o),
(62,36,o),
(107,36,cs),
(164,36,o),
(204,62,o),
(204,101,cs),
(204,125,o),
(183,142,o),
(130,162,cs),
(61,187,o),
(32,215,o),
(32,256,cs),
(32,326,o),
(86,367,o),
(167,367,cs),
(222,367,o),
(279,348,o),
(279,326,cs),
(279,322,o),
(277,318,o),
(275,312,cs),
(268,297,ls)
);
},
{
closed = 1;
nodes = (
(230,492,ls),
(240,499,o),
(246,502,o),
(257,502,cs),
(293,502,ls),
(295,502,o),
(296,500,o),
(296,499,cs),
(296,498,o),
(296,497,o),
(295,496,cs),
(222,439,ls),
(212,431,o),
(209,431,o),
(200,431,cs),
(171,431,ls),
(162,431,o),
(158,432,o),
(151,439,cs),
(99,496,ls),
(98,497,o),
(98,497,o),
(98,498,cs),
(98,500,o),
(100,502,o),
(103,502,cs),
(133,502,ls),
(144,502,o),
(148,500,o),
(156,492,cs),
(188,457,l)
);
}
);
width = 309;
}
);
note = scaron;
unicode = 353;
},
{
glyphname = Ydieresis;
kernLeft = Y;
kernRight = Y;
layers = (
{
layerId = m01;
shapes = (
{
closed = 1;
nodes = (
(57,548,l),
(56,549,o),
(56,551,o),
(56,551,c),
(56,554,o),
(59,556,o),
(62,556,cs),
(74,556,ls),
(98,556,o),
(111,544,o),
(123,513,cs),
(212,274,l),
(407,543,ls),
(414,554,o),
(416,556,o),
(426,556,cs),
(462,556,ls),
(467,556,o),
(469,554,o),
(469,552,cs),
(469,551,o),
(468,548,o),
(467,547,cs),
(229,219,l),
(192,6,ls),
(191,2,o),
(189,0,o),
(186,0,cs),
(146,0,ls),
(143,0,o),
(142,1,o),
(142,3,cs),
(142,4,o),
(142,5,o),
(142,6,cs),
(180,219,l)
);
},
{
closed = 1;
nodes = (
(189,662,o),
(205,681,o),
(226,681,cs),
(242,681,o),
(257,669,o),
(257,653,cs),
(256,632,o),
(240,614,o),
(218,614,cs),
(203,614,o),
(189,626,o),
(189,642,cs)
);
},
{
closed = 1;
nodes = (
(301,662,o),
(317,681,o),
(338,681,cs),
(354,681,o),
(369,669,o),
(369,653,cs),
(369,632,o),
(352,614,o),
(331,614,cs),
(315,614,o),
(301,626,o),
(301,642,cs)
);
}
);
width = 422;
}
);
note = Ydieresis;
unicode = 376;
},
{
glyphname = Zcaron;
kernLeft = Z;
kernRight = Z;
layers = (
{
layerId = m01;
shapes = (
{
closed = 1;
nodes = (
(339,47,ls),
(356,47,o),
(364,39,o),
(364,26,cs),
(364,23,o),
(364,20,o),
(364,18,cs),
(362,7,ls),
(361,2,o),
(359,0,o),
(353,0,cs),
(-3,0,ls),
(-6,0,o),
(-7,1,o),
(-7,4,cs),
(-7,5,o),
(-7,5,o),
(-7,6,cs),
(-3,30,ls),
(0,46,o),
(3,52,o),
(14,64,cs),
(399,509,l),
(95,509,ls),
(92,509,o),
(90,510,o),
(90,512,cs),
(90,513,o),
(91,514,o),
(91,515,cs),
(97,549,ls),
(98,554,o),
(99,556,o),
(103,556,cs),
(409,556,ls),
(438,556,o),
(451,545,o),
(451,523,cs),
(451,520,o),
(451,517,o),
(450,514,c),
(449,504,ls),
(446,491,o),
(443,485,o),
(429,468,cs),
(60,47,l)
);
},
{
closed = 1;
nodes = (
(333,681,ls),
(342,688,o),
(349,691,o),
(359,691,cs),
(395,691,ls),
(397,691,o),
(399,689,o),
(399,688,cs),
(399,686,o),
(398,686,o),
(397,685,cs),
(324,628,ls),
(314,620,o),
(312,619,o),
(302,619,cs),
(273,619,ls),
(264,619,o),
(260,621,o),
(254,628,cs),
(201,685,ls),
(200,686,o),
(200,686,o),
(200,687,c),
(201,689,o),
(203,691,o),
(205,691,cs),
(235,691,ls),
(246,691,o),
(251,688,o),
(258,681,cs),
(290,646,l)
);
}
);
width = 448;
}
);
note = Zcaron;
unicode = 381;
},
{
glyphname = zcaron;
kernLeft = z;
kernRight = z;
layers = (
{
layerId = m01;
shapes = (
{
closed = 1;
nodes = (
(241,45,ls),
(243,45,o),
(245,43,o),
(245,41,cs),
(245,40,o),
(245,40,o),
(245,39,cs),
(239,6,ls),
(238,2,o),
(236,0,o),
(233,0,cs),
(-7,0,ls),
(-10,0,o),
(-11,1,o),
(-11,3,cs),
(-11,4,o),
(-11,5,o),
(-11,6,cs),
(-6,36,ls),
(-4,45,o),
(-3,46,o),
(12,62,cs),
(250,315,l),
(53,315,ls),
(50,315,o),
(49,316,o),
(49,318,cs),
(49,319,o),
(49,320,o),
(49,321,cs),
(54,354,ls),
(55,358,o),
(57,360,o),
(61,360,cs),
(257,360,ls),
(286,360,o),
(297,351,o),
(297,331,cs),
(297,307,o),
(291,291,o),
(275,274,cs),
(56,45,l)
);
},
{
closed = 1;
nodes = (
(232,492,ls),
(242,499,o),
(248,502,o),
(259,502,cs),
(295,502,ls),
(297,502,o),
(299,500,o),
(299,499,cs),
(299,498,o),
(298,497,o),
(297,496,cs),
(224,439,ls),
(214,431,o),
(212,431,o),
(202,431,cs),
(173,431,ls),
(164,431,o),
(160,432,o),
(154,439,cs),
(101,496,ls),
(100,497,o),
(100,497,o),
(100,498,cs),
(100,500,o),
(103,502,o),
(105,502,cs),
(135,502,ls),
(146,502,o),
(151,500,o),
(158,492,cs),
(190,457,l)
);
}
);
width = 323;
}
);
note = zcaron;
unicode = 382;
},
{
glyphname = florin;
layers = (
{
layerId = m01;
shapes = (
{
closed = 1;
nodes = (
(61,315,ls),
(58,315,o),
(57,316,o),
(57,317,c),
(56,318,o),
(56,318,o),
(57,321,cs),
(63,354,ls),
(64,358,o),
(65,359,o),
(69,359,cs),
(132,359,l),
(150,464,ls),
(160,526,o),
(192,562,o),
(246,562,cs),
(280,562,o),
(311,541,o),
(317,510,cs),
(319,495,o),
(315,484,o),
(307,484,cs),
(303,484,o),
(302,485,o),
(296,493,cs),
(286,507,o),
(269,516,o),
(252,516,cs),
(225,516,o),
(207,497,o),
(201,461,cs),
(182,359,l),
(271,359,ls),
(273,359,o),
(275,359,o),
(275,357,cs),
(275,356,o),
(275,356,o),
(275,354,cs),
(269,321,ls),
(268,317,o),
(266,315,o),
(262,315,cs),
(175,315,l),
(105,-74,ls),
(94,-136,o),
(63,-171,o),
(10,-171,cs),
(-25,-171,o),
(-57,-151,o),
(-62,-120,cs),
(-65,-105,o),
(-61,-94,o),
(-53,-94,cs),
(-49,-94,o),
(-48,-95,o),
(-42,-103,cs),
(-31,-116,o),
(-14,-125,o),
(4,-125,cs),
(32,-125,o),
(50,-106,o),
(56,-71,cs),
(124,315,l)
);
}
);
width = 347;
}
);
note = florin;
unicode = 402;
},
{
glyphname = circumflex;
layers = (
{
layerId = m01;
shapes = (
{
closed = 1;
nodes = (
(98,440,ls),
(89,433,o),
(83,431,o),
(72,431,cs),
(36,431,ls),
(34,431,o),
(32,432,o),
(32,433,cs),
(32,435,o),
(33,435,o),
(34,436,cs),
(106,493,ls),
(115,500,o),
(120,502,o),
(129,502,cs),
(158,502,ls),
(167,502,o),
(169,501,o),
(177,493,cs),
(230,436,l),
(230,435,o),
(231,435,o),
(231,435,c),
(231,432,o),
(229,431,o),
(226,431,cs),
(196,431,ls),
(185,431,o),
(179,433,o),
(173,440,cs),
(142,475,l)
);
}
);
width = 200;
}
);
note = circumflex;
unicode = 710;
},
{
glyphname = caron;
layers = (
{
layerId = m01;
shapes = (
{
closed = 1;
nodes = (
(176,492,ls),
(185,499,o),
(191,502,o),
(202,502,cs),
(238,502,ls),
(240,502,o),
(242,500,o),
(242,499,cs),
(242,498,o),
(241,497,o),
(240,496,cs),
(167,439,ls),
(157,431,o),
(155,431,o),
(145,431,cs),
(116,431,ls),
(107,431,o),
(103,432,o),
(97,439,cs),
(44,496,ls),
(43,497,o),
(43,497,o),
(43,498,cs),
(43,500,o),
(46,502,o),
(48,502,cs),
(78,502,ls),
(89,502,o),
(94,500,o),
(101,492,cs),
(133,457,l)
);
}
);
width = 200;
}
);
note = caron;
unicode = 711;
},
{
glyphname = breve;
layers = (
{
layerId = m01;
shapes = (
{
closed = 1;
nodes = (
(227,502,o),
(228,500,o),
(228,498,cs),
(228,487,o),
(214,462,o),
(200,450,cs),
(181,434,o),
(159,426,o),
(128,426,cs),
(78,426,o),
(42,451,o),
(42,493,cs),
(42,499,o),
(44,502,o),
(48,502,cs),
(77,502,ls),
(82,502,o),
(83,501,o),
(84,494,cs),
(86,473,o),
(102,461,o),
(128,461,cs),
(154,461,o),
(172,472,o),
(184,494,cs),
(187,501,o),
(188,502,o),
(193,502,cs),
(223,502,ls)
);
}
);
width = 187;
}
);
note = breve;
unicode = 728;
},
{
glyphname = dotaccent;
layers = (
{
layerId = m01;
shapes = (
{
closed = 1;
nodes = (
(34,473,o),
(51,492,o),
(71,492,cs),
(88,492,o),
(102,480,o),
(102,464,cs),
(102,444,o),
(85,426,o),
(64,426,cs),
(48,426,o),
(34,438,o),
(34,453,cs)
);
}
);
width = 67;
}
);
note = dotaccent;
unicode = 729;
},
{
glyphname = ring;
layers = (
{
layerId = m01;
shapes = (
{
closed = 1;
nodes = (
(37,517,o),
(72,548,o),
(112,548,cs),
(143,548,o),
(169,522,o),
(169,491,cs),
(169,452,o),
(135,421,o),
(94,421,cs),
(63,421,o),
(37,448,o),
(37,478,cs)
);
},
{
closed = 1;
nodes = (
(119,450,o),
(136,469,o),
(136,492,cs),
(136,509,o),
(126,519,o),
(109,519,cs),
(88,519,o),
(70,499,o),
(70,477,cs),
(70,461,o),
(81,450,o),
(97,450,cs)
);
}
);
width = 130;
}
);
note = ring;
unicode = 730;
},
{
glyphname = ogonek;
layers = (
{
layerId = m01;
shapes = (
{
closed = 1;
nodes = (
(112,-93,o),
(113,-92,o),
(113,-92,c),
(115,-92,o),
(116,-93,o),
(116,-96,c),
(116,-96,o),
(116,-96,o),
(116,-97,cs),
(112,-119,ls),
(111,-127,o),
(94,-133,o),
(68,-133,cs),
(31,-133,o),
(7,-109,o),
(7,-78,cs),
(7,-41,o),
(47,2,o),
(78,2,cs),
(114,2,ls),
(115,2,o),
(117,1,o),
(117,0,cs),
(117,-1,o),
(116,-2,o),
(114,-3,cs),
(75,-19,o),
(47,-50,o),
(47,-74,cs),
(47,-91,o),
(58,-99,o),
(79,-99,cs),
(91,-99,o),
(101,-97,o),
(111,-93,c)
);
}
);
width = 113;
}
);
note = ogonek;
unicode = 731;
},
{
glyphname = tilde;
layers = (
{
layerId = m01;
shapes = (
{
closed = 1;
nodes = (
(32,431,o),
(30,432,o),
(30,434,cs),
(30,463,o),
(58,495,o),
(87,495,cs),
(100,495,o),
(116,491,o),
(140,480,cs),
(158,471,o),
(165,468,o),
(173,468,cs),
(183,468,o),
(190,473,o),
(195,485,cs),
(197,489,o),
(201,491,o),
(205,491,cs),
(232,491,ls),
(235,491,o),
(237,490,o),
(237,487,cs),
(238,460,o),
(207,428,o),
(173,428,cs),
(160,428,o),
(145,432,o),
(122,443,cs),
(104,453,o),
(98,455,o),
(89,455,cs),
(81,455,o),
(75,450,o),
(71,438,cs),
(68,432,o),
(66,431,o),
(62,431,cs),
(35,431,ls)
);
}
);
width = 198;
}
);
note = tilde;
unicode = 732;
},
{
glyphname = hungarumlaut;
layers = (
{
layerId = m01;
shapes = (
{
closed = 1;
nodes = (
(31,431,o),
(30,432,o),
(30,434,cs),
(30,435,o),
(31,436,o),
(32,437,cs),
(86,493,ls),
(92,499,o),
(98,502,o),
(108,502,cs),
(147,502,ls),
(149,502,o),
(151,500,o),
(151,499,cs),
(151,497,o),
(150,497,o),
(149,496,cs),
(90,441,ls),
(83,434,o),
(75,431,o),
(64,431,cs),
(34,431,ls)
);
},
{
closed = 1;
nodes = (
(147,431,o),
(146,432,o),
(146,434,cs),
(146,435,o),
(147,436,o),
(147,437,c),
(202,493,ls),
(209,500,o),
(213,502,o),
(224,502,cs),
(264,502,ls),
(266,502,o),
(267,500,o),
(267,499,cs),
(267,498,o),
(267,496,o),
(266,496,c),
(206,441,ls),
(199,434,o),
(191,431,o),
(180,431,cs),
(150,431,ls)
);
}
);
width = 226;
}
);
note = hungarumlaut;
unicode = 733;
},
{
glyphname = uni03BC;
layers = (
{
layerId = m01;
shapes = (
{
closed = 1;
nodes = (
(36,-154,l),
(36,-158,o),
(34,-160,o),
(30,-160,cs),
(-10,-160,ls),
(-13,-160,o),
(-14,-159,o),
(-14,-156,cs),
(-14,-155,o),
(-14,-155,o),
(-14,-154,cs),
(76,354,l),
(76,358,o),
(78,359,o),
(82,359,cs),
(87,359,ls),
(106,359,o),
(119,344,o),
(119,321,cs),
(119,317,o),
(118,312,o),
(118,308,c),
(91,156,ls),
(89,144,o),
(88,132,o),
(88,121,cs),
(88,65,o),
(117,36,o),
(172,36,cs),
(237,36,o),
(281,78,o),
(294,153,cs),
(330,354,l),
(330,358,o),
(332,359,o),
(336,359,cs),
(341,359,ls),
(361,359,o),
(373,345,o),
(373,322,cs),
(373,317,o),
(373,312,o),
(372,308,cs),
(344,150,ls),
(326,45,o),
(267,-10,o),
(170,-10,cs),
(129,-10,o),
(105,-3,o),
(78,24,cs),
(77,25,o),
(73,29,o),
(69,32,c)
);
}
);
width = 424;
}
);
note = uni03BC;
unicode = 956;
},
{
glyphname = uni060C;
layers = (
{
layerId = m01;
shapes = (
{
closed = 1;
nodes = (
(186,45,o),
(169,65,o),
(146,69,c),
(147,88,o),
(156,103,o),
(162,114,cs),
(167,123,o),
(175,139,o),
(158,153,c),
(156,154,o),
(154,156,o),
(152,154,cs),
(122,124,o),
(98,76,o),
(106,29,cs),
(111,2,o),
(133,-16,o),
(155,-16,cs),
(178,-16,o),
(193,4,o),
(189,27,cs)
);
}
);
width = 199;
}
);
note = uni060C;
unicode = 1548;
},
{
glyphname = uni061B;
layers = (
{
layerId = m01;
shapes = (
{
closed = 1;
nodes = (
(150,248,o),
(134,268,o),
(110,272,c),
(111,292,o),
(120,307,o),
(126,317,cs),
(131,326,o),
(139,343,o),
(121,356,c),
(120,358,o),
(118,359,o),
(116,357,cs),
(86,328,o),
(62,279,o),
(70,232,cs),
(75,206,o),
(97,188,o),
(119,188,cs),
(142,188,o),
(157,207,o),
(153,230,cs)
);
},
{
closed = 1;
nodes = (
(185,49,o),
(163,69,o),
(140,69,cs),
(118,69,o),
(103,49,o),
(106,27,cs),
(110,3,o),
(133,-16,o),
(155,-16,cs),
(178,-16,o),
(193,3,o),
(189,27,cs)
);
}
);
width = 199;
}
);
note = uni061B;
unicode = 1563;
},
{
glyphname = uni061F;
layers = (
{
layerId = m01;
shapes = (
{
closed = 1;
nodes = (
(291,132,o),
(294,136,o),
(293,140,cs),
(280,214,ls),
(262,313,o),
(117,318,o),
(99,414,cs),
(82,496,o),
(139,512,o),
(180,512,cs),
(216,512,o),
(244,501,o),
(265,492,c),
(270,489,o),
(275,488,o),
(278,488,cs),
(285,488,o),
(287,494,o),
(285,502,cs),
(275,529,o),
(223,559,o),
(169,559,cs),
(89,559,o),
(28,511,o),
(46,416,cs),
(71,288,o),
(215,289,o),
(230,208,cs),
(242,140,l),
(242,136,o),
(246,132,o),
(251,132,cs),
(286,132,ls)
);
},
{
closed = 1;
nodes = (
(258,69,o),
(244,49,o),
(247,27,cs),
(251,3,o),
(273,-16,o),
(296,-16,cs),
(319,-16,o),
(334,3,o),
(330,27,cs),
(326,49,o),
(304,69,o),
(281,69,cs)
);
}
);
width = 371;
}
);
note = uni061F;
unicode = 1567;
},
{
glyphname = uni0621;
layers = (
{
layerId = m01;
shapes = (
{
closed = 1;
nodes = (
(431,28,o),
(412,46,o),
(383,46,cs),
(290,46,ls),
(211,46,o),
(161,111,o),
(150,170,cs),
(136,250,o),
(172,296,o),
(237,296,cs),
(278,296,o),
(304,287,o),
(326,276,cs),
(331,274,o),
(334,273,o),
(338,273,cs),
(345,273,o),
(346,280,o),
(345,286,cs),
(343,298,o),
(329,311,o),
(316,319,cs),
(296,332,o),
(268,341,o),
(234,341,cs),
(148,342,o),
(80,281,o),
(101,171,cs),
(109,126,o),
(131,77,o),
(170,43,c),
(154,42,o),
(141,37,o),
(130,31,cs),
(109,20,o),
(99,0,o),
(105,-19,cs),
(106,-22,o),
(109,-26,o),
(113,-26,cs),
(117,-26,o),
(120,-24,o),
(123,-22,c),
(143,-3,o),
(171,0,o),
(204,0,cs),
(428,0,ls),
(434,0,o),
(435,1,o),
(434,7,cs),
(434,11,l)
);
}
);
width = 439;
}
);
note = uni0621;
unicode = 1569;
},
{
glyphname = uni0622;
layers = (
{
layerId = m01;
shapes = (
{
closed = 1;
nodes = (
(5,696,o),
(68,668,o),
(87,668,cs),
(95,668,o),
(98,673,o),
(99,680,cs),
(101,687,o),
(102,691,o),
(103,694,cs),
(105,698,o),
(109,697,o),
(112,693,cs),
(118,686,o),
(123,678,o),
(124,669,c),
(129,650,o),
(117,634,o),
(95,634,cs),
(74,634,o),
(7,663,o),
(-12,663,cs),
(-20,663,o),
(-23,658,o),
(-25,651,cs),
(-26,644,o),
(-27,639,o),
(-28,637,cs),
(-30,633,o),
(-35,633,o),
(-37,637,c),
(-43,644,o),
(-48,653,o),
(-50,661,cs),
(-54,681,o),
(-42,697,o),
(-22,696,cs)
);
},
{
closed = 1;
nodes = (
(157,0,o),
(170,20,o),
(164,51,cs),
(77,550,ls),
(76,554,o),
(74,556,o),
(70,556,cs),
(65,556,ls),
(42,556,o),
(28,536,o),
(33,504,cs),
(121,6,ls),
(122,2,o),
(124,0,o),
(128,0,cs),
(133,0,ls)
);
}
);
width = 191;
}
);
note = uni0622;
unicode = 1570;
},
{
glyphname = uni0623;
layers = (
{
layerId = m01;
shapes = (
{
closed = 1;
nodes = (
(115,662,o),
(103,672,o),
(86,672,cs),
(49,672,ls),
(28,672,o),
(1,689,o),
(-3,714,cs),
(-7,738,o),
(2,753,o),
(28,754,cs),
(41,754,o),
(51,751,o),
(64,743,c),
(67,742,o),
(73,739,o),
(76,739,cs),
(80,739,o),
(80,744,o),
(79,747,cs),
(74,766,o),
(49,788,o),
(16,788,cs),
(-26,788,o),
(-48,756,o),
(-41,714,cs),
(-37,694,o),
(-27,679,o),
(-18,669,c),
(-35,666,o),
(-44,654,o),
(-42,639,cs),
(-41,633,o),
(-39,627,o),
(-34,627,cs),
(-33,627,o),
(-28,629,o),
(-25,631,c),
(-6,637,o),
(7,638,o),
(30,638,cs),
(113,638,ls),
(118,638,o),
(120,639,o),
(119,644,cs),
(118,647,ls)
);
},
{
closed = 1;
nodes = (
(79,554,o),
(77,556,o),
(73,556,cs),
(68,556,ls),
(44,556,o),
(30,536,o),
(36,504,cs),
(124,6,l),
(124,2,o),
(126,0,o),
(130,0,cs),
(135,0,ls),
(160,0,o),
(173,20,o),
(167,51,cs),
(79,550,l)
);
}
);
width = 191;
}
);
note = uni0623;
unicode = 1571;
},
{
glyphname = uni0624;
layers = (
{
layerId = m01;
shapes = (
{
closed = 1;
nodes = (
(126,447,o),
(127,441,o),
(132,441,cs),
(134,441,o),
(139,443,o),
(142,444,cs),
(161,451,o),
(174,452,o),
(197,452,cs),
(279,452,ls),
(284,452,o),
(286,453,o),
(285,457,cs),
(285,460,l),
(282,475,o),
(269,486,o),
(253,486,cs),
(215,486,ls),
(194,486,o),
(168,502,o),
(164,527,cs),
(160,551,o),
(169,566,o),
(194,567,cs),
(207,568,o),
(218,564,o),
(231,557,cs),
(234,555,o),
(239,552,o),
(242,552,cs),
(247,552,o),
(246,557,o),
(245,560,cs),
(240,579,o),
(216,601,o),
(182,601,cs),
(141,601,o),
(119,569,o),
(126,528,cs),
(130,507,o),
(140,492,o),
(149,482,c),
(131,479,o),
(122,467,o),
(125,453,cs)
);
},
{
closed = 1;
nodes = (
(421,171,o),
(404,233,o),
(379,272,cs),
(344,331,o),
(296,368,o),
(223,368,cs),
(130,368,o),
(68,295,o),
(89,178,cs),
(107,73,o),
(182,-8,o),
(282,-9,cs),
(327,-11,o),
(363,2,o),
(395,23,c),
(409,-64,o),
(402,-141,o),
(336,-161,cs),
(299,-173,o),
(237,-166,o),
(190,-151,cs),
(187,-150,o),
(183,-149,o),
(179,-149,cs),
(172,-149,o),
(169,-154,o),
(171,-161,cs),
(175,-171,o),
(186,-181,o),
(200,-189,cs),
(227,-204,o),
(260,-214,o),
(305,-214,cs),
(370,-214,o),
(420,-185,o),
(439,-132,cs),
(462,-66,o),
(450,13,o),
(433,113,cs)
);
},
{
closed = 1;
nodes = (
(209,38,o),
(154,99,o),
(140,179,cs),
(125,263,o),
(159,321,o),
(225,321,cs),
(271,321,o),
(307,295,o),
(331,256,cs),
(354,221,o),
(372,154,o),
(381,103,cs),
(382,93,o),
(384,83,o),
(385,74,c),
(357,49,o),
(323,38,o),
(280,38,cs)
);
}
);
width = 449;
}
);
note = uni0624;
unicode = 1572;
},
{
glyphname = uni0625;
layers = (
{
layerId = m01;
shapes = (
{
closed = 1;
nodes = (
(157,0,o),
(170,20,o),
(165,51,cs),
(77,550,ls),
(76,554,o),
(75,556,o),
(71,556,cs),
(66,556,ls),
(42,556,o),
(28,536,o),
(34,504,cs),
(121,6,ls),
(122,2,o),
(124,0,o),
(128,0,cs),
(133,0,ls)
);
},
{
closed = 1;
nodes = (
(262,-201,o),
(249,-191,o),
(233,-191,cs),
(195,-191,ls),
(174,-191,o),
(148,-174,o),
(144,-149,cs),
(140,-125,o),
(149,-110,o),
(174,-109,cs),
(187,-108,o),
(198,-112,o),
(211,-119,cs),
(214,-121,o),
(219,-124,o),
(222,-124,cs),
(227,-124,o),
(226,-119,o),
(225,-116,cs),
(220,-97,o),
(196,-75,o),
(162,-75,cs),
(121,-75,o),
(99,-107,o),
(106,-148,cs),
(110,-169,o),
(120,-184,o),
(129,-194,c),
(111,-197,o),
(102,-209,o),
(105,-223,cs),
(106,-229,o),
(107,-236,o),
(112,-236,cs),
(114,-236,o),
(119,-233,o),
(122,-232,cs),
(141,-226,o),
(154,-224,o),
(177,-224,cs),
(259,-224,ls),
(264,-224,o),
(266,-223,o),
(265,-219,cs),
(265,-216,l)
);
}
);
width = 191;
}
);
note = uni0625;
unicode = 1573;
},
{
glyphname = uni0626;
layers = (
{
layerId = m01;
shapes = (
{
closed = 1;
nodes = (
(213,315,o),
(215,316,o),
(214,321,c),
(213,323,l),
(210,338,o),
(198,349,o),
(181,349,cs),
(144,349,ls),
(123,349,o),
(96,366,o),
(92,391,cs),
(88,414,o),
(97,429,o),
(123,431,cs),
(136,431,o),
(146,427,o),
(159,420,cs),
(162,418,o),
(168,416,o),
(171,416,cs),
(175,416,o),
(175,421,o),
(174,423,c),
(169,443,o),
(144,464,o),
(111,464,cs),
(69,464,o),
(47,432,o),
(54,391,cs),
(58,371,o),
(68,356,o),
(77,346,c),
(60,342,o),
(51,331,o),
(53,316,cs),
(54,310,o),
(56,304,o),
(61,304,cs),
(62,304,o),
(67,306,o),
(70,307,cs),
(89,314,o),
(102,315,o),
(125,315,cs),
(208,315,ls)
);
},
{
closed = 1;
nodes = (
(653,63,o),
(568,73,o),
(477,91,cs),
(420,102,o),
(355,139,o),
(344,201,cs),
(330,281,o),
(385,321,o),
(450,321,cs),
(497,321,o),
(527,309,o),
(547,298,cs),
(551,296,o),
(555,294,o),
(558,294,cs),
(565,294,o),
(567,301,o),
(565,308,cs),
(563,322,o),
(550,334,o),
(536,343,cs),
(515,357,o),
(485,368,o),
(436,368,cs),
(353,368,o),
(273,311,o),
(293,201,cs),
(308,116,o),
(372,66,o),
(460,47,cs),
(531,32,o),
(605,32,o),
(605,-16,cs),
(604,-108,o),
(529,-167,o),
(424,-167,cs),
(295,-167,o),
(176,-88,o),
(151,45,cs),
(144,94,o),
(139,145,o),
(174,210,c),
(175,214,o),
(175,217,o),
(175,219,cs),
(174,226,o),
(168,231,o),
(161,231,cs),
(157,231,o),
(153,228,o),
(149,224,cs),
(108,187,o),
(90,111,o),
(104,34,cs),
(131,-116,o),
(246,-208,o),
(405,-214,cs),
(553,-220,o),
(664,-128,o),
(657,-7,cs)
);
}
);
width = 655;
}
);
note = uni0626;
unicode = 1574;
},
{
glyphname = uni0627;
layers = (
{
layerId = m01;
shapes = (
{
closed = 1;
nodes = (
(157,0,o),
(170,20,o),
(165,51,cs),
(77,550,ls),
(76,554,o),
(75,556,o),
(71,556,cs),
(66,556,ls),
(42,556,o),
(28,536,o),
(34,504,cs),
(121,6,ls),
(122,2,o),
(124,0,o),
(128,0,cs),
(133,0,ls)
);
}
);
width = 191;
}
);
note = uni0627;
unicode = 1575;
},
{
glyphname = uni0628;
layers = (
{
layerId = m01;
shapes = (
{
closed = 1;
nodes = (
(673,0,o),
(721,56,o),
(703,155,cs),
(670,344,ls),
(669,348,o),
(668,349,o),
(664,349,cs),
(659,349,ls),
(634,349,o),
(622,331,o),
(627,299,cs),
(652,156,ls),
(665,79,o),
(640,49,o),
(579,49,cs),
(287,49,ls),
(213,49,o),
(141,74,o),
(125,162,cs),
(119,201,o),
(127,237,o),
(154,277,cs),
(156,280,o),
(157,284,o),
(156,288,cs),
(155,293,o),
(151,298,o),
(143,298,cs),
(138,298,o),
(134,295,o),
(130,292,cs),
(88,256,o),
(76,199,o),
(82,152,cs),
(97,42,o),
(186,0,o),
(294,0,cs),
(585,0,ls)
);
},
{
closed = 1;
nodes = (
(413,-74,o),
(400,-91,o),
(404,-112,cs),
(408,-133,o),
(427,-150,o),
(447,-150,cs),
(468,-150,o),
(481,-133,o),
(477,-112,cs),
(473,-91,o),
(454,-74,o),
(434,-74,cs)
);
}
);
width = 747;
}
);
note = uni0628;
unicode = 1576;
},
{
glyphname = uni0629;
layers = (
{
layerId = m01;
shapes = (
{
closed = 1;
nodes = (
(120,568,o),
(103,583,o),
(83,583,cs),
(64,583,o),
(52,568,o),
(55,548,cs),
(59,528,o),
(76,513,o),
(95,513,cs),
(115,513,o),
(127,528,o),
(124,548,cs)
);
},
{
closed = 1;
nodes = (
(213,513,o),
(225,528,o),
(221,548,cs),
(218,568,o),
(200,583,o),
(181,583,cs),
(162,583,o),
(150,568,o),
(153,548,cs),
(156,528,o),
(174,513,o),
(193,513,cs)
);
},
{
closed = 1;
nodes = (
(402,231,o),
(366,280,o),
(301,330,cs),
(293,336,o),
(286,341,o),
(280,345,cs),
(240,373,o),
(208,387,o),
(178,436,c),
(174,441,o),
(173,443,o),
(169,442,cs),
(167,442,o),
(166,441,o),
(164,440,cs),
(149,431,o),
(145,412,o),
(159,388,c),
(169,376,o),
(176,368,o),
(187,359,c),
(93,316,o),
(68,239,o),
(78,168,cs),
(93,58,o),
(180,-9,o),
(275,-9,cs),
(376,-9,o),
(420,64,o),
(409,168,cs)
);
},
{
closed = 1;
nodes = (
(204,38,o),
(144,90,o),
(131,166,cs),
(120,227,o),
(136,289,o),
(226,324,c),
(260,299,o),
(271,291,o),
(294,270,cs),
(334,235,o),
(350,201,o),
(356,171,cs),
(371,89,o),
(330,38,o),
(266,38,cs)
);
}
);
width = 451;
}
);
note = uni0629;
unicode = 1577;
},
{
glyphname = uni062A;
layers = (
{
layerId = m01;
shapes = (
{
closed = 1;
nodes = (
(333,371,o),
(345,386,o),
(342,406,cs),
(338,426,o),
(320,441,o),
(301,441,cs),
(282,441,o),
(270,426,o),
(273,406,cs),
(277,386,o),
(294,371,o),
(313,371,cs)
);
},
{
closed = 1;
nodes = (
(430,371,o),
(443,386,o),
(439,406,cs),
(436,426,o),
(418,441,o),
(399,441,cs),
(380,441,o),
(368,426,o),
(371,406,cs),
(374,386,o),
(392,371,o),
(411,371,cs)
);
},
{
closed = 1;
nodes = (
(673,0,o),
(721,56,o),
(703,155,cs),
(670,344,ls),
(669,348,o),
(668,349,o),
(664,349,cs),
(659,349,ls),
(634,349,o),
(622,331,o),
(627,299,cs),
(652,156,ls),
(665,79,o),
(640,49,o),
(579,49,cs),
(287,49,ls),
(213,49,o),
(141,74,o),
(125,162,cs),
(119,201,o),
(127,237,o),
(154,277,cs),
(156,280,o),
(157,284,o),
(156,288,cs),
(155,293,o),
(151,298,o),
(143,298,cs),
(138,298,o),
(134,295,o),
(130,292,cs),
(88,256,o),
(76,199,o),
(82,152,cs),
(97,42,o),
(186,0,o),
(294,0,cs),
(585,0,ls)
);
}
);
width = 747;
}
);
note = uni062A;
unicode = 1578;
},
{
glyphname = uni062B;
layers = (
{
layerId = m01;
shapes = (
{
closed = 1;
nodes = (
(368,452,o),
(380,467,o),
(377,487,cs),
(374,507,o),
(356,522,o),
(337,522,cs),
(318,522,o),
(305,507,o),
(309,487,cs),
(312,467,o),
(330,452,o),
(349,452,cs)
);
},
{
closed = 1;
nodes = (
(334,371,o),
(346,386,o),
(343,406,cs),
(339,426,o),
(322,441,o),
(302,441,cs),
(283,441,o),
(271,426,o),
(274,406,cs),
(278,386,o),
(295,371,o),
(314,371,cs)
);
},
{
closed = 1;
nodes = (
(432,371,o),
(444,386,o),
(440,406,cs),
(437,426,o),
(419,441,o),
(400,441,cs),
(381,441,o),
(369,426,o),
(372,406,cs),
(375,386,o),
(393,371,o),
(412,371,cs)
);
},
{
closed = 1;
nodes = (
(673,0,o),
(721,56,o),
(703,155,cs),
(670,344,ls),
(669,348,o),
(668,349,o),
(664,349,cs),
(659,349,ls),
(634,349,o),
(622,331,o),
(627,299,cs),
(652,156,ls),
(665,79,o),
(640,49,o),
(579,49,cs),
(287,49,ls),
(213,49,o),
(141,74,o),
(125,162,cs),
(119,201,o),
(127,237,o),
(154,277,cs),
(156,280,o),
(157,284,o),
(156,288,cs),
(155,293,o),
(151,298,o),
(143,298,cs),
(138,298,o),
(134,295,o),
(130,292,cs),
(88,256,o),
(76,199,o),
(82,152,cs),
(97,42,o),
(186,0,o),
(294,0,cs),
(585,0,ls)
);
}
);
width = 747;
}
);
note = uni062B;
unicode = 1579;
},
{
glyphname = uni062C;
layers = (
{
layerId = m01;
shapes = (
{
closed = 1;
nodes = (
(149,-214,o),
(209,-281,o),
(314,-284,cs),
(350,-285,o),
(380,-283,o),
(414,-271,cs),
(435,-264,o),
(454,-254,o),
(475,-241,cs),
(479,-239,o),
(483,-238,o),
(485,-238,cs),
(490,-238,o),
(495,-242,o),
(496,-247,cs),
(497,-253,o),
(496,-258,o),
(494,-261,cs),
(484,-280,o),
(460,-299,o),
(438,-310,cs),
(403,-326,o),
(369,-332,o),
(318,-331,cs),
(180,-328,o),
(95,-241,o),
(80,-141,cs),
(64,-38,o),
(127,49,o),
(258,49,cs),
(452,49,l),
(425,68,o),
(402,116,o),
(363,197,cs),
(327,273,o),
(278,321,o),
(205,321,cs),
(162,321,o),
(132,304,o),
(105,281,cs),
(99,275,o),
(92,267,o),
(84,261,cs),
(80,257,o),
(78,257,o),
(74,257,cs),
(69,257,o),
(63,260,o),
(62,268,cs),
(61,275,o),
(63,279,o),
(64,282,cs),
(75,307,o),
(94,328,o),
(113,342,cs),
(137,358,o),
(163,368,o),
(204,368,cs),
(300,368,o),
(369,306,o),
(415,204,cs),
(447,132,o),
(470,91,o),
(500,64,cs),
(510,54,o),
(525,49,o),
(541,49,cs),
(545,49,o),
(547,48,o),
(547,44,c),
(552,17,o),
(538,0,o),
(507,0,cs),
(264,0,ls),
(165,0,o),
(124,-69,o),
(137,-142,cs)
);
},
{
closed = 1;
nodes = (
(291,-101,o),
(278,-117,o),
(282,-138,cs),
(285,-159,o),
(304,-176,o),
(325,-176,cs),
(345,-176,o),
(359,-159,o),
(355,-138,cs),
(351,-117,o),
(332,-101,o),
(312,-101,cs)
);
}
);
width = 558;
}
);
note = uni062C;
unicode = 1580;
},
{
glyphname = uni062D;
layers = (
{
layerId = m01;
shapes = (
{
closed = 1;
nodes = (
(149,-214,o),
(209,-281,o),
(314,-284,cs),
(350,-285,o),
(380,-283,o),
(414,-271,cs),
(435,-264,o),
(454,-254,o),
(475,-241,cs),
(479,-239,o),
(483,-238,o),
(485,-238,cs),
(490,-238,o),
(495,-242,o),
(496,-247,cs),
(497,-253,o),
(496,-258,o),
(494,-261,cs),
(484,-280,o),
(460,-299,o),
(438,-310,cs),
(403,-326,o),
(369,-332,o),
(318,-331,cs),
(180,-328,o),
(95,-241,o),
(80,-141,cs),
(64,-38,o),
(127,49,o),
(258,49,cs),
(452,49,l),
(425,68,o),
(402,116,o),
(363,197,cs),
(327,273,o),
(278,321,o),
(205,321,cs),
(162,321,o),
(132,304,o),
(105,281,cs),
(99,275,o),
(92,267,o),
(84,261,cs),
(80,257,o),
(78,257,o),
(74,257,cs),
(69,257,o),
(63,260,o),
(62,268,cs),
(61,275,o),
(63,279,o),
(64,282,cs),
(75,307,o),
(94,328,o),
(113,342,cs),
(137,358,o),
(163,368,o),
(204,368,cs),
(300,368,o),
(369,306,o),
(415,204,cs),
(447,132,o),
(470,91,o),
(500,64,cs),
(510,54,o),
(525,49,o),
(541,49,cs),
(545,49,o),
(547,48,o),
(547,44,c),
(552,17,o),
(538,0,o),
(507,0,cs),
(264,0,ls),
(165,0,o),
(124,-69,o),
(137,-142,cs)
);
}
);
width = 558;
}
);
note = uni062D;
unicode = 1581;
},
{
glyphname = uni062E;
layers = (
{
layerId = m01;
shapes = (
{
closed = 1;
nodes = (
(157,524,o),
(143,508,o),
(147,487,cs),
(151,466,o),
(170,448,o),
(190,448,cs),
(212,448,o),
(225,466,o),
(221,487,cs),
(217,508,o),
(198,524,o),
(177,524,cs)
);
},
{
closed = 1;
nodes = (
(149,-214,o),
(209,-281,o),
(314,-284,cs),
(350,-285,o),
(380,-283,o),
(414,-271,cs),
(435,-264,o),
(454,-254,o),
(475,-241,cs),
(479,-239,o),
(483,-238,o),
(485,-238,cs),
(490,-238,o),
(495,-242,o),
(496,-247,cs),
(497,-253,o),
(496,-258,o),
(494,-261,cs),
(484,-280,o),
(460,-299,o),
(438,-310,cs),
(403,-326,o),
(369,-332,o),
(318,-331,cs),
(180,-328,o),
(95,-241,o),
(80,-141,cs),
(64,-38,o),
(127,49,o),
(258,49,cs),
(452,49,l),
(425,68,o),
(402,116,o),
(363,197,cs),
(327,273,o),
(278,321,o),
(205,321,cs),
(162,321,o),
(132,304,o),
(105,281,cs),
(99,275,o),
(92,267,o),
(84,261,cs),
(80,257,o),
(78,257,o),
(74,257,cs),
(69,257,o),
(63,260,o),
(62,268,cs),
(61,275,o),
(63,279,o),
(64,282,cs),
(75,307,o),
(94,328,o),
(113,342,cs),
(137,358,o),
(163,368,o),
(204,368,cs),
(300,368,o),
(369,306,o),
(415,204,cs),
(447,132,o),
(470,91,o),
(500,64,cs),
(510,54,o),
(525,49,o),
(541,49,cs),
(545,49,o),
(547,48,o),
(547,44,c),
(552,17,o),
(538,0,o),
(507,0,cs),
(264,0,ls),
(165,0,o),
(124,-69,o),
(137,-142,cs)
);
}
);
width = 558;
}
);
note = uni062E;
unicode = 1582;
},
{
glyphname = uni062F;
layers = (
{
layerId = m01;
shapes = (
{
closed = 1;
nodes = (
(330,0,o),
(393,64,o),
(375,174,cs),
(356,287,o),
(288,368,o),
(193,368,cs),
(160,368,o),
(134,356,o),
(118,339,cs),
(110,331,o),
(105,321,o),
(106,313,cs),
(107,307,o),
(111,303,o),
(118,303,cs),
(121,303,o),
(125,305,o),
(128,307,cs),
(145,315,o),
(163,322,o),
(190,321,cs),
(260,321,o),
(306,265,o),
(323,176,cs),
(338,98,o),
(304,49,o),
(238,49,cs),
(145,49,ls),
(114,49,o),
(102,30,o),
(104,11,cs),
(105,7,l),
(105,1,o),
(108,0,o),
(114,0,cs),
(239,0,ls)
);
}
);
width = 416;
}
);
note = uni062F;
unicode = 1583;
},
{
glyphname = uni0630;
layers = (
{
layerId = m01;
shapes = (
{
closed = 1;
nodes = (
(88,511,o),
(75,494,o),
(79,473,cs),
(83,452,o),
(102,435,o),
(122,435,cs),
(143,435,o),
(157,452,o),
(153,473,cs),
(149,494,o),
(130,511,o),
(109,511,cs)
);
},
{
closed = 1;
nodes = (
(332,0,o),
(394,64,o),
(376,174,cs),
(358,287,o),
(289,368,o),
(194,368,cs),
(161,368,o),
(135,356,o),
(119,339,cs),
(111,331,o),
(106,321,o),
(107,313,cs),
(108,307,o),
(112,303,o),
(119,303,cs),
(123,303,o),
(126,305,o),
(129,307,c),
(147,315,o),
(164,322,o),
(192,321,cs),
(262,321,o),
(308,265,o),
(324,176,cs),
(339,98,o),
(305,49,o),
(239,49,cs),
(146,49,ls),
(115,49,o),
(103,30,o),
(106,11,c),
(106,7,ls),
(107,1,o),
(109,0,o),
(115,0,cs),
(241,0,ls)
);
}
);
width = 416;
}
);
note = uni0630;
unicode = 1584;
},
{
glyphname = uni0631;
layers = (
{
layerId = m01;
shapes = (
{
closed = 1;
nodes = (
(54,-167,o),
(35,-162,o),
(4,-151,cs),
(0,-150,o),
(-4,-149,o),
(-7,-149,cs),
(-15,-149,o),
(-18,-154,o),
(-15,-161,cs),
(-11,-171,o),
(-1,-180,o),
(14,-189,cs),
(40,-207,o),
(70,-214,o),
(101,-214,cs),
(214,-212,o),
(242,-133,o),
(218,2,cs),
(158,344,ls),
(157,348,o),
(156,349,o),
(152,349,cs),
(147,349,ls),
(121,349,o),
(109,329,o),
(115,299,cs),
(169,-13,ls),
(185,-104,o),
(174,-165,o),
(87,-167,cs)
);
}
);
width = 238;
}
);
note = uni0631;
unicode = 1585;
},
{
glyphname = uni0632;
layers = (
{
layerId = m01;
shapes = (
{
closed = 1;
nodes = (
(87,496,o),
(74,479,o),
(78,458,cs),
(81,437,o),
(100,420,o),
(121,420,cs),
(142,420,o),
(155,437,o),
(151,458,cs),
(148,479,o),
(129,496,o),
(108,496,cs)
);
},
{
closed = 1;
nodes = (
(54,-167,o),
(35,-162,o),
(4,-151,cs),
(0,-150,o),
(-4,-149,o),
(-7,-149,cs),
(-15,-149,o),
(-18,-154,o),
(-15,-161,cs),
(-11,-171,o),
(-1,-180,o),
(14,-189,cs),
(40,-207,o),
(70,-214,o),
(101,-214,cs),
(214,-212,o),
(242,-133,o),
(218,2,cs),
(158,344,ls),
(157,348,o),
(156,349,o),
(152,349,cs),
(147,349,ls),
(121,349,o),
(109,329,o),
(115,299,cs),
(169,-13,ls),
(185,-104,o),
(174,-165,o),
(87,-167,cs)
);
}
);
width = 247;
}
);
note = uni0632;
unicode = 1586;
},
{
glyphname = uni0633;
layers = (
{
layerId = m01;
shapes = (
{
closed = 1;
nodes = (
(998,348,o),
(997,349,o),
(992,349,cs),
(988,349,ls),
(963,349,o),
(950,329,o),
(956,298,cs),
(982,146,ls),
(996,69,o),
(970,39,o),
(910,39,cs),
(848,39,o),
(809,87,o),
(798,151,cs),
(768,324,l),
(767,327,o),
(765,329,o),
(761,329,cs),
(756,329,ls),
(732,329,o),
(719,310,o),
(725,278,cs),
(748,146,ls),
(761,74,o),
(735,39,o),
(675,39,cs),
(614,39,o),
(575,87,o),
(563,151,cs),
(563,150,l),
(537,303,ls),
(536,307,o),
(535,309,o),
(531,309,cs),
(526,309,ls),
(502,309,o),
(488,289,o),
(494,258,cs),
(530,46,ls),
(556,-107,o),
(466,-167,o),
(379,-167,cs),
(292,-167,o),
(176,-107,o),
(153,46,cs),
(146,95,o),
(143,146,o),
(178,211,c),
(179,214,o),
(180,217,o),
(180,219,c),
(178,227,o),
(172,231,o),
(166,231,cs),
(161,231,o),
(157,228,o),
(153,225,cs),
(112,187,o),
(94,111,o),
(106,34,cs),
(133,-139,o),
(251,-214,o),
(377,-214,cs),
(498,-214,o),
(600,-137,o),
(585,16,c),
(613,-2,o),
(648,-9,o),
(683,-9,cs),
(731,-9,o),
(770,9,o),
(788,44,c),
(819,6,o),
(867,-9,o),
(918,-9,cs),
(1004,-9,o),
(1051,46,o),
(1033,146,cs),
(998,344,l)
);
}
);
width = 1072;
}
);
note = uni0633;
unicode = 1587;
},
{
glyphname = uni0634;
layers = (
{
layerId = m01;
shapes = (
{
closed = 1;
nodes = (
(733,481,o),
(746,497,o),
(742,517,cs),
(739,536,o),
(721,551,o),
(702,551,cs),
(683,551,o),
(671,536,o),
(674,517,cs),
(677,497,o),
(695,481,o),
(714,481,cs)
);
},
{
closed = 1;
nodes = (
(699,400,o),
(711,416,o),
(708,436,cs),
(705,455,o),
(687,470,o),
(667,470,cs),
(648,470,o),
(636,455,o),
(640,436,cs),
(643,416,o),
(661,400,o),
(680,400,cs)
);
},
{
closed = 1;
nodes = (
(741,416,o),
(758,400,o),
(777,400,cs),
(797,400,o),
(809,416,o),
(806,436,cs),
(802,455,o),
(785,470,o),
(765,470,cs),
(746,470,o),
(734,455,o),
(737,436,cs)
);
},
{
closed = 1;
nodes = (
(998,348,o),
(997,349,o),
(992,349,cs),
(988,349,ls),
(963,349,o),
(950,329,o),
(956,298,cs),
(982,146,ls),
(996,69,o),
(970,39,o),
(910,39,cs),
(848,39,o),
(809,87,o),
(798,151,cs),
(768,324,l),
(767,327,o),
(765,329,o),
(761,329,cs),
(756,329,ls),
(732,329,o),
(719,310,o),
(725,278,cs),
(748,146,ls),
(761,74,o),
(735,39,o),
(675,39,cs),
(614,39,o),
(575,87,o),
(563,151,cs),
(563,150,l),
(537,303,ls),
(536,307,o),
(535,309,o),
(531,309,cs),
(526,309,ls),
(502,309,o),
(488,289,o),
(494,258,cs),
(530,46,ls),
(556,-107,o),
(466,-167,o),
(379,-167,cs),
(292,-167,o),
(176,-107,o),
(153,46,cs),
(146,95,o),
(143,146,o),
(178,211,c),
(179,214,o),
(180,217,o),
(180,219,c),
(178,227,o),
(172,231,o),
(166,231,cs),
(161,231,o),
(157,228,o),
(153,225,cs),
(112,187,o),
(94,111,o),
(106,34,cs),
(133,-139,o),
(251,-214,o),
(377,-214,cs),
(498,-214,o),
(600,-137,o),
(585,16,c),
(613,-2,o),
(648,-9,o),
(683,-9,cs),
(731,-9,o),
(770,9,o),
(788,44,c),
(819,6,o),
(867,-9,o),
(918,-9,cs),
(1004,-9,o),
(1051,46,o),
(1033,146,cs),
(998,344,l)
);
}
);
width = 1072;
}
);
note = uni0634;
unicode = 1588;
},
{
glyphname = uni0635;
layers = (
{
layerId = m01;
shapes = (
{
closed = 1;
nodes = (
(1167,301,o),
(1065,368,o),
(958,368,cs),
(777,368,o),
(684,217,o),
(675,49,c),
(674,49,ls),
(618,49,o),
(576,87,o),
(563,151,cs),
(528,344,l),
(528,347,o),
(527,349,o),
(522,349,cs),
(518,349,ls),
(493,349,o),
(480,329,o),
(486,298,cs),
(530,46,ls),
(557,-107,o),
(466,-167,o),
(379,-167,cs),
(292,-167,o),
(176,-107,o),
(153,46,cs),
(146,95,o),
(143,146,o),
(178,211,c),
(179,214,o),
(180,217,o),
(180,219,c),
(178,227,o),
(172,231,o),
(166,231,cs),
(161,231,o),
(157,228,o),
(153,225,cs),
(112,187,o),
(94,111,o),
(106,34,cs),
(133,-139,o),
(251,-214,o),
(377,-214,cs),
(502,-214,o),
(605,-133,o),
(584,27,c),
(612,8,o),
(645,0,o),
(683,0,cs),
(1055,0,ls),
(1143,0,o),
(1209,65,o),
(1189,177,cs)
);
},
{
closed = 1;
nodes = (
(737,195,o),
(817,321,o),
(962,321,cs),
(1036,321,o),
(1118,278,o),
(1137,178,cs),
(1151,105,o),
(1126,49,o),
(1046,49,cs),
(729,49,l)
);
}
);
width = 1224;
}
);
note = uni0635;
unicode = 1589;
},
{
glyphname = uni0636;
layers = (
{
layerId = m01;
shapes = (
{
closed = 1;
nodes = (
(945,446,o),
(958,463,o),
(954,484,cs),
(950,505,o),
(931,522,o),
(910,522,cs),
(890,522,o),
(876,505,o),
(880,484,cs),
(884,463,o),
(903,446,o),
(923,446,cs)
);
},
{
closed = 1;
nodes = (
(1167,301,o),
(1065,368,o),
(958,368,cs),
(777,368,o),
(684,217,o),
(675,49,c),
(674,49,ls),
(618,49,o),
(576,87,o),
(563,151,cs),
(528,344,l),
(528,347,o),
(527,349,o),
(522,349,cs),
(518,349,ls),
(493,349,o),
(480,329,o),
(486,298,cs),
(530,46,ls),
(557,-107,o),
(466,-167,o),
(379,-167,cs),
(292,-167,o),
(176,-107,o),
(153,46,cs),
(146,95,o),
(143,146,o),
(178,211,c),
(179,214,o),
(180,217,o),
(180,219,c),
(178,227,o),
(172,231,o),
(166,231,cs),
(161,231,o),
(157,228,o),
(153,225,cs),
(112,187,o),
(94,111,o),
(106,34,cs),
(133,-139,o),
(251,-214,o),
(377,-214,cs),
(502,-214,o),
(605,-133,o),
(584,27,c),
(612,8,o),
(645,0,o),
(683,0,cs),
(1055,0,ls),
(1143,0,o),
(1209,65,o),
(1189,177,cs)
);
},
{
closed = 1;
nodes = (
(737,195,o),
(817,321,o),
(962,321,cs),
(1036,321,o),
(1118,278,o),
(1137,178,cs),
(1151,105,o),
(1126,49,o),
(1046,49,cs),
(729,49,l)
);
}
);
width = 1224;
}
);
note = uni0636;
unicode = 1590;
},
{
glyphname = uni0637;
layers = (
{
layerId = m01;
shapes = (
{
closed = 1;
nodes = (
(714,301,o),
(611,368,o),
(505,368,cs),
(378,368,o),
(293,292,o),
(252,191,c),
(189,550,ls),
(188,554,o),
(186,556,o),
(182,556,cs),
(178,556,ls),
(153,556,o),
(140,536,o),
(145,504,cs),
(225,49,l),
(145,49,ls),
(114,49,o),
(102,30,o),
(104,11,cs),
(105,7,l),
(105,1,o),
(108,0,o),
(114,0,cs),
(601,0,ls),
(690,0,o),
(756,65,o),
(736,177,cs)
);
},
{
closed = 1;
nodes = (
(276,53,l),
(286,197,o),
(365,321,o),
(509,321,cs),
(583,321,o),
(665,278,o),
(684,178,cs),
(698,105,o),
(673,49,o),
(593,49,cs),
(277,49,l)
);
}
);
width = 778;
}
);
note = uni0637;
unicode = 1591;
},
{
glyphname = uni0638;
layers = (
{
layerId = m01;
shapes = (
{
closed = 1;
nodes = (
(714,301,o),
(611,368,o),
(505,368,cs),
(378,368,o),
(293,292,o),
(252,191,c),
(189,550,ls),
(188,554,o),
(186,556,o),
(182,556,cs),
(178,556,ls),
(153,556,o),
(140,536,o),
(145,504,cs),
(225,49,l),
(145,49,ls),
(114,49,o),
(102,30,o),
(104,11,cs),
(105,7,l),
(105,1,o),
(108,0,o),
(114,0,cs),
(601,0,ls),
(690,0,o),
(756,65,o),
(736,177,cs)
);
},
{
closed = 1;
nodes = (
(493,446,o),
(506,463,o),
(502,484,cs),
(498,505,o),
(479,522,o),
(458,522,cs),
(438,522,o),
(424,505,o),
(428,484,cs),
(432,463,o),
(451,446,o),
(471,446,cs)
);
},
{
closed = 1;
nodes = (
(276,53,l),
(286,197,o),
(365,321,o),
(509,321,cs),
(583,321,o),
(665,278,o),
(684,178,cs),
(698,105,o),
(673,49,o),
(593,49,cs),
(277,49,l)
);
}
);
width = 778;
}
);
note = uni0638;
unicode = 1592;
},
{
glyphname = uni0639;
layers = (
{
layerId = m01;
shapes = (
{
closed = 1;
nodes = (
(176,0,o),
(135,-69,o),
(148,-142,cs),
(161,-214,o),
(220,-281,o),
(326,-284,cs),
(362,-285,o),
(392,-283,o),
(426,-271,cs),
(446,-264,o),
(466,-254,o),
(486,-241,c),
(491,-239,o),
(494,-238,o),
(497,-238,cs),
(502,-238,o),
(507,-242,o),
(507,-247,c),
(509,-253,o),
(507,-258,o),
(506,-261,c),
(496,-280,o),
(472,-299,o),
(449,-310,cs),
(415,-326,o),
(380,-332,o),
(329,-331,cs),
(195,-328,o),
(106,-241,o),
(91,-141,cs),
(81,-69,o),
(108,-6,o),
(169,26,c),
(115,54,o),
(77,127,o),
(71,183,cs),
(58,304,o),
(125,368,o),
(221,368,cs),
(280,368,o),
(345,338,o),
(355,308,cs),
(357,300,o),
(355,294,o),
(347,294,cs),
(344,294,o),
(340,296,o),
(336,298,cs),
(316,308,o),
(283,321,o),
(234,321,cs),
(161,322,o),
(107,272,o),
(123,182,cs),
(133,123,o),
(185,49,o),
(273,49,cs),
(407,49,ls),
(438,49,o),
(457,29,o),
(461,11,cs),
(462,7,ls),
(464,1,o),
(462,0,o),
(455,0,cs),
(275,0,ls)
);
}
);
width = 464;
}
);
note = uni0639;
unicode = 1593;
},
{
glyphname = uni063A;
layers = (
{
layerId = m01;
shapes = (
{
closed = 1;
nodes = (
(169,522,o),
(155,505,o),
(159,484,cs),
(163,463,o),
(182,446,o),
(202,446,cs),
(224,446,o),
(237,463,o),
(233,484,cs),
(229,505,o),
(210,522,o),
(189,522,cs)
);
},
{
closed = 1;
nodes = (
(176,0,o),
(135,-69,o),
(148,-142,cs),
(161,-214,o),
(220,-281,o),
(326,-284,cs),
(362,-285,o),
(392,-283,o),
(426,-271,cs),
(446,-264,o),
(466,-254,o),
(486,-241,c),
(491,-239,o),
(494,-238,o),
(497,-238,cs),
(502,-238,o),
(507,-242,o),
(507,-247,c),
(509,-253,o),
(507,-258,o),
(506,-261,c),
(496,-280,o),
(472,-299,o),
(449,-310,cs),
(415,-326,o),
(380,-332,o),
(329,-331,cs),
(195,-328,o),
(106,-241,o),
(91,-141,cs),
(81,-69,o),
(108,-6,o),
(169,26,c),
(115,54,o),
(77,127,o),
(71,183,cs),
(58,304,o),
(125,368,o),
(221,368,cs),
(280,368,o),
(345,338,o),
(355,308,cs),
(357,300,o),
(355,294,o),
(347,294,cs),
(344,294,o),
(340,296,o),
(336,298,cs),
(316,308,o),
(283,321,o),
(234,321,cs),
(161,322,o),
(107,272,o),
(123,182,cs),
(133,123,o),
(185,49,o),
(273,49,cs),
(407,49,ls),
(438,49,o),
(457,29,o),
(461,11,cs),
(462,7,ls),
(464,1,o),
(462,0,o),
(455,0,cs),
(275,0,ls)
);
}
);
width = 464;
}
);
note = uni063A;
unicode = 1594;
},
{
glyphname = uni0640;
layers = (
{
layerId = m01;
shapes = (
{
closed = 1;
nodes = (
(5,0,l),
(120,0,l),
(112,49,l),
(-4,49,l)
);
}
);
width = 104;
}
);
note = uni0640;
unicode = 1600;
},
